comic_neue_light-oblique.sfdir
StartChar: exclam
Encoding: 33 33 94
Width: 186
Flags: MW
HStem: 0 66<77 113> 681 20G<237 247.5>
LayerCount: 2
Back
Fore
SplineSet
110 178 m 2
 217 680 l 2
 220 692 232 701 242 701 c 0
 253 701 260 692 257 680 c 2
 150 178 l 2
 148 168 137 158 126 158 c 0
 116 158 108 168 110 178 c 2
123 39 m 0
 118 17 99 0 84 0 c 0
 70 0 63 13 66 28 c 0
 71 48 89 66 106 66 c 0
 120 66 126 53 123 39 c 0
EndSplineSet
EndChar
StartChar: quotedbl
Encoding: 34 34 114
Width: 303
Flags: MW
HStem: 521 21G<197.5 208 321.5 332> 678 20G<235.5 246 359.5 370>
LayerCount: 2
Back
Fore
SplineSet
203 521 m 0
 192 521 186 529 188 540 c 2
 218 679 l 2
 220 690 230 698 241 698 c 0
 251 698 258 690 256 679 c 2
 226 540 l 2
 224 529 213 521 203 521 c 0
327 521 m 0
 316 521 310 529 312 540 c 2
 342 679 l 2
 344 690 354 698 365 698 c 0
 375 698 382 690 380 679 c 2
 350 540 l 2
 348 529 337 521 327 521 c 0
EndSplineSet
EndChar
StartChar: numbersign
Encoding: 35 35 86
Width: 736
Flags: MW
HStem: 0 21G<171 181 391 401> 219 37<121 281 134 262 318 482 134 300 538 670> 447 38<216.5 397 230 377 230 416 434 597 654 766> 447 250<222 522.5 416 522.5 512.5 522.5 512.5 597 512.5 635 732 742 512.5 766>
LayerCount: 2
Back
Fore
SplineSet
520 219 m 1xe0
 416 14 l 2
 412 5 405 0 397 0 c 0
 385 0 379 8 382 19 c 0
 382 22 384 27 388 34 c 2
 482 219 l 1
 300 219 l 1
 197 14 l 2
 193 5 185 0 177 0 c 0
 165 0 159 8 161 17 c 0
 162 22 164 26 168 33 c 2
 262 219 l 1
 126 219 l 2
 116 219 109 227 111 238 c 0
 113 248 124 256 134 256 c 2
 281 256 l 1
 377 447 l 1
 222 447 l 2
 211 447 204 455 207 466 c 0
 209 476 219 485 230 485 c 2
 397 485 l 1xe0
 496 684 l 2
 500 692 508 697 517 697 c 0xd0
 528 697 533 689 531 679 c 0
 530 675 528 671 525 665 c 2
 434 485 l 1
 616 485 l 1xe0
 716 684 l 2
 720 692 728 697 736 697 c 0xd0
 748 697 753 688 751 681 c 0
 750 677 748 672 745 666 c 2
 654 485 l 1
 774 485 l 2
 784 485 791 476 789 466 c 0
 786 455 776 447 766 447 c 2
 635 447 l 1
 538 256 l 1
 678 256 l 2
 688 256 695 248 693 238 c 0
 691 227 680 219 670 219 c 2
 520 219 l 1xe0
501 256 m 1
 597 447 l 1
 416 447 l 1
 318 256 l 1
 501 256 l 1
EndSplineSet
EndChar
StartChar: dollar
Encoding: 36 36 101
Width: 594
Flags: MW
HStem: -77 21G<290 300> 658 30<476 494> 742 20G<468 478>
LayerCount: 2
Back
Fore
SplineSet
142 154 m 0
 153 80 225 43 301 34 c 1
 368 349 l 1
 280 379 194 431 213 521 c 0
 237 633 345 679 440 687 c 1
 451 743 l 2
 454 753 463 762 473 762 c 0
 483 762 490 753 487 743 c 2
 476 688 l 1
 568 688 679 654 657 554 c 0
 656 546 647 539 637 539 c 0
 627 539 620 546 620 554 c 0
 623 637 519 658 469 658 c 1
 410 380 l 1
 539 341 600 275 582 189 c 0
 559 83 458 16 330 0 c 1
 317 -58 l 2
 315 -69 305 -77 295 -77 c 0
 285 -77 279 -69 281 -58 c 2
 293 -1 l 1
 187 7 110 61 98 142 c 0
 98 146 97 150 98 154 c 0
 100 160 110 172 124 172 c 0
 133 172 140 165 142 154 c 0
258 518 m 0
 247 467 287 425 377 391 c 1
 433 655 l 1
 308 638 269 573 258 518 c 0
402 339 m 1
 337 34 l 1
 416 41 515 83 539 195 c 0
 546 226 548 289 402 339 c 1
EndSplineSet
EndChar
StartChar: percent
Encoding: 37 37 96
Width: 718
Flags: MW
HStem: -8 35<511 563.5> 0 21G<175.5 183> 219 35<552 604.5> 440 35<267 319 267 322> 667 35<308 360>
LayerCount: 2
Back
Fore
SplineSet
286 440 m 0xb8
 214 440 167 499 182 571 c 0
 197 643 270 702 342 702 c 0
 414 702 460 643 445 571 c 0
 430 499 358 440 286 440 c 0xb8
334 667 m 0
 282 667 229 623 218 571 c 0
 206 517 241 475 293 475 c 0
 345 475 398 517 410 571 c 0
 421 623 386 667 334 667 c 0
530 -8 m 0
 459 -8 411 51 427 123 c 0
 442 195 514 254 585 254 c 0
 657 254 705 195 690 123 c 0
 674 51 602 -8 530 -8 c 0
578 219 m 0
 526 219 474 175 463 123 c 0
 451 69 485 27 537 27 c 0
 590 27 642 69 654 123 c 0
 665 175 631 219 578 219 c 0
707 674 m 2
 196 8 l 2
 192 3 186 0 180 0 c 0x78
 171 0 166 7 168 15 c 0
 168 17 170 22 174 27 c 2
 682 690 l 2
 686 696 691 698 697 698 c 0
 706 698 712 691 710 682 c 0
 710 679 708 676 707 674 c 2
EndSplineSet
EndChar
StartChar: ampersand
Encoding: 38 38 100
Width: 650
Flags: MW
HStem: -4 35<236 274.5> 0 21G<576.5 583.5> 663 35<411 463.5>
LayerCount: 2
Back
Fore
SplineSet
554 270 m 0xa0
 564 290 568 296 581 296 c 0
 590 296 596 289 594 279 c 0
 594 278 592 273 586 262 c 0
 567 223 544 185 520 154 c 1
 598 29 l 2
 600 25 601 22 600 18 c 0
 598 8 588 0 579 0 c 0x60
 574 0 569 2 566 6 c 2
 493 121 l 1
 384 3 287 -4 262 -4 c 0
 166 -4 76 66 99 178 c 0
 124 292 223 345 321 393 c 1
 296 431 258 498 272 561 c 0
 287 634 370 698 444 698 c 0
 518 698 572 633 557 564 c 0
 541 485 485 438 375 385 c 1
 501 183 l 1
 528 219 539 243 554 270 c 0xa0
307 561 m 0
 295 507 332 444 358 412 c 1
 504 477 514 522 523 562 c 0
 534 612 491 663 436 663 c 0
 386 663 319 619 307 561 c 0
269 31 m 0xa0
 292 31 380 39 476 150 c 1
 341 368 l 1
 237 319 157 278 135 178 c 0
 114 77 203 31 269 31 c 0xa0
EndSplineSet
EndChar
StartChar: quotesingle
Encoding: 39 39 113
Width: 179
Flags: MW
HStem: 521 21G<198 208> 678 20G<236 246>
LayerCount: 2
Back
Fore
SplineSet
203 521 m 0
 193 521 186 529 188 540 c 2
 218 679 l 2
 220 690 231 698 241 698 c 0
 251 698 258 690 256 679 c 2
 226 540 l 2
 224 529 213 521 203 521 c 0
EndSplineSet
EndChar
StartChar: parenleft
Encoding: 40 40 103
Width: 359
Flags: MW
HStem: -113 21G<236.5 244.5> 788 20G<447 455>
LayerCount: 2
Back
Fore
SplineSet
224 -104 m 0
 198 -62 92 109 144 355 c 0
 179 522 297 687 431 798 c 0
 436 802 444 808 450 808 c 0
 460 808 466 799 464 789 c 0
 463 784 460 779 455 775 c 0
 450 771 237 612 182 355 c 0
 127 97 257 -77 259 -80 c 0
 263 -84 263 -90 262 -95 c 0
 260 -104 249 -113 240 -113 c 0
 233 -113 228 -108 224 -104 c 0
EndSplineSet
EndChar
StartChar: parenright
Encoding: 41 41 102
Width: 359
Flags: MW
HStem: -113 21G<71.5 79.5> 788 20G<253 261>
LayerCount: 2
Back
Fore
SplineSet
96 -104 m 0
 92 -108 83 -113 76 -113 c 0
 67 -113 60 -104 62 -95 c 0
 63 -90 67 -84 71 -80 c 0
 75 -77 279 97 334 355 c 0
 389 612 242 771 239 775 c 0
 236 779 235 784 236 789 c 0
 238 799 248 808 258 808 c 0
 264 808 270 802 273 798 c 0
 361 687 407 522 372 355 c 0
 320 109 140 -62 96 -104 c 0
EndSplineSet
EndChar
StartChar: asterisk
Encoding: 42 42 105
Width: 387
Flags: MW
HStem: 457 181<203.5 228 221.5 383> 678 20G<339.5 349>
LayerCount: 2
Back
Fore
SplineSet
316 564 m 1
 316 564 278 513 266 503 c 2
 220 463 l 2
 216 460 212 457 208 457 c 0
 199 457 192 465 194 475 c 0
 196 480 198 485 201 489 c 2
 243 525 l 2
 259 541 305 567 309 570 c 1
 306 570 251 581 241 588 c 0
 231 593 221 600 211 605 c 1
 212 605 l 1
 206 609 204 615 205 621 c 0
 207 628 217 638 226 638 c 0
 230 638 233 637 236 636 c 2
 261 621 l 1
 260 621 l 1
 276 612 313 577 313 577 c 1
 313 577 313 638 316 652 c 2
 322 680 l 2
 324 690 335 698 344 698 c 0
 354 698 360 690 358 680 c 2
 352 652 l 2
 349 638 323 577 323 577 c 1
 323 577 376 612 394 621 c 1
 393 621 l 1
 426 636 l 2
 429 637 431 638 436 638 c 0
 446 638 451 628 449 621 c 0
 448 615 444 609 437 605 c 1
 438 605 l 1
 398 588 l 2
 385 580 329 570 324 570 c 1
 326 569 358 543 371 525 c 2
 397 489 l 2
 400 485 400 480 398 475 c 0
 396 465 387 457 379 457 c 0
 373 457 369 460 367 463 c 2
 339 503 l 2
 332 513 316 564 316 564 c 1
EndSplineSet
EndChar
StartChar: plus
Encoding: 43 43 104
Width: 433
Flags: MW
HStem: 89 21G<234 243.5> 233 36<119 260 132 252 295 417 132 287> 383 20G<301 310.5>
LayerCount: 2
Back
Fore
SplineSet
417 233 m 2
 287 233 l 1
 260 106 l 2
 258 97 248 89 239 89 c 0
 229 89 223 97 225 106 c 2
 252 233 l 1
 124 233 l 2
 114 233 108 242 110 251 c 0
 112 261 122 269 132 269 c 2
 260 269 l 1
 285 386 l 2
 286 395 296 403 306 403 c 0
 315 403 321 395 320 386 c 2
 295 269 l 1
 425 269 l 2
 434 269 440 261 438 251 c 0
 436 242 426 233 417 233 c 2
EndSplineSet
EndChar
StartChar: comma
Encoding: 44 44 72
Width: 251
Flags: MW
HStem: -96 21G<84.5 93.5> 39 20G<146 160.5>
LayerCount: 2
Back
Fore
SplineSet
81 -76 m 2
 123 -5 l 1
 116 3 113 14 115 23 c 0
 120 43 138 59 154 59 c 0
 167 59 174 47 172 36 c 0
 168 18 164 11 141 -27 c 0
 116 -67 99 -96 88 -96 c 0
 81 -96 76 -91 77 -86 c 0
 78 -83 78 -81 81 -76 c 2
EndSplineSet
EndChar
StartChar: hyphen
Encoding: 45 45 112
Width: 431
Flags: MW
HStem: 232 36<136.5 406 148 399>
LayerCount: 2
Back
Fore
SplineSet
399 232 m 2
 141 232 l 2
 132 232 126 241 128 250 c 0
 130 259 139 268 148 268 c 2
 406 268 l 2
 415 268 423 259 421 250 c 0
 419 241 408 232 399 232 c 2
EndSplineSet
EndChar
StartChar: period
Encoding: 46 46 107
Width: 204
Flags: MW
HStem: 0 21G<92.5 107.5> 46 20G<113 127.5>
LayerCount: 2
Back
Fore
SplineSet
99 0 m 0
 86 0 78 14 82 29 c 0
 86 48 105 66 121 66 c 0
 134 66 141 53 138 39 c 0
 133 18 116 0 99 0 c 0
EndSplineSet
EndChar
StartChar: slash
Encoding: 47 47 74
Width: 535
Flags: MW
HStem: -2 21G<84.5 92> 680 20G<602 611>
LayerCount: 2
Back
Fore
SplineSet
616 672 m 2
 106 6 l 2
 100 -1 95 -2 89 -2 c 0
 80 -2 72 6 74 17 c 0
 75 19 77 24 81 29 c 2
 589 692 l 2
 593 698 599 700 605 700 c 0
 617 700 623 692 620 680 c 0
 619 677 618 674 616 672 c 2
EndSplineSet
EndChar
StartChar: zero
Encoding: 48 48 54
Width: 604
Flags: MW
HStem: -3 36<247.5 361 247.5 364> 658 36<402.5 514.5>
LayerCount: 2
Back
Fore
SplineSet
296 -3 m 0
 165 -3 103 151 140 327 c 0
 181 521 328 694 468 694 c 0
 599 694 660 541 623 363 c 0
 581 166 432 -3 296 -3 c 0
460 658 m 0
 345 658 214 509 175 329 c 0
 143 175 191 33 304 33 c 0
 418 33 550 182 588 361 c 0
 621 517 569 658 460 658 c 0
EndSplineSet
EndChar
StartChar: one
Encoding: 49 49 55
Width: 394
Flags: MW
HStem: 0 38<81.5 198 95 198 235 314> 668 20G<361 368.5>
LayerCount: 2
Back
Fore
SplineSet
235 38 m 1
 320 38 l 2
 333 38 339 29 337 19 c 0
 334 8 324 0 314 0 c 2
 87 0 l 2
 76 0 69 8 72 19 c 0
 74 29 84 38 95 38 c 2
 198 38 l 1
 329 620 l 1
 206 512 l 2
 201 507 196 505 191 505 c 0
 180 505 174 514 176 524 c 0
 177 528 180 534 184 537 c 2
 347 681 l 2
 352 686 359 688 363 688 c 0
 374 688 380 677 379 669 c 2
 235 38 l 1
EndSplineSet
EndChar
StartChar: two
Encoding: 50 50 56
Width: 518
Flags: MW
HStem: 0 36<116 447> 647 38<374 449.5>
LayerCount: 2
Back
Fore
SplineSet
226 568 m 0
 218 560 211 551 201 551 c 0
 190 551 184 562 186 571 c 0
 187 578 194 587 219 606 c 0
 262 641 332 685 416 685 c 0
 524 685 585 610 566 519 c 0
 541 403 448 353 350 299 c 0
 253 243 155 181 116 36 c 1
 454 36 l 2
 464 36 471 28 469 18 c 0
 467 8 457 0 447 0 c 2
 71 0 l 1
 74 18 l 1
 112 197 227 269 341 334 c 0
 431 386 510 429 529 519 c 0
 545 593 491 647 408 647 c 0
 314 647 235 576 226 568 c 0
EndSplineSet
EndChar
StartChar: three
Encoding: 51 51 57
Width: 533
Flags: MW
HStem: -6 37<223 305> 368 37<329.5 352.5> 654 38<384.5 454>
LayerCount: 2
Back
Fore
SplineSet
266 -6 m 0
 130 -6 96 93 94 102 c 0
 93 109 94 114 94 117 c 0
 96 126 107 133 116 133 c 0
 124 133 128 129 131 123 c 0
 140 97 175 31 271 31 c 0
 351 31 452 83 477 198 c 0
 506 338 379 368 326 368 c 0
 316 368 309 376 312 387 c 0
 314 397 324 405 335 405 c 0
 415 405 518 469 534 544 c 0
 545 597 503 654 405 654 c 0
 331 654 288 626 267 613 c 0
 257 606 252 603 248 603 c 0
 235 603 231 614 233 622 c 0
 234 629 244 640 269 654 c 0
 301 672 356 692 413 692 c 0
 520 692 589 627 571 544 c 0
 558 482 498 425 420 388 c 1
 500 351 532 278 515 198 c 0
 482 47 344 -6 266 -6 c 0
EndSplineSet
EndChar
StartChar: four
Encoding: 52 52 58
Width: 498
Flags: MW
HStem: -1 21G<360.5 371> 175 37 672 20G<509 517.5>
LayerCount: 2
Back
Fore
SplineSet
105 206 m 2
 496 684 l 2
 500 689 506 692 512 692 c 0
 523 692 531 684 529 673 c 2
 430 209 l 1
 475 208 l 2
 487 208 492 200 490 190 c 0
 488 179 478 171 467 171 c 2
 422 172 l 1
 389 18 l 2
 387 7 376 -1 366 -1 c 0
 355 -1 349 7 351 18 c 2
 384 173 l 1
 110 177 l 2
 98 177 96 186 97 192 c 0
 98 197 101 200 105 206 c 2
476 606 m 1
 155 214 l 1
 392 210 l 1
 476 606 l 1
EndSplineSet
EndChar
StartChar: five
Encoding: 53 53 59
Width: 549
Flags: MW
HStem: -3 37<237 324 237 325.5> 445 37<362.5 440.5> 643 37<296 583 296 296>
LayerCount: 2
Back
Fore
SplineSet
131 122 m 0
 159 66 200 34 274 34 c 0
 374 34 485 135 510 253 c 0
 530 348 499 445 382 445 c 0
 291 445 224 386 211 375 c 0
 204 369 199 367 194 367 c 0
 181 367 175 378 178 390 c 2
 266 664 l 2
 269 673 278 680 287 680 c 2
 591 680 l 2
 601 680 607 672 605 662 c 0
 603 651 593 643 583 643 c 2
 296 643 l 1
 231 433 l 1
 277 457 335 482 390 482 c 0
 508 482 577 391 547 253 c 0
 518 113 385 -3 266 -3 c 0
 154 -3 101 74 93 104 c 0
 92 107 92 110 93 115 c 0
 95 125 106 133 116 133 c 0
 125 133 128 129 131 122 c 0
EndSplineSet
EndChar
StartChar: six
Encoding: 54 54 60
Width: 536
Flags: MW
HStem: -3 34<244 305.5> 407 35<376 394.5> 669 20G<493.5 500.5>
LayerCount: 2
Back
Fore
SplineSet
171 326 m 1
 161 301 155 274 149 247 c 0
 111 69 202 31 286 31 c 0
 333 31 460 69 497 242 c 0
 529 395 413 407 376 407 c 0
 270 406 194 347 171 326 c 1
480 685 m 0
 487 688 491 689 496 689 c 0
 505 689 511 681 509 672 c 0
 508 665 502 659 496 656 c 0
 380 605 261 501 191 377 c 1
 241 413 320 442 383 442 c 0
 488 442 558 373 530 242 c 0
 487 40 332 -3 279 -3 c 0
 174 -3 75 57 115 247 c 0
 178 545 428 661 480 685 c 0
EndSplineSet
EndChar
StartChar: seven
Encoding: 55 55 61
Width: 491
Flags: MW
HStem: 1 21G<133 141.5> 640 37<216 603 228 566>
LayerCount: 2
Back
Fore
SplineSet
614 649 m 2
 157 10 l 2
 152 4 145 1 138 1 c 0
 128 1 121 9 124 20 c 0
 124 23 126 26 127 28 c 2
 566 640 l 1
 221 640 l 2
 211 640 203 648 206 659 c 0
 208 669 218 677 228 677 c 2
 603 677 l 2
 614 677 620 668 618 658 c 0
 618 654 616 652 614 649 c 2
EndSplineSet
EndChar
StartChar: eight
Encoding: 56 56 62
Width: 537
Flags: MW
HStem: -3 36<233 319.5 233 330.5> 656 38<394 462.5>
LayerCount: 2
Back
Fore
SplineSet
272 -3 m 0
 153 -3 83 73 105 176 c 0
 131 280 224 337 306 373 c 1
 246 402 198 447 213 521 c 0
 236 629 333 694 431 694 c 0
 533 694 592 629 573 538 c 0
 556 461 484 413 412 380 c 1
 493 334 533 265 516 187 c 0
 493 78 389 -3 272 -3 c 0
361 357 m 1
 271 322 165 286 141 170 c 0
 124 90 186 33 280 33 c 0
 359 33 459 80 480 183 c 0
 500 277 433 333 361 357 c 1
424 656 m 0
 364 656 270 624 249 525 c 0
 236 462 269 424 363 396 c 1
 491 442 527 490 538 544 c 0
 553 614 501 656 424 656 c 0
EndSplineSet
EndChar
StartChar: nine
Encoding: 57 57 63
Width: 536
Flags: MW
HStem: 0 21G<188.5 195.5> 247 35<293.5 312 293.5 336.5> 658 34<383.5 444>
LayerCount: 2
Back
Fore
SplineSet
518 363 m 1
 527 388 534 415 539 442 c 0
 577 620 486 658 402 658 c 0
 355 658 228 620 192 447 c 0
 159 294 275 282 312 282 c 0
 419 283 494 342 518 363 c 1
208 4 m 0
 202 1 198 0 193 0 c 0
 184 0 177 8 179 17 c 0
 181 24 187 30 193 33 c 0
 308 84 427 188 498 312 c 1
 447 276 368 247 305 247 c 0
 200 247 131 316 159 447 c 0
 201 649 357 692 410 692 c 0
 515 692 614 632 573 442 c 0
 510 144 260 28 208 4 c 0
EndSplineSet
EndChar
StartChar: colon
Encoding: 58 58 71
Width: 225
Flags: MW
HStem: 0 21G<89 104> 419 20G<219 233.5>
LayerCount: 2
Back
Fore
SplineSet
96 0 m 0
 82 0 75 14 79 29 c 0
 83 48 101 66 118 66 c 0
 131 66 138 53 135 39 c 0
 130 18 112 0 96 0 c 0
205 373 m 0
 191 373 185 387 188 402 c 0
 192 421 211 439 227 439 c 0
 240 439 247 426 244 412 c 0
 240 391 222 373 205 373 c 0
EndSplineSet
EndChar
StartChar: semicolon
Encoding: 59 59 111
Width: 261
Flags: MW
HStem: -96 21G<80.5 89.5> 419 20G<260 274.5>
LayerCount: 2
Back
Fore
SplineSet
246 373 m 0
 232 373 226 387 229 402 c 0
 233 421 252 439 268 439 c 0
 281 439 288 426 285 412 c 0
 281 391 263 373 246 373 c 0
77 -76 m 2
 119 -5 l 1
 112 3 109 14 111 23 c 0
 116 43 134 59 150 59 c 0
 163 59 170 47 168 36 c 0
 164 18 160 11 137 -27 c 0
 112 -67 95 -96 84 -96 c 0
 77 -96 72 -91 73 -86 c 0
 74 -83 74 -81 77 -76 c 2
EndSplineSet
EndChar
StartChar: less
Encoding: 60 60 109
Width: 530
Flags: MW
HStem: 8 21G<425.5 432> 472 20G<549 555>
LayerCount: 2
Back
Fore
SplineSet
415 13 m 2
 131 231 l 2
 125 235 124 240 125 248 c 0
 126 254 132 260 139 264 c 2
 538 489 l 2
 544 492 548 492 550 492 c 0
 560 492 567 482 565 472 c 0
 564 466 559 460 552 456 c 2
 180 247 l 1
 444 44 l 2
 449 40 452 33 450 27 c 0
 448 17 437 8 427 8 c 0
 424 8 421 9 415 13 c 2
EndSplineSet
EndChar
StartChar: equal
Encoding: 61 61 90
Width: 483
Flags: MW
HStem: 151 37<125.5 435 137 428> 312 36<159.5 469 171 462>
LayerCount: 2
Back
Fore
SplineSet
462 312 m 2
 164 312 l 2
 155 312 148 320 149 329 c 0
 152 340 162 348 171 348 c 2
 469 348 l 2
 480 348 487 340 484 329 c 0
 483 320 473 312 462 312 c 2
428 151 m 2
 130 151 l 2
 121 151 113 159 115 169 c 0
 118 179 128 188 137 188 c 2
 435 188 l 2
 446 188 453 179 450 169 c 0
 448 159 439 151 428 151 c 2
EndSplineSet
EndChar
StartChar: greater
Encoding: 62 62 65
Width: 530
Flags: MW
HStem: 8 21G<113 119.5> 472 20G<196 202>
LayerCount: 2
Back
Fore
SplineSet
510 231 m 2
 132 13 l 2
 124 9 121 8 118 8 c 0
 108 8 101 17 103 27 c 0
 105 33 110 40 117 44 c 2
 467 247 l 1
 183 456 l 2
 178 460 177 466 178 472 c 0
 180 482 191 492 201 492 c 0
 203 492 207 492 211 489 c 2
 516 264 l 2
 521 260 523 254 522 248 c 0
 521 240 516 235 510 231 c 2
EndSplineSet
EndChar
StartChar: question
Encoding: 63 63 108
Width: 523
Flags: MW
HStem: 0 21G<151.5 166.5> 685 35<360 458>
LayerCount: 2
Back
Fore
SplineSet
390 296 m 2
 245 188 l 2
 241 185 236 182 232 182 c 0
 222 182 216 191 218 200 c 0
 219 205 222 209 227 213 c 2
 377 326 l 2
 453 383 522 437 539 516 c 0
 556 597 526 685 390 685 c 0
 316 685 260 640 220 603 c 0
 217 601 213 598 207 598 c 0
 197 598 190 606 192 614 c 0
 194 623 205 634 218 645 c 0
 257 680 322 720 398 720 c 0
 529 720 600 638 574 516 c 0
 551 405 452 342 390 296 c 2
158 0 m 0
 145 0 137 14 141 29 c 0
 145 48 164 66 181 66 c 0
 193 66 201 53 198 39 c 0
 193 18 175 0 158 0 c 0
EndSplineSet
EndChar
StartChar: at
Encoding: 64 64 85
Width: 818
Flags: MW
HStem: -98 34<344.5 453> 99 35<647 653> 114 34<360.5 398> 392 34<452 501.5> 588 35<476.5 658.5>
LayerCount: 2
Back
Fore
SplineSet
622 -3 m 0xd8
 631 2 634 4 639 4 c 0
 648 4 655 -4 653 -14 c 0
 651 -20 646 -25 636 -32 c 0
 588 -60 501 -98 405 -98 c 0
 216 -98 79 53 121 253 c 0
 166 465 356 623 567 623 c 0
 756 623 874 478 834 288 c 0
 797 113 669 99 637 99 c 0xd8
 555 99 521 142 517 198 c 1
 474 154 422 114 374 114 c 0
 313 114 271 154 289 238 c 0
 310 336 402 426 496 426 c 0
 526 426 557 417 581 399 c 0
 592 391 596 385 595 378 c 0
 593 369 582 361 572 361 c 0
 569 361 565 362 558 367 c 0
 536 382 513 392 490 392 c 0
 414 392 342 317 325 238 c 0
 311 174 340 148 381 148 c 0xb8
 444 148 521 250 543 287 c 0
 547 295 555 298 563 298 c 0
 572 298 578 290 576 280 c 0
 575 275 573 271 570 265 c 0
 565 256 560 247 556 227 c 0
 545 176 572 135 647 134 c 0
 679 134 769 148 799 288 c 0
 830 437 758 588 559 588 c 0
 394 588 203 473 156 253 c 0
 112 46 277 -64 412 -64 c 0
 502 -64 579 -28 622 -3 c 0xd8
EndSplineSet
EndChar
StartChar: A
Encoding: 65 65 1
Width: 614
Flags: MW
HStem: -1 21G<545 554.5> 0 21G<66 76> 669 20G<469.5 479>
LayerCount: 2
Back
Fore
SplineSet
58 27 m 2x60
 165 203 l 1
 126 194 l 2
 113 192 107 202 110 212 c 0
 112 222 120 229 129 231 c 2
 190 244 l 1
 452 677 l 2
 457 684 465 689 474 689 c 0
 484 689 489 683 489 677 c 2
 574 32 l 2
 575 23 574 18 574 15 c 0
 571 4 560 -1 549 -1 c 0xa0
 541 -1 536 3 535 11 c 2
 501 272 l 1
 211 211 l 1
 91 11 l 2
 86 4 80 0 72 0 c 0
 60 0 52 8 54 18 c 0
 55 21 57 25 58 27 c 2x60
237 253 m 1
 496 307 l 1
 455 614 l 1
 237 253 l 1
EndSplineSet
EndChar
StartChar: B
Encoding: 66 66 28
Width: 593
Flags: MW
HStem: -2 37<113 223 113 249> 340 38<178 398 186 398 398 400> 643 38<242 242 242 410>
LayerCount: 2
Back
Fore
SplineSet
96 -2 m 0
 79 -2 68 2 72 23 c 2
 208 662 l 2
 211 673 220 681 230 681 c 2
 418 681 l 2
 611 681 605 547 599 518 c 0
 583 446 531 398 484 368 c 1
 569 335 609 279 592 200 c 0
 565 72 402 -2 96 -2 c 0
178 340 m 1
 113 35 l 1
 333 35 530 84 555 200 c 0
 576 300 483 340 400 340 c 2
 178 340 l 1
242 643 m 1
 186 378 l 1
 398 378 l 2
 475 378 546 446 561 515 c 0
 565 536 576 643 410 643 c 2
 242 643 l 1
EndSplineSet
EndChar
StartChar: D
Encoding: 68 68 30
Width: 610
Flags: MW
HStem: -21 39<193 298> 643 38<242 242>
LayerCount: 2
Back
Fore
SplineSet
202 -21 m 0
 143 -21 88 -5 81 -3 c 0
 73 -1 69 7 71 15 c 2
 208 662 l 2
 211 673 221 681 231 681 c 0
 396 681 689 625 620 299 c 0
 573 76 394 -21 202 -21 c 0
242 643 m 1
 112 31 l 1
 137 25 176 18 210 18 c 0
 399 18 542 109 582 299 c 0
 634 545 460 633 242 643 c 1
EndSplineSet
EndChar
StartChar: E
Encoding: 69 69 31
Width: 600
Flags: MW
HStem: 0 38<82 534 114 526> 334 38<185 548 176 557> 644 38<242 664 242 242>
LayerCount: 2
Back
Fore
SplineSet
114 38 m 1
 534 38 l 2
 544 38 551 30 549 20 c 0
 546 9 536 0 526 0 c 2
 87 0 l 2
 77 0 69 9 72 20 c 2
 209 664 l 2
 211 674 221 682 231 682 c 2
 672 682 l 2
 682 682 690 674 688 664 c 0
 685 653 674 644 664 644 c 2
 242 644 l 1
 185 372 l 1
 557 372 l 2
 567 372 573 364 571 353 c 0
 568 343 558 334 548 334 c 2
 176 334 l 1
 114 38 l 1
EndSplineSet
EndChar
StartChar: F
Encoding: 70 70 52
Width: 535
Flags: MW
HStem: -1 21G<76 86> 333 38<171 509 179 501> 643 38<237 659 237 237>
LayerCount: 2
Back
Fore
SplineSet
171 333 m 1
 105 19 l 2
 102 8 91 -1 81 -1 c 0
 71 -1 64 8 67 19 c 2
 203 661 l 2
 205 672 216 681 226 681 c 2
 667 681 l 2
 677 681 684 672 682 661 c 0
 680 651 669 643 659 643 c 2
 237 643 l 1
 179 371 l 1
 509 371 l 2
 520 371 526 362 524 351 c 0
 522 341 512 333 501 333 c 2
 171 333 l 1
EndSplineSet
EndChar
StartChar: G
Encoding: 71 71 32
Width: 741
Flags: MW
HStem: -1 38<279 430.5 279 437.5> 228 56 246 38<592.5 627.5> 645 38<425.5 583>
LayerCount: 2
Back
Fore
SplineSet
735 268 m 0xd0
 742 265 746 260 744 250 c 0
 741 239 733 231 723 231 c 0
 717 231 710 234 698 237 c 1
 638 104 515 -1 360 -1 c 0
 175 -1 95 162 131 331 c 0
 166 498 328 683 523 683 c 0
 710 683 753 540 745 500 c 0
 743 490 733 483 723 483 c 0
 714 483 708 488 707 498 c 0
 696 568 651 645 515 645 c 0
 309 645 190 428 170 331 c 0
 143 204 190 37 368 37 c 0
 493 37 604 116 663 244 c 1
 645 246 634 246 621 246 c 0xb0
 564 246 527 237 504 232 c 0
 493 230 488 228 482 228 c 0
 473 228 465 235 468 247 c 0
 469 254 476 262 485 265 c 0
 488 266 555 284 628 284 c 0
 691 284 727 271 735 268 c 0xd0
EndSplineSet
EndChar
StartChar: H
Encoding: 72 72 33
Width: 675
Flags: MW
HStem: 0 21G<80.5 91 594.5 605> 661 20G<224.5 235 738.5 749>
LayerCount: 2
Back
Fore
SplineSet
744 681 m 0
 754 681 761 673 758 662 c 2
 622 19 l 2
 619 8 610 0 600 0 c 0
 589 0 581 8 584 19 c 2
 656 361 l 1
 167 296 l 1
 109 19 l 2
 106 8 96 0 86 0 c 0
 75 0 68 8 71 19 c 2
 207 662 l 2
 210 673 219 681 230 681 c 0
 240 681 248 673 245 662 c 2
 176 335 l 1
 665 400 l 1
 720 662 l 2
 723 673 733 681 744 681 c 0
EndSplineSet
EndChar
StartChar: I
Encoding: 73 73 34
Width: 423
Flags: MW
HStem: -1 38<77 204 90 204 242 346> 643 38<214 491 227 333 371 371 371 483>
LayerCount: 2
Back
Fore
SplineSet
242 37 m 1
 354 37 l 2
 366 37 372 29 370 19 c 0
 367 8 356 -1 346 -1 c 2
 82 -1 l 2
 72 -1 65 8 68 19 c 0
 70 29 80 37 90 37 c 2
 204 37 l 1
 333 643 l 1
 219 643 l 2
 209 643 202 652 204 662 c 0
 207 673 217 681 227 681 c 2
 491 681 l 2
 501 681 509 673 506 662 c 0
 504 652 493 643 483 643 c 2
 371 643 l 1
 242 37 l 1
EndSplineSet
EndChar
StartChar: J
Encoding: 74 74 35
Width: 462
Flags: MW
HStem: 0 38<169 287.5> 639 38<347 571 360 489 527 563 527 527>
LayerCount: 2
Back
Fore
SplineSet
360 677 m 2
 571 677 l 2
 581 677 589 669 586 658 c 0
 584 648 573 639 563 639 c 2
 527 639 l 1
 424 154 l 2
 409 83 349 0 226 0 c 0
 74 0 79 124 87 164 c 0
 90 176 99 185 112 185 c 0
 122 185 128 176 126 166 c 0
 121 142 104 38 234 38 c 0
 349 38 379 118 386 154 c 2
 489 639 l 1
 352 639 l 2
 342 639 334 648 336 658 c 0
 339 669 350 677 360 677 c 2
EndSplineSet
EndChar
StartChar: K
Encoding: 75 75 36
Width: 560
Flags: MW
HStem: -1 21G<494 501> 0 21G<80.5 90.5> 661 20G<224.5 234.5> 662 20G<620.5 627.5>
LayerCount: 2
Back
Fore
SplineSet
182 367 m 1x60
 609 677 l 2
 614 680 618 682 623 682 c 0
 632 682 639 673 637 664 c 0
 635 658 631 653 627 650 c 2
 190 335 l 1
 515 32 l 2
 520 27 520 22 519 17 c 0
 517 6 506 -1 496 -1 c 0x90
 492 -1 489 0 486 3 c 2
 167 301 l 1
 108 19 l 2
 105 8 96 0 85 0 c 0
 76 0 69 8 72 19 c 2
 209 664 l 2
 211 673 220 681 229 681 c 0
 240 681 247 673 245 664 c 2
 182 367 l 1x60
EndSplineSet
EndChar
StartChar: L
Encoding: 76 76 37
Width: 467
Flags: MW
HStem: 12 38 661 20G<225.5 236>
LayerCount: 2
Back
Fore
SplineSet
448 25 m 2
 87 0 l 2
 76 -1 69 7 72 19 c 2
 208 662 l 2
 211 673 220 681 231 681 c 0
 241 681 248 673 245 662 c 2
 113 38 l 1
 454 62 l 2
 465 63 472 54 470 43 c 0
 468 34 459 26 448 25 c 2
EndSplineSet
EndChar
StartChar: M
Encoding: 77 77 38
Width: 847
Flags: MW
HStem: 0 21G<62.5 72 411.5 419.5 786.5 797.5> 661 20G<350.5 359 786.5 795.5>
VStem: 772 37
LayerCount: 2
Back
Fore
SplineSet
370 669 m 2
 431 76 l 1
 771 670 l 2
 776 678 782 681 791 681 c 0
 800 681 805 676 805 670 c 2
 813 41 l 2
 814 29 813 21 811 14 c 0
 810 8 804 0 791 0 c 0
 782 0 775 4 775 14 c 2
 770 596 l 1
 435 11 l 2
 430 3 424 0 415 0 c 0
 408 0 401 3 400 12 c 2
 340 595 l 1
 88 14 l 2
 85 5 76 0 68 0 c 0
 57 0 51 7 53 15 c 0
 54 20 58 30 62 38 c 2
 334 667 l 2
 338 676 346 681 355 681 c 0
 363 681 369 676 370 669 c 2
EndSplineSet
EndChar
StartChar: N
Encoding: 78 78 39
Width: 609
Flags: MW
HStem: 0 21G<81 91 528.5 537.5> 661 20G<225 234> 662 20G
LayerCount: 2
Back
Fore
SplineSet
518 7 m 2xa0
 234 603 l 1
 109 19 l 2
 106 8 96 0 86 0 c 0
 76 0 69 8 72 19 c 2
 209 662 l 2xa0
 212 673 220 681 230 681 c 0xc0
 238 681 244 678 247 670 c 2
 530 77 l 1
 655 664 l 2
 657 674 666 682 676 682 c 0
 687 682 694 674 692 664 c 2
 555 19 l 2
 552 8 543 0 532 0 c 0
 525 0 520 2 518 7 c 2xa0
EndSplineSet
EndChar
StartChar: O
Encoding: 79 79 40
Width: 650
Flags: MW
HStem: -2 33<252.5 380 252.5 385> 649 33<418 545.5>
LayerCount: 2
Back
Fore
SplineSet
307 -2 m 0
 164 -2 92 142 128 312 c 0
 171 513 340 682 496 682 c 0
 638 682 712 540 676 368 c 0
 633 167 463 -2 307 -2 c 0
481 649 m 0
 350 649 202 500 162 312 c 0
 129 159 191 31 314 31 c 0
 446 31 602 183 641 364 c 0
 671 508 610 649 481 649 c 0
EndSplineSet
EndChar
StartChar: P
Encoding: 80 80 41
Width: 537
Flags: MW
HStem: 0 21G<81 91.5> 246 37<165 212 165 229> 645 37<286.5 395>
LayerCount: 2
Back
Fore
SplineSet
86 0 m 0
 76 0 69 8 72 19 c 2
 206 650 l 2
 211 674 214 682 283 682 c 0
 535 682 642 610 615 481 c 0
 576 298 301 246 157 246 c 1
 109 19 l 2
 106 8 97 0 86 0 c 0
241 643 m 1
 165 283 l 1
 259 283 542 312 578 481 c 0
 600 586 497 645 293 645 c 0
 280 645 260 645 241 643 c 1
EndSplineSet
EndChar
StartChar: Q
Encoding: 81 81 42
Width: 704
Flags: MW
HStem: -25 21G<636.5 642.5> -2 35<270.5 362> 645 35<437 581.5>
LayerCount: 2
Back
Fore
SplineSet
557 83 m 1
 656 9 l 2
 662 5 662 -1 661 -7 c 0
 658 -19 647 -25 638 -25 c 0
 635 -25 632 -25 628 -22 c 2
 522 60 l 1
 459 21 392 -2 332 -2 c 0
 169 -2 81 141 117 310 c 0
 160 512 349 680 525 680 c 0
 687 680 775 537 739 367 c 0
 716 261 647 158 557 83 c 1
340 33 m 0
 385 33 437 50 494 81 c 1
 413 143 l 2
 409 146 407 152 408 159 c 0
 410 169 420 177 429 177 c 0
 433 177 438 176 440 174 c 2
 530 105 l 1
 608 169 675 264 696 364 c 0
 726 507 653 645 510 645 c 0
 364 645 199 498 160 314 c 0
 127 157 201 33 340 33 c 0
EndSplineSet
EndChar
StartChar: S
Encoding: 83 83 44
Width: 588
Flags: MW
HStem: 0 34<272 350.5 272 355> 650 32<415 501.5>
LayerCount: 2
Back
Fore
SplineSet
395 379 m 0
 532 338 592 278 572 188 c 0
 545 61 406 0 304 0 c 0
 191 0 111 56 95 138 c 0
 94 141 94 147 95 151 c 0
 97 162 109 171 120 171 c 0
 131 171 136 165 137 156 c 0
 148 76 234 34 310 34 c 0
 391 34 506 77 529 188 c 0
 538 227 540 295 380 341 c 0
 289 367 189 419 209 515 c 0
 236 642 359 682 471 682 c 0
 542 682 659 659 647 553 c 0
 645 543 637 534 626 534 c 0
 615 534 610 541 611 549 c 0
 618 619 541 650 462 650 c 0
 368 650 271 619 250 520 c 0
 236 455 289 410 395 379 c 0
EndSplineSet
EndChar
StartChar: T
Encoding: 84 84 45
Width: 512
Flags: MW
HStem: 0 21G<247.5 258> 644 37<161 634 174 370 407 626 407 407>
LayerCount: 2
Back
Fore
SplineSet
174 681 m 2
 634 681 l 2
 644 681 652 673 649 662 c 0
 647 652 636 644 626 644 c 2
 407 644 l 1
 275 19 l 2
 272 8 263 0 253 0 c 0
 242 0 235 8 238 19 c 2
 370 644 l 1
 166 644 l 2
 156 644 149 652 151 662 c 0
 154 673 164 681 174 681 c 2
EndSplineSet
EndChar
StartChar: U
Encoding: 85 85 46
Width: 673
Flags: MW
HStem: 0 31<250 415.5> 661 20G<225 239.5 731 747.5>
LayerCount: 2
Back
Fore
SplineSet
752 653 m 0
 730 527 708 400 663 270 c 0
 608 110 502 0 329 0 c 0
 171 0 104 125 147 367 c 0
 165 474 188 570 207 655 c 0
 210 671 218 681 232 681 c 0
 247 681 248 670 245 654 c 0
 224 565 202 474 185 381 c 0
 160 236 151 31 336 31 c 0
 496 31 583 139 628 277 c 0
 667 397 687 518 715 651 c 0
 718 667 722 681 740 681 c 0
 755 681 755 668 752 653 c 0
EndSplineSet
EndChar
StartChar: V
Encoding: 86 86 47
Width: 525
Flags: MW
HStem: 0 21G<245 253> 660 20G<170 180.5 641 650>
LayerCount: 2
Back
Fore
SplineSet
249 0 m 0
 241 0 233 3 232 12 c 2
 153 650 l 2
 153 654 153 659 153 662 c 0
 155 672 164 680 176 680 c 0
 185 680 190 676 191 668 c 2
 266 74 l 1
 626 669 l 2
 630 676 637 680 645 680 c 0
 655 680 664 674 662 664 c 0
 660 658 659 655 657 652 c 2
 268 12 l 2
 263 4 257 0 249 0 c 0
EndSplineSet
EndChar
StartChar: W
Encoding: 87 87 48
Width: 857
Flags: MW
HStem: 0 21G<219.5 227.5 605 614.5> 661 20G<167 176.5 573 581 981.5 992>
VStem: 575 33
LayerCount: 2
Back
Fore
SplineSet
186 668 m 2
 240 78 l 1
 557 669 l 2
 561 677 569 681 577 681 c 0
 585 681 590 676 590 668 c 2
 627 79 l 1
 964 667 l 2
 970 677 977 681 986 681 c 0
 998 681 1002 672 1001 665 c 0
 1000 660 998 656 996 653 c 2
 629 11 l 2
 626 5 619 0 610 0 c 0
 600 0 594 4 594 12 c 2
 557 601 l 1
 243 12 l 2
 238 3 232 0 223 0 c 0
 216 0 209 4 209 12 c 2
 151 644 l 2
 150 657 150 661 151 664 c 0
 153 674 162 681 172 681 c 0
 181 681 186 676 186 668 c 2
EndSplineSet
EndChar
StartChar: X
Encoding: 88 88 49
Width: 671
Flags: MW
HStem: 0 21G<65.5 73.5 603.5 610.5> 661 20G<232 239.5 752.5 760>
LayerCount: 2
Back
Fore
SplineSet
593 6 m 2
 411 316 l 1
 86 6 l 2
 82 2 76 0 71 0 c 0
 60 0 53 9 56 19 c 0
 56 23 59 28 63 31 c 2
 395 346 l 1
 216 651 l 2
 215 654 213 659 214 664 c 0
 216 673 227 681 237 681 c 0
 242 681 247 680 250 675 c 2
 424 375 l 1
 740 675 l 2
 745 680 750 681 755 681 c 0
 765 681 773 673 771 664 c 0
 770 659 768 655 763 650 c 2
 442 345 l 1
 626 30 l 2
 627 27 627 23 627 19 c 0
 624 8 615 0 606 0 c 0
 601 0 596 1 593 6 c 2
EndSplineSet
EndChar
StartChar: Y
Encoding: 89 89 50
Width: 583
Flags: MW
HStem: 0 21G<185 193.5> 661 20G<180 187.5 712 720>
LayerCount: 2
Back
Fore
SplineSet
715 681 m 0
 725 681 733 674 731 664 c 0
 730 660 728 656 720 646 c 2
 206 9 l 2
 201 2 196 0 191 0 c 0
 179 0 172 9 174 17 c 0
 175 23 178 27 182 32 c 2
 326 210 l 1
 163 649 l 2
 162 653 161 659 162 664 c 0
 164 675 175 681 185 681 c 0
 190 681 196 678 197 672 c 2
 356 246 l 1
 698 672 l 2
 703 678 709 681 715 681 c 0
EndSplineSet
EndChar
StartChar: Z
Encoding: 90 90 51
Width: 629
Flags: MW
HStem: 0 41<67.5 558 106 550> 638 42<217 707 231 673>
LayerCount: 2
Back
Fore
SplineSet
106 41 m 1
 558 41 l 2
 568 41 575 32 573 21 c 0
 570 9 560 0 550 0 c 2
 74 0 l 2
 61 0 52 8 54 22 c 0
 55 28 59 35 64 40 c 2
 673 638 l 1
 222 638 l 2
 212 638 204 647 207 659 c 0
 209 671 221 680 231 680 c 2
 707 680 l 2
 720 680 729 670 726 657 c 0
 725 652 721 645 717 641 c 2
 106 41 l 1
EndSplineSet
EndChar
StartChar: bracketleft
Encoding: 91 91 77
Width: 305
Flags: MW
HStem: -129 37<56.5 196 88 188> 782 37<274 398 274 274>
LayerCount: 2
Back
Fore
SplineSet
188 -129 m 2
 62 -129 l 2
 51 -129 45 -121 47 -110 c 2
 241 800 l 2
 243 811 253 819 264 819 c 2
 406 819 l 2
 417 819 423 811 421 800 c 0
 418 790 409 782 398 782 c 2
 274 782 l 1
 88 -92 l 1
 196 -92 l 2
 206 -92 212 -100 210 -110 c 0
 208 -121 198 -129 188 -129 c 2
EndSplineSet
EndChar
StartChar: backslash
Encoding: 92 92 81
Width: 535
Flags: MW
HStem: -2 21G<453 460.5> 680 20G<232 241>
LayerCount: 2
Back
Fore
SplineSet
443 6 m 2
 215 672 l 2
 215 674 214 677 215 680 c 0
 218 692 226 700 238 700 c 0
 244 700 250 698 252 692 c 2
 478 29 l 2
 480 24 480 19 479 17 c 0
 477 6 465 -2 456 -2 c 0
 450 -2 445 -1 443 6 c 2
EndSplineSet
EndChar
StartChar: bracketright
Encoding: 93 93 76
Width: 305
Flags: MW
HStem: -129 37<51 188 64 188 64 199> 782 37<262 401 275 374>
LayerCount: 2
Back
Fore
SplineSet
275 819 m 2
 401 819 l 2
 412 819 418 811 416 800 c 2
 222 -110 l 2
 220 -121 210 -129 199 -129 c 2
 56 -129 l 2
 46 -129 40 -121 42 -110 c 0
 44 -100 54 -92 64 -92 c 2
 188 -92 l 1
 374 782 l 1
 267 782 l 2
 257 782 249 790 252 800 c 0
 254 811 265 819 275 819 c 2
EndSplineSet
EndChar
StartChar: asciicircum
Encoding: 94 94 124
Width: 490
Flags: MW
HStem: 412 21G<206 214 460.5 469> 650 20G<398.5 408.5>
LayerCount: 2
Back
Fore
SplineSet
423 652 m 2
 485 441 l 2
 487 435 486 432 486 429 c 0
 484 420 474 412 464 412 c 0
 457 412 452 414 451 420 c 2
 392 617 l 1
 227 419 l 2
 222 414 217 412 211 412 c 0
 201 412 194 420 196 429 c 0
 196 432 198 436 202 441 c 2
 376 654 l 2
 384 664 393 670 404 670 c 0
 413 670 420 664 423 652 c 2
EndSplineSet
EndChar
StartChar: underscore
Encoding: 95 95 95
Width: 480
Flags: MW
HStem: -58 37<-27.5 495 -14 487>
LayerCount: 2
Back
Fore
SplineSet
487 -58 m 2
 -22 -58 l 2
 -33 -58 -39 -50 -37 -40 c 0
 -35 -29 -25 -21 -14 -21 c 2
 495 -21 l 2
 506 -21 512 -29 510 -40 c 0
 508 -50 498 -58 487 -58 c 2
EndSplineSet
EndChar
StartChar: grave
Encoding: 96 96 138
Width: 490
Flags: MW
HStem: 598 21G<438 444.5> 754 20G<353 364>
LayerCount: 2
Back
Fore
SplineSet
379 763 m 2
 459 627 l 2
 462 622 463 618 462 614 c 0
 460 604 449 598 440 598 c 0
 436 598 431 600 428 604 c 2
 332 730 l 2
 328 736 326 742 328 749 c 0
 331 763 346 774 360 774 c 0
 368 774 374 771 379 763 c 2
EndSplineSet
EndChar
StartChar: a
Encoding: 97 97 2
Width: 495
Flags: MW
HStem: 0 21G<413 442> 8 37<191.5 266.5> 478 37<320 413.5>
LayerCount: 2
Back
Fore
SplineSet
539 476 m 1x60
 442 21 l 2
 439 9 430 0 419 0 c 0xa0
 407 0 402 10 404 23 c 2
 414 66 l 1
 365 39 294 8 239 8 c 0
 133 8 72 95 99 223 c 0
 121 327 226 515 400 515 c 0
 461 515 516 489 539 476 c 1x60
421 110 m 1
 498 452 l 1
 478 463 432 478 395 478 c 0
 245 478 158 316 138 225 c 0
 122 148 138 45 245 45 c 0x60
 310 45 391 93 421 110 c 1
EndSplineSet
EndChar
StartChar: b
Encoding: 98 98 4
Width: 514
Flags: MW
HStem: 0 21G<81 91> 7 35<231.5 326> 453 38<371.5 453.5> 678 20G<229 239>
LayerCount: 2
Back
Fore
SplineSet
406 491 m 0xb0
 532 491 552 374 530 272 c 0
 499 126 411 7 258 7 c 0
 205 7 148 26 112 42 c 1x70
 107 17 l 2
 105 8 96 0 86 0 c 0
 76 0 68 7 70 17 c 2
 212 683 l 2
 214 692 224 698 234 698 c 0
 244 698 251 692 249 683 c 2
 186 388 l 1
 253 451 337 491 406 491 c 0xb0
257 42 m 0
 395 42 466 133 495 272 c 0
 511 348 505 453 402 453 c 0
 286 453 185 383 166 296 c 2
 119 74 l 1
 138 65 196 42 257 42 c 0
EndSplineSet
EndChar
StartChar: c
Encoding: 99 99 5
Width: 499
Flags: MW
HStem: 0 33 467 33<337 402.5>
LayerCount: 2
Back
Fore
SplineSet
480 108 m 0
 479 103 474 97 470 93 c 0
 426 43 351 3 277 0 c 0
 159 -6 70 89 97 215 c 0
 107 263 131 308 146 334 c 0
 189 401 286 500 379 500 c 0
 451 500 483 474 512 430 c 0
 514 427 515 422 514 418 c 0
 512 408 503 400 494 400 c 0
 489 400 484 402 482 405 c 0
 459 441 431 467 374 467 c 0
 300 467 215 386 176 323 c 0
 151 281 139 246 133 217 c 0
 102 75 221 33 270 33 c 0
 349 33 406 71 444 111 c 0
 449 117 457 124 466 124 c 0
 475 124 482 117 480 108 c 0
EndSplineSet
EndChar
StartChar: d
Encoding: 100 100 6
Width: 520
Flags: MW
HStem: 0 21G<422 433.5> 4 30<177 261> 463 35<293.5 397.5> 685 20G<589 609>
LayerCount: 2
Back
Fore
SplineSet
609 685 m 2x70
 451 18 l 2
 449 7 439 0 428 0 c 0xb0
 416 0 411 9 414 22 c 2
 432 96 l 1
 379 55 300 4 222 4 c 0
 106 4 77 116 100 225 c 0
 131 368 216 498 371 498 c 0
 428 498 481 478 517 461 c 1
 570 686 l 2
 572 696 584 705 594 705 c 0
 605 705 611 695 609 685 c 2x70
138 228 m 0
 121 148 125 34 229 34 c 0x70
 343 34 438 122 447 157 c 2
 508 419 l 1
 488 430 429 463 366 463 c 0
 216 463 158 323 138 228 c 0
EndSplineSet
EndChar
StartChar: e
Encoding: 101 101 7
Width: 511
Flags: MW
HStem: 0 33<264 332 264 332.5> 465 34<318 415>
LayerCount: 2
Back
Fore
SplineSet
487 83 m 0
 486 79 483 75 480 72 c 0
 436 32 363 0 302 0 c 0
 149 0 77 114 103 238 c 0
 132 376 247 499 382 499 c 0
 509 499 548 413 539 371 c 0
 538 365 530 357 517 350 c 2
 134 155 l 1
 161 74 220 33 308 33 c 0
 356 33 426 60 463 95 c 0
 466 98 470 100 474 100 c 0
 484 100 489 93 487 83 c 0
374 465 m 0
 262 465 162 364 135 237 c 0
 132 225 130 216 130 188 c 1
 506 373 l 1
 495 432 456 465 374 465 c 0
EndSplineSet
EndChar
StartChar: f
Encoding: 102 102 8
Width: 361
Flags: MW
HStem: 0 21G<141 151.5> 468 32<264 429> 481 20G<143 234 234 234 271 271> 665 34<413.5 483 405 486>
LayerCount: 2
Back
Fore
SplineSet
143 501 m 2xb0
 234 501 l 1
 266 650 335 699 475 699 c 0
 491 699 504 696 502 683 c 0
 500 673 492 665 480 665 c 0
 347 665 302 646 271 501 c 1xb0
 425 500 l 2
 433 500 439 493 438 485 c 0
 435 475 427 468 418 468 c 2
 264 468 l 1
 168 17 l 2
 166 7 157 0 146 0 c 0
 136 0 129 7 131 17 c 2
 227 468 l 1
 138 468 l 2xd0
 129 468 122 475 125 485 c 0
 127 494 136 501 143 501 c 2xb0
EndSplineSet
EndChar
StartChar: g
Encoding: 103 103 9
Width: 511
Flags: MW
HStem: -193 38<179.5 255.5> -1 34<191.5 280> 464 36<334.5 413.5> 492 20G<536.5 558>
LayerCount: 2
Back
Fore
SplineSet
76 -177 m 0xd0
 67 -175 63 -168 65 -159 c 0
 67 -149 77 -141 88 -141 c 0
 91 -141 100 -143 108 -145 c 0
 124 -149 153 -155 206 -155 c 0
 328 -155 382 -89 407 14 c 2
 429 102 l 1
 390 51 312 -1 248 -1 c 0
 131 -1 75 105 104 241 c 0
 132 374 261 500 396 500 c 0xe0
 442 500 486 481 513 458 c 1
 521 494 526 512 547 512 c 0
 553 512 561 507 558 492 c 2
 444 9 l 2
 412 -130 313 -193 198 -193 c 0
 150 -193 106 -184 76 -177 c 0xd0
468 268 m 2
 502 424 l 1
 481 447 435 464 392 464 c 0
 277 464 163 367 135 237 c 0
 118 157 135 33 248 33 c 0
 324 33 430 88 468 268 c 2
EndSplineSet
EndChar
StartChar: h
Encoding: 104 104 3
Width: 493
Flags: MW
HStem: -1 21G<80 109> 0 21G<426 435.5> 466 36<389 439> 678 20G<212 240 229 249>
LayerCount: 2
Back
Fore
SplineSet
249 678 m 2xb0
 171 311 l 1
 225 394 348 502 430 502 c 0
 525 502 533 387 484 158 c 0
 470 91 461 50 452 19 c 0
 448 8 441 0 430 0 c 0x70
 422 0 414 8 416 18 c 0
 417 22 421 36 423 45 c 0
 429 70 437 108 446 150 c 0
 506 431 460 466 418 466 c 0
 324 466 209 326 183 288 c 0
 165 261 152 225 145 191 c 2
 109 20 l 2
 106 6 96 -1 85 -1 c 0
 75 -1 69 7 71 18 c 2
 212 678 l 2
 214 689 224 698 234 698 c 0
 246 698 251 689 249 678 c 2xb0
EndSplineSet
EndChar
StartChar: i
Encoding: 105 105 10
Width: 184
Flags: MW
HStem: 0 21G<85.5 96> 669 20G<240 250>
LayerCount: 2
Back
Fore
SplineSet
218 476 m 2
 115 20 l 2
 112 9 101 0 91 0 c 0
 80 0 72 9 75 20 c 2
 178 476 l 2
 180 487 192 496 202 496 c 0
 213 496 220 487 218 476 c 2
226 610 m 0
 217 610 210 618 212 628 c 2
 222 671 l 2
 224 680 235 689 245 689 c 0
 255 689 261 679 259 670 c 2
 249 627 l 2
 246 616 236 610 226 610 c 0
EndSplineSet
EndChar
StartChar: j
Encoding: 106 106 11
Width: 323
Flags: MW
HStem: -189 33<80.5 145.5 80.5 149> 678 20G<385.5 396>
LayerCount: 2
Back
Fore
SplineSet
355 483 m 2
 255 -13 l 2
 243 -75 197 -189 101 -189 c 0
 10 -189 -11 -73 -16 -47 c 0
 -17 -44 -17 -42 -17 -38 c 0
 -14 -28 -4 -21 6 -21 c 0
 14 -21 19 -24 22 -36 c 0
 31 -87 53 -156 108 -156 c 0
 183 -156 211 -42 216 -18 c 2
 315 482 l 2
 317 493 327 502 339 502 c 0
 349 502 358 497 355 483 c 2
389 698 m 0
 403 698 408 690 403 676 c 2
 389 633 l 2
 386 623 376 618 366 618 c 0
 355 618 350 627 352 635 c 2
 369 685 l 2
 372 695 382 698 389 698 c 0
EndSplineSet
EndChar
StartChar: k
Encoding: 107 107 12
Width: 484
Flags: MW
HStem: 0 21G<83 93.5> 678 20G<229 249>
LayerCount: 2
Back
Fore
SplineSet
306 301 m 1
 380 177 433 88 462 35 c 0
 464 31 466 27 465 20 c 0
 463 12 454 2 443 2 c 0
 436 2 432 4 429 9 c 0
 382 96 300 241 275 281 c 1
 225 247 180 218 149 202 c 1
 111 19 l 2
 108 8 99 0 88 0 c 0
 78 0 71 8 74 19 c 2
 212 680 l 2
 214 690 224 698 234 698 c 0
 246 698 251 689 249 678 c 2
 155 235 l 1
 233 279 400 405 502 511 c 0
 506 516 513 519 519 519 c 0
 529 519 535 511 533 501 c 0
 532 497 529 493 527 491 c 0
 469 432 363 344 306 301 c 1
EndSplineSet
EndChar
StartChar: l
Encoding: 108 108 13
Width: 216
Flags: MW
HStem: 0 21G<105.5 114.5> 678 20G<253 263>
LayerCount: 2
Back
Fore
SplineSet
273 680 m 2
 132 16 l 2
 130 7 119 0 110 0 c 0
 101 0 92 7 94 16 c 2
 235 680 l 2
 237 690 248 698 258 698 c 0
 268 698 275 690 273 680 c 2
EndSplineSet
EndChar
StartChar: m
Encoding: 109 109 14
Width: 803
Flags: MW
HStem: 0 21G<78 88.5 418 428 731.5 742> 481 31<390.5 433.5 705.5 746>
LayerCount: 2
Back
Fore
SplineSet
732 512 m 0
 792 512 857 480 825 330 c 2
 758 18 l 2
 756 8 747 0 737 0 c 0
 726 0 719 8 721 18 c 2
 789 338 l 2
 817 467 766 481 726 481 c 0
 666 481 528 408 502 284 c 2
 445 18 l 2
 443 8 433 0 423 0 c 0
 413 0 405 8 407 18 c 2
 475 338 l 2
 503 467 453 481 414 481 c 0
 367 481 277 425 181 310 c 0
 171 298 161 278 156 256 c 2
 105 18 l 2
 103 8 94 0 83 0 c 0
 73 0 66 8 68 18 c 2
 167 480 l 2
 169 491 179 499 189 499 c 0
 200 499 206 491 204 480 c 2
 174 339 l 1
 224 416 353 512 421 512 c 0
 468 512 525 491 519 382 c 1
 579 467 679 512 732 512 c 0
EndSplineSet
EndChar
StartChar: n
Encoding: 110 110 15
Width: 525
Flags: MW
HStem: 0 21G<81 108> 464 35<402 477> 480 20G<187 197.5>
LayerCount: 2
Back
Fore
SplineSet
207 482 m 2xa0
 161 265 l 1
 205 380 335 499 439 499 c 0
 559 499 551 388 500 148 c 0
 491 108 483 66 472 20 c 0
 469 9 461 0 451 0 c 0
 442 0 434 8 437 19 c 0
 445 65 454 106 462 145 c 0
 506 357 528 464 426 464 c 0xc0
 378 464 312 438 232 334 c 0
 184 269 144 179 127 105 c 2
 108 21 l 2
 105 9 98 0 86 0 c 0
 76 0 69 7 71 17 c 2
 170 482 l 2
 172 492 182 500 192 500 c 0
 203 500 209 492 207 482 c 2xa0
EndSplineSet
EndChar
StartChar: o
Encoding: 111 111 16
Width: 525
Flags: MW
HStem: 0 29<209.5 308 209.5 315> 471 29<328 425.5>
LayerCount: 2
Back
Fore
SplineSet
252 0 m 0
 138 0 73 103 100 229 c 0
 131 376 264 500 390 500 c 0
 503 500 567 395 541 271 c 0
 510 123 378 0 252 0 c 0
379 471 m 0
 277 471 166 358 139 231 c 0
 116 123 161 29 258 29 c 0
 358 29 474 140 501 266 c 0
 524 375 472 471 379 471 c 0
EndSplineSet
EndChar
StartChar: p
Encoding: 112 112 17
Width: 510
Flags: MW
HStem: -203 21G<37 47.5> 8 39<234.5 333.5 234.5 339.5> 470 30<372.5 417>
LayerCount: 2
Back
Fore
SplineSet
417 500 m 1
 525 495 549 381 527 277 c 0
 503 163 427 8 252 8 c 0
 199 8 148 27 113 42 c 1
 65 -184 l 2
 63 -195 53 -203 42 -203 c 0
 32 -203 26 -195 28 -184 c 2
 170 480 l 2
 172 491 182 500 192 500 c 0
 203 500 209 491 207 480 c 2
 193 415 l 1
 254 462 328 500 417 500 c 1
266 47 m 0
 401 47 468 146 495 277 c 0
 510 346 508 470 402 470 c 0
 288 470 208 399 183 371 c 1
 123 86 l 1
 143 76 203 47 266 47 c 0
EndSplineSet
EndChar
StartChar: q
Encoding: 113 113 18
Width: 504
Flags: MW
HStem: -197 21G<350 367.5> -6 31<210.5 300.5 210.5 304.5> 457 32<350.5 433.5> 499 20G<534.5 544>
LayerCount: 2
Back
Fore
SplineSet
350 -176 m 2
 407 56 l 1
 407 56 350 -6 259 -6 c 0
 134 -6 70 88 96 209 c 0
 132 380 265 489 427 489 c 0
 450 489 478 486 513 479 c 1
 518 501 l 2
 520 511 530 519 539 519 c 0
 549 519 555 511 553 501 c 2
 385 -177 l 2
 382 -190 372 -197 363 -197 c 0
 352 -197 346 -191 350 -176 c 2
256 25 m 0
 345 25 413 73 434 159 c 2
 505 450 l 1
 473 455 446 457 421 457 c 0
 280 457 162 367 127 207 c 0
 105 100 165 25 256 25 c 0
EndSplineSet
EndChar
StartChar: r
Encoding: 114 114 19
Width: 406
Flags: MW
HStem: 0 21G<82.5 92.5> 466 36<360.5 412.5>
LayerCount: 2
Back
Fore
SplineSet
209 481 m 2
 179 342 l 1
 215 409 317 502 404 502 c 0
 451 502 476 481 459 413 c 1
 456 396 l 2
 453 385 445 377 435 377 c 0
 421 377 418 386 420 397 c 2
 422 407 l 2
 428 436 438 466 387 466 c 0
 333 466 274 422 223 368 c 0
 196 340 168 289 160 253 c 2
 109 17 l 2
 107 7 98 0 87 0 c 0
 78 0 70 7 72 17 c 2
 171 481 l 2
 173 491 183 499 193 499 c 0
 204 499 211 491 209 481 c 2
EndSplineSet
EndChar
StartChar: s
Encoding: 115 115 20
Width: 448
Flags: MW
HStem: -2 34<203 283.5> 468 31<322 392.5>
LayerCount: 2
Back
Fore
SplineSet
444 373 m 0
 445 378 448 382 450 394 c 0
 460 439 432 468 353 468 c 0
 272 468 210 438 198 385 c 0
 184 317 253 296 295 282 c 0
 382 252 449 230 429 134 c 0
 415 70 335 -2 232 -2 c 0
 111 -2 73 91 80 123 c 0
 82 132 91 141 100 141 c 0
 109 141 113 135 114 128 c 0
 121 69 167 32 239 32 c 0
 340 32 387 102 394 135 c 0
 405 188 387 217 288 249 c 0
 193 280 151 319 166 386 c 0
 185 476 287 499 357 499 c 0
 454 499 499 457 485 393 c 0
 480 369 471 355 458 355 c 0
 446 355 442 364 444 373 c 0
EndSplineSet
EndChar
StartChar: t
Encoding: 116 116 21
Width: 377
Flags: MW
HStem: -1 21G<186 196> 463 37<134 279 149 271 317 442 149 309> 659 20G<331 342>
LayerCount: 2
Back
Fore
SplineSet
317 500 m 1
 450 500 l 2
 461 500 467 492 465 481 c 0
 463 471 453 463 442 463 c 2
 309 463 l 1
 214 17 l 2
 212 7 201 -1 191 -1 c 0
 181 -1 174 7 176 17 c 2
 271 463 l 1
 139 463 l 2
 129 463 122 471 124 481 c 0
 126 493 138 500 149 500 c 2
 279 500 l 1
 313 660 l 2
 315 670 326 679 336 679 c 0
 348 679 353 670 351 660 c 2
 317 500 l 1
EndSplineSet
EndChar
StartChar: v
Encoding: 118 118 23
Width: 426
Flags: MW
HStem: -1 21G<212 221.5> 479 20G<133 142> 480 20G<505 515.5>
LayerCount: 2
Back
Fore
SplineSet
522 473 m 2xa0
 237 11 l 2
 232 4 226 -1 217 -1 c 0
 207 -1 204 4 202 13 c 2
 113 472 l 2
 112 475 112 479 113 482 c 0
 115 493 128 499 138 499 c 0xc0
 146 499 151 494 152 486 c 2
 231 59 l 1
 489 489 l 2
 494 496 500 500 510 500 c 0
 521 500 528 493 526 484 c 0
 526 480 525 478 522 473 c 2xa0
EndSplineSet
EndChar
StartChar: w
Encoding: 119 119 24
Width: 584
Flags: MW
HStem: 0 21G<122.5 131.5 415.5 424> 479 20G<670 679.5> 480 20G<128.5 138 398.5 409>
VStem: 111 33 396 30
LayerCount: 2
Back
Fore
SplineSet
141 61 m 1xb8
 380 486 l 2
 385 494 393 500 404 500 c 0xb8
 414 500 420 495 420 481 c 2
 433 61 l 1
 652 483 l 2
 657 493 666 499 674 499 c 0xd8
 685 499 691 493 689 484 c 0
 689 480 687 477 685 474 c 2
 441 16 l 2
 436 6 428 0 420 0 c 0
 411 0 405 6 405 15 c 2
 387 433 l 1
 148 15 l 2
 143 6 136 0 127 0 c 0
 118 0 112 5 111 17 c 2
 111 469 l 2
 111 473 111 479 112 481 c 0
 114 492 124 500 133 500 c 0
 143 500 149 494 148 483 c 2
 141 61 l 1xb8
EndSplineSet
EndChar
StartChar: x
Encoding: 120 120 25
Width: 500
Flags: MW
HStem: 0 21G<457.5 466> 1 21G<24.5 31.5> 480 20G<173.5 181>
LayerCount: 2
Back
Fore
SplineSet
593 467 m 2x60
 342 255 l 1
 481 30 l 2
 483 26 483 23 483 19 c 0
 480 8 471 0 461 0 c 0xa0
 454 0 449 2 447 6 c 2
 310 234 l 1
 44 6 l 2
 39 2 34 1 29 1 c 0
 20 1 13 9 16 20 c 0
 17 25 19 29 24 33 c 2
 290 258 l 1
 159 467 l 2
 157 471 155 476 156 481 c 0
 158 492 169 500 178 500 c 0
 184 500 187 499 190 495 c 2
 321 279 l 1
 571 493 l 2
 576 497 581 498 585 498 c 0
 596 498 603 490 600 479 c 0
 599 475 596 470 593 467 c 2x60
EndSplineSet
EndChar
StartChar: y
Encoding: 121 121 26
Width: 479
Flags: MW
HStem: -205 21G<94 103> 480 20G<140.5 149.5> 481 20G<551 560.5>
LayerCount: 2
Back
Fore
SplineSet
564 470 m 2xa0
 119 -193 l 2
 114 -201 107 -205 99 -205 c 0
 89 -205 81 -197 83 -187 c 0
 84 -183 87 -178 90 -173 c 2
 242 53 l 1
 123 469 l 2
 122 473 122 476 123 480 c 0
 125 491 135 500 146 500 c 0xc0
 153 500 159 496 162 487 c 2
 271 98 l 1
 534 489 l 2
 539 496 547 501 555 501 c 0
 566 501 572 493 570 482 c 0
 569 479 567 474 564 470 c 2xa0
EndSplineSet
EndChar
StartChar: braceleft
Encoding: 123 123 83
Width: 366
Flags: MW
HStem: -129 950
VStem: 197 35
LayerCount: 2
Back
Fore
SplineSet
229 225 m 2
 184 13 l 2
 168 -62 232 -86 270 -94 c 0
 282 -96 287 -101 285 -112 c 0
 282 -124 271 -131 260 -129 c 0
 202 -118 129 -77 148 13 c 2
 194 226 l 2
 206 283 180 322 141 338 c 0
 133 342 131 347 133 354 c 0
 134 362 138 366 147 370 c 0
 216 400 238 436 248 482 c 2
 290 679 l 2
 309 769 400 810 462 821 c 0
 473 823 482 816 479 804 c 0
 477 793 470 788 457 786 c 0
 416 778 342 754 326 679 c 2
 284 483 l 2
 273 430 237 387 189 354 c 1
 221 326 241 280 229 225 c 2
EndSplineSet
EndChar
StartChar: bar
Encoding: 124 124 93
Width: 183
Flags: MW
HStem: -175 21G<50 60> 834 20G<269 279>
LayerCount: 2
Back
Fore
SplineSet
55 -175 m 0
 45 -175 38 -167 40 -156 c 2
 251 836 l 2
 253 846 264 854 274 854 c 0
 284 854 291 846 289 836 c 2
 78 -156 l 2
 76 -167 65 -175 55 -175 c 0
EndSplineSet
EndChar
StartChar: braceright
Encoding: 125 125 82
Width: 366
Flags: MW
HStem: -129 950
VStem: 281 36
LayerCount: 2
Back
Fore
SplineSet
284 467 m 2
 329 679 l 2
 345 754 281 778 244 786 c 0
 231 788 226 793 228 804 c 0
 231 816 242 823 253 821 c 0
 311 810 384 769 365 679 c 2
 320 466 l 2
 307 409 333 370 372 354 c 0
 380 350 382 345 380 338 c 0
 379 330 375 326 366 322 c 0
 298 292 275 256 265 210 c 2
 223 13 l 2
 204 -77 113 -118 51 -129 c 0
 40 -131 31 -124 34 -112 c 0
 36 -101 43 -96 57 -94 c 0
 97 -86 171 -62 187 13 c 2
 229 209 l 2
 240 262 276 305 324 338 c 1
 292 366 272 412 284 467 c 2
EndSplineSet
EndChar
StartChar: asciitilde
Encoding: 126 126 89
Width: 630
Flags: MW
HStem: 156 36<444.5 494.5> 311 35<247.5 295.5>
LayerCount: 2
Back
Fore
SplineSet
634 296 m 0
 607 248 544 156 457 156 c 0
 397 156 374 201 353 242 c 0
 332 284 315 311 276 311 c 0
 216 311 165 248 144 205 c 0
 140 197 134 192 124 192 c 0
 114 192 108 199 109 207 c 0
 111 213 114 217 115 220 c 0
 154 286 212 346 283 346 c 0
 343 346 365 301 386 262 c 0
 409 219 425 192 464 192 c 0
 525 192 578 266 602 306 c 0
 611 320 619 326 627 326 c 0
 636 326 641 319 639 309 c 0
 638 305 638 302 634 296 c 0
EndSplineSet
EndChar
StartChar: exclamdown
Encoding: 161 161 145
Width: 186
Flags: MW
HStem: -205 21G<23 44> 430 66<168 204>
LayerCount: 2
Back
Fore
SplineSet
170 318 m 2
 63 -184 l 2
 61 -196 49 -205 39 -205 c 0
 28 -205 21 -196 23 -184 c 2
 130 318 l 2
 132 328 143 338 154 338 c 0
 164 338 172 328 170 318 c 2
158 457 m 0
 162 479 182 496 197 496 c 0
 211 496 217 483 214 468 c 0
 210 448 192 430 175 430 c 0
 161 430 155 443 158 457 c 0
EndSplineSet
EndChar
StartChar: cent
Encoding: 162 162 99
Width: 546
Flags: MW
HStem: 0 21G<267.5 276> 104 31<319 319 319 351> 679 20G<435 443.5>
LayerCount: 2
Back
Fore
SplineSet
511 227 m 0
 521 227 527 219 525 208 c 0
 524 204 521 200 517 196 c 0
 468 143 391 104 311 104 c 1
 290 15 l 2
 288 6 280 0 272 0 c 0
 263 0 257 7 259 17 c 2
 280 105 l 1
 139 142 130 252 144 317 c 0
 170 440 268 563 400 601 c 1
 420 684 l 2
 422 694 431 699 439 699 c 0
 448 699 453 692 451 683 c 2
 431 602 l 1
 489 604 568 553 561 521 c 0
 559 512 550 504 541 504 c 0
 536 504 532 505 529 510 c 0
 507 547 471 568 423 572 c 1
 319 135 l 1
 387 139 447 169 491 214 c 0
 496 219 504 227 511 227 c 0
178 319 m 0
 159 228 208 158 289 138 c 1
 391 568 l 1
 265 529 193 387 178 319 c 0
EndSplineSet
EndChar
StartChar: sterling
Encoding: 163 163 98
Width: 734
Flags: MW
HStem: -10 35<518.5 554.5> 0 21G<141.5 149> 74 35<318.5 330> 341 35<149.5 268 161 268 161 268 304 304 304 552> 701 35<504 622.5>
VStem: 268 35<376 376> 712 35
LayerCount: 2
Back
Fore
SplineSet
700 143 m 0xbe
 713 143 715 129 709 116 c 0
 660 6 577 -10 532 -10 c 0xbe
 480 -10 426 10 381 51 c 0
 363 67 341 74 319 74 c 0
 262 74 211 40 176 17 c 0
 161 6 152 0 146 0 c 0x7e
 137 0 130 8 132 18 c 0
 134 24 138 29 142 32 c 0
 212 78 256 152 268 209 c 0
 275 242 272 274 270 303 c 2
 268 341 l 1
 154 341 l 2
 145 341 138 349 140 358 c 0
 142 368 152 376 161 376 c 2
 268 376 l 1
 271 422 275 461 282 492 c 0
 316 653 417 736 587 736 c 0
 716 736 746 636 747 557 c 0
 747 543 739 531 725 531 c 0
 714 531 711 539 712 551 c 0
 714 645 664 701 581 701 c 0
 427 701 347 638 316 492 c 0
 309 461 304 422 303 376 c 1
 559 376 l 2
 568 376 576 368 574 358 c 0
 572 349 561 341 552 341 c 2
 304 341 l 1
 304 341 304 304 306 293 c 0
 307 267 308 235 303 209 c 0
 297 181 283 133 248 93 c 1
 283 107 310 109 327 109 c 0
 358 109 386 98 409 79 c 0
 446 45 497 25 540 25 c 0
 600 25 648 57 677 123 c 0
 683 137 691 143 700 143 c 0xbe
EndSplineSet
EndChar
StartChar: currency
Encoding: 164 164 205
Width: 507
Flags: MW
HStem: 46 21G<73.5 80 457 464> 95 32<262.5 297> 374 32<328.5 362.5 328.5 372.5> 440 20G<161 168 545 551>
LayerCount: 2
Back
Fore
SplineSet
414 154 m 1
 477 74 l 2
 480 71 480 67 479 63 c 0
 477 54 469 46 459 46 c 0
 455 46 452 48 449 51 c 2
 386 130 l 1
 351 108 315 95 279 95 c 0
 246 95 213 108 187 130 c 1
 89 50 l 2
 85 47 82 46 78 46 c 0
 69 46 63 53 65 63 c 0
 66 67 69 71 72 74 c 2
 170 154 l 1
 156 184 150 218 157 251 c 0
 164 286 185 320 214 350 c 1
 148 432 l 2
 145 436 145 440 146 444 c 0
 148 452 156 460 166 460 c 0
 170 460 174 458 176 455 c 2
 242 373 l 1
 276 395 312 406 345 406 c 0
 380 406 410 395 436 373 c 1
 535 455 l 2
 539 458 543 460 547 460 c 0
 555 460 562 452 560 444 c 0
 559 440 558 436 553 432 c 2
 454 350 l 1
 470 320 476 284 469 251 c 0
 462 218 442 184 414 154 c 1
190 251 m 0
 175 182 219 127 285 127 c 0
 354 127 421 182 436 251 c 0
 451 320 407 374 338 374 c 0
 272 374 205 320 190 251 c 0
EndSplineSet
EndChar
StartChar: yen
Encoding: 165 165 80
Width: 563
Flags: MW
HStem: 0 21G<270.5 281> 140 35<150 294 163 286 331 456 163 323> 300 36<184 312 197 312 197 320 382 490> 682 20G<624 632>
LayerCount: 2
Back
Fore
SplineSet
638 674 m 2
 382 336 l 1
 498 336 l 2
 507 336 513 327 511 318 c 0
 509 308 499 300 490 300 c 2
 357 300 l 1
 331 175 l 1
 464 175 l 2
 473 175 479 167 477 157 c 0
 475 148 465 140 456 140 c 2
 323 140 l 1
 298 19 l 2
 295 8 286 0 276 0 c 0
 265 0 258 8 261 19 c 2
 286 140 l 1
 155 140 l 2
 145 140 139 148 141 157 c 0
 143 167 153 175 163 175 c 2
 294 175 l 1
 320 300 l 1
 189 300 l 2
 179 300 173 308 175 318 c 0
 177 327 187 336 197 336 c 2
 312 336 l 1
 216 673 l 2
 215 676 215 678 215 681 c 0
 217 691 228 700 239 700 c 0
 245 700 252 697 253 691 c 2
 351 350 l 1
 609 692 l 2
 614 699 621 702 627 702 c 0
 637 702 645 695 643 685 c 0
 642 681 641 678 638 674 c 2
EndSplineSet
EndChar
StartChar: section
Encoding: 167 167 125
Width: 447
Flags: MW
HStem: 0 34<204 284.5> 619 31<354 423.5>
LayerCount: 2
Back
Fore
SplineSet
307 404 m 0
 288 411 266 421 234 440 c 1
 214 422 203 405 199 386 c 0
 185 321 254 298 296 284 c 0
 333 273 371 257 401 239 c 1
 416 260 423 277 427 293 c 0
 440 354 390 376 307 404 c 0
481 545 m 0
 491 590 463 619 384 619 c 0
 304 619 241 589 229 535 c 0
 215 468 285 447 327 433 c 0
 413 403 480 381 460 285 c 0
 456 265 443 241 422 217 c 1
 432 195 436 169 429 136 c 0
 416 72 336 0 233 0 c 0
 112 0 73 93 80 125 c 0
 82 134 91 143 101 143 c 0
 110 143 114 137 114 130 c 0
 122 71 168 34 240 34 c 0
 341 34 387 100 396 143 c 0
 406 191 391 218 289 251 c 0
 190 282 152 320 166 388 c 0
 172 416 188 440 210 460 c 1
 195 483 190 508 197 537 c 0
 216 627 319 650 389 650 c 0
 487 650 530 608 516 544 c 0
 511 520 502 506 489 506 c 0
 477 506 473 515 475 524 c 0
 476 529 479 533 481 545 c 0
EndSplineSet
EndChar
StartChar: dieresis
Encoding: 168 168 208
Width: 490
Flags: MW
HStem: 600 66<299 303 465 468>
LayerCount: 2
Back
Fore
SplineSet
342 636 m 0
 337 616 315 600 291 600 c 0
 271 600 257 613 260 630 c 0
 264 649 287 666 311 666 c 0
 330 666 345 652 342 636 c 0
507 636 m 0
 502 616 480 600 456 600 c 0
 437 600 423 613 426 630 c 0
 430 649 453 666 477 666 c 0
 495 666 510 652 507 636 c 0
EndSplineSet
EndChar
StartChar: copyright
Encoding: 169 169 68
Width: 534
Flags: MW
HStem: 246 27<277 384.5 277 386> 363 27<326 363 326 369.5> 568 27<364 406.5> 671 27<361 468.5>
LayerCount: 2
Back
Fore
SplineSet
325 246 m 0
 203 246 125 348 152 472 c 0
 178 596 299 698 421 698 c 0
 543 698 620 596 594 472 c 0
 567 348 447 246 325 246 c 0
415 671 m 0
 307 671 202 582 179 472 c 0
 155 362 223 273 331 273 c 0
 438 273 543 362 567 472 c 0
 590 582 522 671 415 671 c 0
461 416 m 0
 436 390 398 363 341 363 c 0
 280 363 239 413 252 473 c 0
 268 547 327 595 401 595 c 0
 431 595 452 582 468 570 c 0
 474 565 474 561 473 556 c 0
 471 549 465 543 457 543 c 0
 454 543 450 544 446 548 c 0
 437 557 418 568 395 568 c 0
 309 568 286 502 280 473 c 0
 269 423 306 390 346 390 c 0
 380 390 416 401 440 430 c 0
 448 439 451 441 456 441 c 0
 464 441 469 435 467 427 c 0
 467 424 465 420 461 416 c 0
EndSplineSet
EndChar
StartChar: ordfeminine
Encoding: 170 170 129
Width: 240
Flags: MW
HStem: 356 21G<297.5 306> 362 30<170 207.5> 644 31<244.5 295>
LayerCount: 2
Back
Fore
SplineSet
302 356 m 0xa0
 293 356 285 361 292 395 c 1
 253 372 224 362 191 362 c 0x60
 127 362 91 418 107 493 c 0
 125 577 196 675 289 675 c 0
 328 675 365 662 379 650 c 1
 321 372 l 2
 318 362 310 356 302 356 c 0xa0
286 644 m 0
 203 644 152 556 139 495 c 0
 129 449 141 392 199 392 c 0x60
 238 392 284 419 298 428 c 1
 344 630 l 1
 333 638 304 644 286 644 c 0
EndSplineSet
EndChar
StartChar: guillemotleft
Encoding: 171 171 87
Width: 581
Flags: MW
HStem: 78 21G<275 282 485 492> 410 20G<367.5 373.5 577.5 583.5>
LayerCount: 2
Back
Fore
SplineSet
277 78 m 0
 273 78 269 79 265 83 c 2
 127 235 l 2
 124 238 122 243 123 249 c 0
 124 254 127 259 134 264 c 2
 355 425 l 2
 361 429 366 430 369 430 c 0
 378 430 385 422 383 412 c 0
 382 406 378 401 373 397 c 2
 171 249 l 1
 296 110 l 2
 300 105 301 101 300 96 c 0
 298 87 287 78 277 78 c 0
487 78 m 0
 483 78 479 79 475 83 c 2
 337 235 l 2
 334 238 332 243 333 249 c 0
 334 254 337 259 344 264 c 2
 565 425 l 2
 571 429 576 430 579 430 c 0
 588 430 595 422 593 412 c 0
 592 406 588 401 583 397 c 2
 381 249 l 1
 506 110 l 2
 510 105 511 101 510 96 c 0
 508 87 497 78 487 78 c 0
EndSplineSet
EndChar
StartChar: logicalnot
Encoding: 172 172 139
Width: 470
Flags: MW
HStem: 130 21G<423 432> 290 32<115 469 126 446>
LayerCount: 2
Back
Fore
SplineSet
428 130 m 0
 418 130 413 138 415 146 c 2
 446 290 l 1
 119 290 l 2
 111 290 105 297 106 305 c 0
 108 315 118 322 126 322 c 2
 469 322 l 2
 477 322 484 316 481 305 c 2
 447 146 l 2
 445 138 436 130 428 130 c 0
EndSplineSet
EndChar
StartChar: uni00AD
Encoding: 173 173 141
Width: 431
Flags: MW
HStem: 232 36<136.5 406 148 399>
LayerCount: 2
Back
Fore
SplineSet
399 232 m 2
 141 232 l 2
 132 232 126 241 128 250 c 0
 130 259 139 268 148 268 c 2
 406 268 l 2
 415 268 423 259 421 250 c 0
 419 241 408 232 399 232 c 2
EndSplineSet
EndChar
StartChar: registered
Encoding: 174 174 79
Width: 534
Flags: MW
HStem: 246 27<277 384.5 277 386> 246 238<319 319 319 386> 567 27<380 406> 671 27<361 468.5>
LayerCount: 2
Back
Fore
SplineSet
325 246 m 0xb0
 203 246 125 348 152 472 c 0
 178 596 299 698 421 698 c 0
 543 698 620 596 594 472 c 0
 567 348 447 246 325 246 c 0xb0
415 671 m 0
 307 671 202 582 179 472 c 0
 155 362 223 273 331 273 c 0
 438 273 543 362 567 472 c 0
 590 582 522 671 415 671 c 0
495 530 m 0
 487 492 420 472 360 461 c 1
 436 401 l 2
 438 399 439 396 438 391 c 0
 436 383 429 377 421 377 c 0
 419 377 417 377 414 379 c 2
 311 463 l 1
 284 392 l 2
 281 384 274 378 266 378 c 0
 259 378 253 384 257 394 c 2
 326 578 l 2
 331 590 333 594 400 594 c 0
 471 594 503 569 495 530 c 0
349 565 m 1
 319 484 l 1x70
 393 489 464 511 468 531 c 0
 474 557 427 567 385 567 c 0
 375 567 366 567 349 565 c 1
EndSplineSet
EndChar
StartChar: macron
Encoding: 175 175 146
Width: 490
Flags: MW
HStem: 625 33<269 498 280 491>
LayerCount: 2
Back
Fore
SplineSet
491 625 m 2
 273 625 l 2
 265 625 259 633 261 642 c 0
 263 650 272 658 280 658 c 2
 498 658 l 2
 506 658 512 650 510 642 c 0
 508 633 499 625 491 625 c 2
EndSplineSet
EndChar
StartChar: degree
Encoding: 176 176 70
Width: 233
Flags: MW
HStem: 483 28<203.5 253 203.5 253.5> 690 27<241.5 291>
LayerCount: 2
Back
Fore
SplineSet
222 483 m 0
 157 483 116 536 130 600 c 0
 144 665 207 717 272 717 c 0
 335 717 376 665 362 600 c 0
 348 536 285 483 222 483 c 0
266 690 m 0
 217 690 167 650 156 600 c 0
 145 550 179 511 228 511 c 0
 278 511 325 550 336 600 c 0
 347 650 316 690 266 690 c 0
EndSplineSet
EndChar
StartChar: plusminus
Encoding: 177 177 140
Width: 431
Flags: MW
HStem: -1 34<89.5 351 102 343> 281 35<132.5 269 145 261 145 295 303 420> 425 20G<308 318.5>
LayerCount: 2
Back
Fore
SplineSet
137 281 m 2
 128 281 122 289 124 298 c 0
 126 307 136 316 145 316 c 2
 269 316 l 1
 292 428 l 2
 294 437 302 445 314 445 c 0
 323 445 328 437 326 428 c 2
 303 316 l 1
 428 316 l 2
 437 316 443 307 441 298 c 0
 439 289 429 281 420 281 c 2
 295 281 l 1
 269 158 l 2
 267 149 258 142 250 142 c 0
 240 142 233 150 235 158 c 2
 261 281 l 1
 137 281 l 2
81 17 m 0
 83 26 93 33 102 33 c 2
 351 33 l 2
 360 33 365 26 363 17 c 0
 361 6 352 -1 343 -1 c 2
 94 -1 l 2
 85 -1 79 5 81 17 c 0
EndSplineSet
EndChar
StartChar: twosuperior
Encoding: 178 178 142
Width: 230
Flags: MW
HStem: 462 28<139 311> 813 27<272.5 313>
LayerCount: 2
Back
Fore
SplineSet
311 462 m 2
 104 462 l 1
 106 475 l 1
 127 572 184 613 290 672 c 0
 321 690 345 713 352 747 c 0
 360 782 336 813 290 813 c 0
 255 813 218 789 201 776 c 0
 188 766 184 761 178 761 c 0
 171 761 166 767 167 775 c 0
 168 779 170 782 175 786 c 0
 196 805 242 840 295 840 c 0
 349 840 393 807 380 747 c 0
 368 688 317 655 268 630 c 0
 216 602 153 557 139 490 c 1
 317 490 l 2
 324 490 330 485 327 475 c 0
 326 468 318 462 311 462 c 2
EndSplineSet
EndChar
StartChar: threesuperior
Encoding: 179 179 143
Width: 226
Flags: MW
HStem: 458 28<198.5 233 198.5 240.5> 816 28<267.5 300.5>
LayerCount: 2
Back
Fore
SplineSet
213 794 m 0
 207 790 203 789 200 789 c 0
 194 789 188 794 190 802 c 0
 194 821 242 844 293 844 c 0
 346 844 392 814 380 761 c 0
 373 728 342 696 300 677 c 1
 347 655 359 617 349 573 c 0
 335 504 271 458 210 458 c 0
 151 458 125 493 116 518 c 0
 114 522 114 525 115 529 c 0
 117 537 123 543 132 543 c 0
 137 543 140 541 142 537 c 0
 155 503 181 486 216 486 c 0
 250 486 308 509 321 573 c 0
 331 619 314 656 243 662 c 0
 235 663 230 667 232 675 c 0
 234 686 241 689 249 690 c 0
 287 692 343 715 353 761 c 0
 362 800 316 816 285 816 c 0
 245 816 227 804 213 794 c 0
EndSplineSet
EndChar
StartChar: acute
Encoding: 180 180 216
Width: 490
Flags: MW
HStem: 587 21G<289.5 296> 715 20G<464 474.5>
LayerCount: 2
Back
Fore
SplineSet
476 692 m 2
 312 594 l 2
 304 589 298 587 294 587 c 0
 285 587 279 595 281 604 c 0
 282 607 283 612 290 617 c 2
 440 721 l 2
 450 728 459 735 469 735 c 0
 480 735 490 722 487 708 c 0
 486 701 484 697 476 692 c 2
EndSplineSet
EndChar
StartChar: mu
Encoding: 181 181 148
Width: 490
Flags: MW
HStem: -189 21G<74 85.5> -3 30<198 250.5> 0 21G<414.5 427> 480 20G<200.5 210 524.5 534>
VStem: 64 37
LayerCount: 2
Back
Fore
SplineSet
220 27 m 0xd8
 317 27 383 89 412 115 c 0
 425 127 433 143 438 167 c 2
 507 483 l 2
 509 492 520 500 529 500 c 0
 539 500 546 492 544 483 c 2
 446 19 l 2
 443 8 433 0 421 0 c 0xb8
 408 0 401 10 404 24 c 2
 416 82 l 1
 373 34 289 -3 212 -3 c 0
 184 -3 143 7 120 28 c 1
 110 -35 103 -120 101 -168 c 0
 101 -177 93 -189 78 -189 c 0
 70 -189 63 -185 64 -176 c 0
 73 -35 88 104 120 256 c 0
 137 336 166 435 179 474 c 0
 187 496 195 500 206 500 c 0
 214 500 221 494 218 483 c 0
 217 479 215 471 212 462 c 0
 200 427 182 370 166 294 c 0
 123 92 131 27 220 27 c 0xd8
EndSplineSet
EndChar
StartChar: paragraph
Encoding: 182 182 106
Width: 549
Flags: MW
HStem: -84 21G<247.5 259.5 364.5 376.5>
LayerCount: 2
Back
Fore
SplineSet
394 -68 m 0
 390 -79 381 -84 372 -84 c 0
 357 -84 356 -71 361 -61 c 0
 440 139 525 377 583 650 c 0
 588 677 594 704 599 731 c 0
 601 742 611 751 621 751 c 0
 631 751 637 743 637 734 c 0
 632 705 625 677 620 650 c 0
 567 402 483 152 394 -68 c 0
552 763 m 2
 522 756 l 1
 516 720 507 675 499 639 c 0
 447 394 359 138 277 -69 c 0
 272 -80 264 -84 255 -84 c 0
 240 -84 237 -71 243 -61 c 0
 282 22 369 278 392 364 c 1
 361 364 l 2
 252 364 159 413 186 538 c 0
 217 683 390 768 557 798 c 0
 567 800 573 793 571 782 c 0
 569 774 565 766 552 763 c 2
EndSplineSet
EndChar
StartChar: periodcentered
Encoding: 183 183 149
Width: 162
Flags: MW
HStem: 219 21G<118 133> 264 20G<138.5 153>
LayerCount: 2
Back
Fore
SplineSet
125 219 m 0
 111 219 105 232 108 248 c 0
 112 267 130 284 147 284 c 0
 159 284 167 272 164 257 c 0
 160 237 141 219 125 219 c 0
EndSplineSet
EndChar
StartChar: cedilla
Encoding: 184 184 220
Width: 490
Flags: MW
HStem: -209 22<189.5 221 189.5 222.5> -64 23<221 247> 3 20G<223.5 226>
LayerCount: 2
Back
Fore
SplineSet
204 -9 m 0
 219 17 222 23 225 23 c 0
 227 23 228 21 226 13 c 2
 213 -41 l 1
 284 -41 311 -78 301 -123 c 0
 291 -170 246 -209 199 -209 c 0
 168 -209 131 -189 137 -163 c 0
 138 -157 144 -154 149 -154 c 0
 154 -154 156 -159 159 -164 c 0
 166 -174 175 -187 204 -187 c 0
 238 -187 271 -159 278 -125 c 0
 285 -91 264 -64 230 -64 c 0
 212 -64 200 -70 192 -75 c 0
 187 -78 184 -79 182 -79 c 0
 176 -79 172 -75 173 -69 c 0
 174 -65 199 -18 204 -9 c 0
EndSplineSet
EndChar
StartChar: onesuperior
Encoding: 185 185 147
Width: 156
Flags: MW
HStem: 463 27<112.5 175 123 175 202 240> 823 20G<267.5 273>
LayerCount: 2
Back
Fore
SplineSet
169 761 m 2
 257 838 l 2
 261 842 266 843 269 843 c 0
 277 843 282 838 279 828 c 2
 202 490 l 1
 246 490 l 2
 254 490 258 483 257 476 c 0
 255 468 247 463 240 463 c 2
 117 463 l 2
 108 463 105 469 107 476 c 0
 109 485 116 490 123 490 c 2
 175 490 l 1
 244 793 l 1
 187 743 l 2
 181 737 176 737 172 737 c 0
 167 737 161 742 163 750 c 0
 164 754 166 758 169 761 c 2
EndSplineSet
EndChar
StartChar: ordmasculine
Encoding: 186 186 128
Width: 267
Flags: MW
HStem: 362 26<182 236 182 251> 644 26<251.5 306>
LayerCount: 2
Back
Fore
SplineSet
203 362 m 0
 136 362 92 422 109 501 c 0
 126 580 199 670 288 670 c 0
 355 670 400 613 381 526 c 0
 368 462 299 362 203 362 c 0
279 644 m 0
 224 644 158 580 142 504 c 0
 128 442 155 388 209 388 c 0
 263 388 332 446 349 526 c 0
 362 586 333 644 279 644 c 0
EndSplineSet
EndChar
StartChar: guillemotright
Encoding: 187 187 88
Width: 581
Flags: MW
HStem: 78 21G<117 124 327 334> 410 20G<175.5 181.5 385.5 391.5>
LayerCount: 2
Back
Fore
SplineSet
332 78 m 0
 322 78 315 87 317 96 c 0
 318 101 321 105 327 110 c 2
 510 249 l 1
 372 397 l 2
 369 401 367 406 368 412 c 0
 370 422 381 430 390 430 c 0
 393 430 398 429 402 425 c 2
 555 264 l 2
 560 259 559 254 558 249 c 0
 557 243 553 238 548 235 c 2
 346 83 l 2
 340 79 336 78 332 78 c 0
122 78 m 0
 112 78 105 87 107 96 c 0
 108 101 111 105 117 110 c 2
 300 249 l 1
 162 397 l 2
 159 401 157 406 158 412 c 0
 160 422 171 430 180 430 c 0
 183 430 188 429 192 425 c 2
 345 264 l 2
 350 259 349 254 348 249 c 0
 347 243 343 238 338 235 c 2
 136 83 l 2
 130 79 126 78 122 78 c 0
EndSplineSet
EndChar
StartChar: questiondown
Encoding: 191 191 115
Width: 523
Flags: MW
HStem: -195 35<179 278> 481 20G<460.5 475.5>
LayerCount: 2
Back
Fore
SplineSet
247 229 m 2
 392 337 l 2
 397 340 401 343 405 343 c 0
 415 343 421 334 420 325 c 0
 419 320 416 316 411 312 c 2
 261 199 l 2
 185 142 115 88 98 9 c 0
 81 -72 111 -160 247 -160 c 0
 321 -160 378 -115 418 -78 c 0
 420 -76 425 -73 431 -73 c 0
 441 -73 447 -81 446 -89 c 0
 444 -98 432 -109 420 -120 c 0
 381 -155 316 -195 240 -195 c 0
 109 -195 37 -113 63 9 c 0
 87 120 185 183 247 229 c 2
469 501 m 0
 482 501 489 487 486 472 c 0
 482 453 463 435 446 435 c 0
 434 435 426 448 429 462 c 0
 433 483 452 501 469 501 c 0
EndSplineSet
EndChar
StartChar: Agrave
Encoding: 192 192 152
Width: 614
Flags: MW
HStem: -1 21G<545 554.5> 0 21G<66 76> 669 20G<469.5 479> 892 20G<438 449>
LayerCount: 2
Back
Fore
SplineSet
58 27 m 2x70
 165 203 l 1
 126 194 l 2
 113 192 107 202 110 212 c 0
 112 222 120 229 129 231 c 2
 190 244 l 1
 452 677 l 2
 457 684 465 689 474 689 c 0
 484 689 489 683 489 677 c 2
 574 32 l 2
 575 23 574 18 574 15 c 0
 571 4 560 -1 549 -1 c 0xb0
 541 -1 536 3 535 11 c 2
 501 272 l 1
 211 211 l 1
 91 11 l 2
 86 4 80 0 72 0 c 0
 60 0 52 8 54 18 c 0
 55 21 57 25 58 27 c 2x70
237 253 m 1
 496 307 l 1
 455 614 l 1
 237 253 l 1
464 901 m 2
 544 765 l 2
 547 760 548 756 547 752 c 0
 545 742 534 736 525 736 c 0
 521 736 516 738 513 742 c 2
 417 868 l 2
 413 874 412 880 413 887 c 0
 416 901 431 912 445 912 c 0
 453 912 460 909 464 901 c 2
EndSplineSet
EndChar
StartChar: Aacute
Encoding: 193 193 153
Width: 614
Flags: MW
HStem: -1 21G<545 554.5> 0 21G<66 76> 669 20G<469.5 479> 880 20G<598 608.5>
LayerCount: 2
Back
Fore
SplineSet
58 27 m 2x70
 165 203 l 1
 126 194 l 2
 113 192 107 202 110 212 c 0
 112 222 120 229 129 231 c 2
 190 244 l 1
 452 677 l 2
 457 684 465 689 474 689 c 0
 484 689 489 683 489 677 c 2
 574 32 l 2
 575 23 574 18 574 15 c 0
 571 4 560 -1 549 -1 c 0xb0
 541 -1 536 3 535 11 c 2
 501 272 l 1
 211 211 l 1
 91 11 l 2
 86 4 80 0 72 0 c 0
 60 0 52 8 54 18 c 0
 55 21 57 25 58 27 c 2x70
237 253 m 1
 496 307 l 1
 455 614 l 1
 237 253 l 1
610 857 m 2
 446 759 l 2
 438 754 432 752 428 752 c 0
 419 752 413 760 415 769 c 0
 416 772 417 777 424 782 c 2
 574 886 l 2
 584 893 593 900 603 900 c 0
 614 900 624 887 621 873 c 0
 620 866 618 862 610 857 c 2
EndSplineSet
EndChar
StartChar: Acircumflex
Encoding: 194 194 154
Width: 614
Flags: MW
HStem: -1 21G<545 554.5> 0 21G<66 76> 669 20G<469.5 479> 882 20G<525 529.5>
LayerCount: 2
Back
Fore
SplineSet
527 902 m 0x70
 532 902 538 900 541 896 c 2
 629 783 l 2
 632 779 633 776 632 771 c 0
 630 762 621 753 612 753 c 0
 607 753 603 755 600 758 c 2
 515 853 l 1
 370 757 l 2
 367 755 363 753 359 753 c 0
 349 753 342 762 344 771 c 0
 345 776 350 781 354 784 c 2
 513 897 l 2
 518 900 523 902 527 902 c 0x70
58 27 m 2
 165 203 l 1
 126 194 l 2
 113 192 107 202 110 212 c 0
 112 222 120 229 129 231 c 2
 190 244 l 1
 452 677 l 2
 457 684 465 689 474 689 c 0
 484 689 489 683 489 677 c 2
 574 32 l 2
 575 23 574 18 574 15 c 0
 571 4 560 -1 549 -1 c 0xb0
 541 -1 536 3 535 11 c 2
 501 272 l 1
 211 211 l 1
 91 11 l 2
 86 4 80 0 72 0 c 0
 60 0 52 8 54 18 c 0
 55 21 57 25 58 27 c 2
237 253 m 1
 496 307 l 1
 455 614 l 1
 237 253 l 1
EndSplineSet
EndChar
StartChar: Atilde
Encoding: 195 195 155
Width: 614
Flags: MW
HStem: -1 21G<545 554.5> 0 21G<66 76> 669 20G<469.5 479> 735 26<546.5 576 546.5 577> 842 27<426 444>
LayerCount: 2
Back
Fore
SplineSet
646 844 m 0x78
 649 850 655 855 664 855 c 0
 673 855 677 849 675 841 c 0
 667 803 604 735 550 735 c 0
 509 735 494 766 481 792 c 0
 463 829 454 842 434 842 c 0
 418 842 376 829 346 771 c 0
 341 762 336 758 329 758 c 0
 319 758 317 766 319 774 c 0
 328 816 393 869 440 869 c 0
 481 869 496 839 509 811 c 0
 521 786 536 761 557 761 c 0
 595 761 627 812 646 844 c 0x78
58 27 m 2
 165 203 l 1
 126 194 l 2
 113 192 107 202 110 212 c 0
 112 222 120 229 129 231 c 2
 190 244 l 1
 452 677 l 2
 457 684 465 689 474 689 c 0
 484 689 489 683 489 677 c 2
 574 32 l 2
 575 23 574 18 574 15 c 0
 571 4 560 -1 549 -1 c 0xb8
 541 -1 536 3 535 11 c 2
 501 272 l 1
 211 211 l 1
 91 11 l 2
 86 4 80 0 72 0 c 0
 60 0 52 8 54 18 c 0
 55 21 57 25 58 27 c 2
237 253 m 1
 496 307 l 1
 455 614 l 1
 237 253 l 1
EndSplineSet
EndChar
StartChar: Adieresis
Encoding: 196 196 156
Width: 614
Flags: MW
HStem: -1 21G<545 554.5> 0 21G<66 76> 669 20G<469.5 479> 755 65<409 412.5 573 576>
LayerCount: 2
Back
Fore
SplineSet
450 790 m 0x70
 446 771 424 755 401 755 c 0
 381 755 368 768 371 785 c 0
 375 804 397 820 421 820 c 0
 439 820 454 807 450 790 c 0x70
614 790 m 0
 610 771 588 755 564 755 c 0
 545 755 531 768 534 785 c 0
 538 804 561 820 585 820 c 0
 603 820 618 807 614 790 c 0
58 27 m 2
 165 203 l 1
 126 194 l 2
 113 192 107 202 110 212 c 0
 112 222 120 229 129 231 c 2
 190 244 l 1
 452 677 l 2
 457 684 465 689 474 689 c 0
 484 689 489 683 489 677 c 2
 574 32 l 2
 575 23 574 18 574 15 c 0
 571 4 560 -1 549 -1 c 0xb0
 541 -1 536 3 535 11 c 2
 501 272 l 1
 211 211 l 1
 91 11 l 2
 86 4 80 0 72 0 c 0
 60 0 52 8 54 18 c 0
 55 21 57 25 58 27 c 2
237 253 m 1
 496 307 l 1
 455 614 l 1
 237 253 l 1
EndSplineSet
EndChar
StartChar: Aring
Encoding: 197 197 157
Width: 614
Flags: MW
HStem: -1 21G<545 554.5> 0 21G<66 76> 669 20G<469.5 479> 743 27<467.5 511> 920 28<513.5 561>
LayerCount: 2
Back
Fore
SplineSet
479 743 m 0x78
 420 743 381 785 393 838 c 0
 406 902 481 948 546 948 c 0
 602 948 643 906 632 852 c 0
 618 787 543 743 479 743 c 0x78
536 920 m 0
 474 920 423 873 416 838 c 0
 406 795 441 770 494 770 c 0
 534 770 598 801 608 850 c 0
 616 885 586 920 536 920 c 0
58 27 m 2
 165 203 l 1
 126 194 l 2
 113 192 107 202 110 212 c 0
 112 222 120 229 129 231 c 2
 190 244 l 1
 452 677 l 2
 457 684 465 689 474 689 c 0
 484 689 489 683 489 677 c 2
 574 32 l 2
 575 23 574 18 574 15 c 0
 571 4 560 -1 549 -1 c 0xb8
 541 -1 536 3 535 11 c 2
 501 272 l 1
 211 211 l 1
 91 11 l 2
 86 4 80 0 72 0 c 0
 60 0 52 8 54 18 c 0
 55 21 57 25 58 27 c 2
237 253 m 1
 496 307 l 1
 455 614 l 1
 237 253 l 1
EndSplineSet
EndChar
StartChar: AE
Encoding: 198 198 120
Width: 1030
Flags: MW
HStem: -3 21G 0 35<522.5 976 552 969> 318 36<985 989.5> 646 35<682 1106 682 682>
LayerCount: 2
Back
Fore
SplineSet
552 35 m 1x70
 976 35 l 2x70
 986 35 992 28 990 18 c 0xb0
 988 8 979 0 969 0 c 2
 527 0 l 2x70
 518 0 511 8 513 18 c 2
 576 315 l 1
 322 265 l 1
 81 4 l 2
 76 -1 71 -3 66 -3 c 0xb0
 56 -3 50 5 51 13 c 0
 52 18 54 21 57 24 c 2
 271 255 l 1
 223 246 l 2
 212 244 207 254 209 262 c 0
 211 272 218 279 229 281 c 2
 309 297 l 1
 656 674 l 2
 658 677 663 681 668 681 c 2
 1113 681 l 2
 1123 681 1130 674 1128 664 c 0
 1126 654 1116 646 1106 646 c 2
 682 646 l 1
 620 354 l 1
 993 354 l 2
 1002 354 1008 346 1006 337 c 0
 1004 327 994 318 985 318 c 2
 612 319 l 1
 552 35 l 1x70
361 307 m 1
 584 351 l 1
 639 608 l 1
 361 307 l 1
EndSplineSet
EndChar
StartChar: Ccedilla
Encoding: 199 199 158
Width: 622
Flags: MW
HStem: -209 22<267.5 299 267.5 300.5> -64 23<299 325> -2 38<330.5 383 297 385> 646 38<423.5 526.5 423.5 529.5>
LayerCount: 2
Back
Fore
SplineSet
288 2 m 1
 160 26 82 144 114 295 c 0
 158 500 355 684 492 684 c 0
 561 684 606 661 636 639 c 1
 644 650 654 658 662 658 c 0
 672 658 679 650 677 640 c 2
 663 574 l 2
 660 564 649 554 639 554 c 0
 629 554 622 564 625 574 c 2
 626 583 l 1
 610 607 575 646 484 646 c 0
 363 646 189 469 152 295 c 0
 113 110 249 36 345 36 c 0
 421 36 503 68 574 138 c 0
 579 142 584 145 589 145 c 0
 599 145 608 139 605 127 c 0
 605 123 602 118 599 115 c 0
 527 40 433 -2 337 -2 c 0
 324 -2 312 -1 301 0 c 1
 291 -41 l 1
 362 -41 389 -78 379 -123 c 0
 369 -170 324 -209 277 -209 c 0
 246 -209 209 -189 215 -163 c 0
 216 -157 222 -154 227 -154 c 0
 232 -154 234 -159 237 -164 c 0
 244 -174 253 -187 282 -187 c 0
 316 -187 349 -159 356 -125 c 0
 363 -91 342 -64 308 -64 c 0
 290 -64 278 -70 270 -75 c 0
 265 -78 262 -79 259 -79 c 0
 252 -79 250 -74 251 -70 c 0
 252 -64 282 -8 288 2 c 1
EndSplineSet
EndChar
StartChar: Egrave
Encoding: 200 200 159
Width: 600
Flags: MW
HStem: 0 38<82 534 114 526> 334 38<185 548 176 557> 644 38<242 664 242 242> 892 20G<410 421>
LayerCount: 2
Back
Fore
SplineSet
114 38 m 1
 534 38 l 2
 544 38 551 30 549 20 c 0
 546 9 536 0 526 0 c 2
 87 0 l 2
 77 0 69 9 72 20 c 2
 209 664 l 2
 211 674 221 682 231 682 c 2
 672 682 l 2
 682 682 690 674 688 664 c 0
 685 653 674 644 664 644 c 2
 242 644 l 1
 185 372 l 1
 557 372 l 2
 567 372 573 364 571 353 c 0
 568 343 558 334 548 334 c 2
 176 334 l 1
 114 38 l 1
436 901 m 2
 516 765 l 2
 519 760 520 756 519 752 c 0
 517 742 506 736 497 736 c 0
 493 736 488 738 485 742 c 2
 389 868 l 2
 385 874 384 880 385 887 c 0
 388 901 403 912 417 912 c 0
 425 912 432 909 436 901 c 2
EndSplineSet
EndChar
StartChar: Eacute
Encoding: 201 201 160
Width: 600
Flags: MW
HStem: 0 38<82 534 114 526> 334 38<185 548 176 557> 644 38<242 664 242 242> 880 20G<564 574.5>
LayerCount: 2
Back
Fore
SplineSet
114 38 m 1
 534 38 l 2
 544 38 551 30 549 20 c 0
 546 9 536 0 526 0 c 2
 87 0 l 2
 77 0 69 9 72 20 c 2
 209 664 l 2
 211 674 221 682 231 682 c 2
 672 682 l 2
 682 682 690 674 688 664 c 0
 685 653 674 644 664 644 c 2
 242 644 l 1
 185 372 l 1
 557 372 l 2
 567 372 573 364 571 353 c 0
 568 343 558 334 548 334 c 2
 176 334 l 1
 114 38 l 1
576 857 m 2
 412 759 l 2
 404 754 398 752 394 752 c 0
 385 752 379 760 381 769 c 0
 382 772 383 777 390 782 c 2
 540 886 l 2
 550 893 559 900 569 900 c 0
 580 900 590 887 587 873 c 0
 586 866 584 862 576 857 c 2
EndSplineSet
EndChar
StartChar: Ecircumflex
Encoding: 202 202 161
Width: 600
Flags: MW
HStem: 0 38<82 534 114 526> 334 38<185 548 176 557> 644 38<242 664 242 242> 682 71<346 353 601.5 608.5> 882 20G<517 521.5>
LayerCount: 2
Back
Fore
SplineSet
519 902 m 0xd8
 524 902 530 900 533 896 c 2
 621 783 l 2
 624 779 625 776 624 771 c 0
 622 762 613 753 604 753 c 0
 599 753 595 755 592 758 c 2
 507 853 l 1
 362 757 l 2
 359 755 355 753 351 753 c 0
 341 753 334 762 336 771 c 0
 337 776 342 781 346 784 c 2
 505 897 l 2
 510 900 515 902 519 902 c 0xd8
114 38 m 1
 534 38 l 2
 544 38 551 30 549 20 c 0
 546 9 536 0 526 0 c 2
 87 0 l 2
 77 0 69 9 72 20 c 2
 209 664 l 2
 211 674 221 682 231 682 c 2
 672 682 l 2
 682 682 690 674 688 664 c 0
 685 653 674 644 664 644 c 2
 242 644 l 1xe8
 185 372 l 1
 557 372 l 2
 567 372 573 364 571 353 c 0
 568 343 558 334 548 334 c 2
 176 334 l 1
 114 38 l 1
EndSplineSet
EndChar
StartChar: Edieresis
Encoding: 203 203 162
Width: 600
Flags: MW
HStem: 0 38<82 534 114 526> 334 38<185 548 176 557> 644 38<242 664 242 242> 755 65<395.5 399 559.5 563>
LayerCount: 2
Back
Fore
SplineSet
437 790 m 0
 433 771 411 755 387 755 c 0
 368 755 354 768 357 785 c 0
 361 804 384 820 407 820 c 0
 426 820 441 807 437 790 c 0
600 790 m 0
 596 771 575 755 551 755 c 0
 532 755 518 768 521 785 c 0
 525 804 548 820 571 820 c 0
 590 820 604 807 600 790 c 0
114 38 m 1
 534 38 l 2
 544 38 551 30 549 20 c 0
 546 9 536 0 526 0 c 2
 87 0 l 2
 77 0 69 9 72 20 c 2
 209 664 l 2
 211 674 221 682 231 682 c 2
 672 682 l 2
 682 682 690 674 688 664 c 0
 685 653 674 644 664 644 c 2
 242 644 l 1
 185 372 l 1
 557 372 l 2
 567 372 573 364 571 353 c 0
 568 343 558 334 548 334 c 2
 176 334 l 1
 114 38 l 1
EndSplineSet
EndChar
StartChar: Igrave
Encoding: 204 204 163
Width: 423
Flags: MW
HStem: -1 38<77 204 90 204 242 346> 643 38<214 491 227 333 371 371 371 483> 892 20G<340 351>
LayerCount: 2
Back
Fore
SplineSet
242 37 m 1
 354 37 l 2
 366 37 372 29 370 19 c 0
 367 8 356 -1 346 -1 c 2
 82 -1 l 2
 72 -1 65 8 68 19 c 0
 70 29 80 37 90 37 c 2
 204 37 l 1
 333 643 l 1
 219 643 l 2
 209 643 202 652 204 662 c 0
 207 673 217 681 227 681 c 2
 491 681 l 2
 501 681 509 673 506 662 c 0
 504 652 493 643 483 643 c 2
 371 643 l 1
 242 37 l 1
366 901 m 2
 446 765 l 2
 449 760 450 756 449 752 c 0
 447 742 436 736 427 736 c 0
 423 736 418 738 415 742 c 2
 319 868 l 2
 315 874 314 880 315 887 c 0
 318 901 333 912 347 912 c 0
 355 912 362 909 366 901 c 2
EndSplineSet
EndChar
StartChar: Iacute
Encoding: 205 205 164
Width: 423
Flags: MW
HStem: -1 38<77 204 90 204 242 346> 643 38<214 491 227 333 371 371 371 483> 880 20G<488 498.5>
LayerCount: 2
Back
Fore
SplineSet
242 37 m 1
 354 37 l 2
 366 37 372 29 370 19 c 0
 367 8 356 -1 346 -1 c 2
 82 -1 l 2
 72 -1 65 8 68 19 c 0
 70 29 80 37 90 37 c 2
 204 37 l 1
 333 643 l 1
 219 643 l 2
 209 643 202 652 204 662 c 0
 207 673 217 681 227 681 c 2
 491 681 l 2
 501 681 509 673 506 662 c 0
 504 652 493 643 483 643 c 2
 371 643 l 1
 242 37 l 1
500 857 m 2
 336 759 l 2
 328 754 322 752 318 752 c 0
 309 752 303 760 305 769 c 0
 306 772 307 777 314 782 c 2
 464 886 l 2
 474 893 483 900 493 900 c 0
 504 900 514 887 511 873 c 0
 510 866 508 862 500 857 c 2
EndSplineSet
EndChar
StartChar: Icircumflex
Encoding: 206 206 165
Width: 423
Flags: MW
HStem: -1 38<77 204 90 204 242 346> 643 38<214 491 227 333 371 371 371 483> 681 72<250 257 250 491> 882 20G<421 425.5>
LayerCount: 2
Back
Fore
SplineSet
423 902 m 0xb0
 428 902 434 900 437 896 c 2
 525 783 l 2
 528 779 529 776 528 771 c 0
 526 762 517 753 508 753 c 0
 503 753 499 755 496 758 c 2
 411 853 l 1
 266 757 l 2
 263 755 259 753 255 753 c 0
 245 753 238 762 240 771 c 0
 241 776 246 781 250 784 c 2
 409 897 l 2
 414 900 419 902 423 902 c 0xb0
242 37 m 1
 354 37 l 2
 366 37 372 29 370 19 c 0
 367 8 356 -1 346 -1 c 2
 82 -1 l 2
 72 -1 65 8 68 19 c 0
 70 29 80 37 90 37 c 2
 204 37 l 1
 333 643 l 1
 219 643 l 2
 209 643 202 652 204 662 c 0
 207 673 217 681 227 681 c 2
 491 681 l 2
 501 681 509 673 506 662 c 0
 504 652 493 643 483 643 c 2
 371 643 l 1xd0
 242 37 l 1
EndSplineSet
EndChar
StartChar: Idieresis
Encoding: 207 207 166
Width: 423
Flags: MW
HStem: -1 38<77 204 90 204 242 346> 643 38<214 491 227 333 371 371 371 483> 755 65<303 307 467 470.5>
LayerCount: 2
Back
Fore
SplineSet
344 790 m 0
 340 771 319 755 295 755 c 0
 275 755 262 768 265 785 c 0
 269 804 291 820 315 820 c 0
 334 820 348 807 344 790 c 0
508 790 m 0
 504 771 482 755 459 755 c 0
 439 755 426 768 429 785 c 0
 433 804 455 820 479 820 c 0
 497 820 512 807 508 790 c 0
242 37 m 1
 354 37 l 2
 366 37 372 29 370 19 c 0
 367 8 356 -1 346 -1 c 2
 82 -1 l 2
 72 -1 65 8 68 19 c 0
 70 29 80 37 90 37 c 2
 204 37 l 1
 333 643 l 1
 219 643 l 2
 209 643 202 652 204 662 c 0
 207 673 217 681 227 681 c 2
 491 681 l 2
 501 681 509 673 506 662 c 0
 504 652 493 643 483 643 c 2
 371 643 l 1
 242 37 l 1
EndSplineSet
EndChar
StartChar: Eth
Encoding: 208 208 119
Width: 645
Flags: MW
HStem: -21 39<255 360.5> 290 38<111 199 124 191 234 344 124 226> 643 38<301 301>
LayerCount: 2
Back
Fore
SplineSet
264 -21 m 0
 206 -21 151 -5 144 -3 c 0
 135 -1 131 7 133 15 c 2
 191 290 l 1
 116 290 l 2
 106 290 100 298 102 308 c 0
 104 318 114 328 124 328 c 2
 199 328 l 1
 270 662 l 2
 273 673 284 681 294 681 c 0
 458 681 734 625 665 299 c 0
 618 76 457 -21 264 -21 c 0
226 290 m 1
 171 31 l 1
 197 25 238 18 272 18 c 0
 462 18 589 109 629 299 c 0
 681 545 520 634 301 643 c 1
 234 328 l 1
 352 328 l 2
 362 328 368 318 366 308 c 0
 364 298 354 290 344 290 c 2
 226 290 l 1
EndSplineSet
EndChar
StartChar: Ntilde
Encoding: 209 209 167
Width: 609
Flags: MW
HStem: 0 21G<81 91 528.5 537.5> 662 20G 735 26<541.5 571 541.5 572> 842 27<421 439>
LayerCount: 2
Back
Fore
SplineSet
518 7 m 2
 234 603 l 1
 109 19 l 2
 106 8 96 0 86 0 c 0
 76 0 69 8 72 19 c 2
 209 662 l 2
 212 673 220 681 230 681 c 0
 238 681 244 678 247 670 c 2
 530 77 l 1
 655 664 l 2
 657 674 666 682 676 682 c 0
 687 682 694 674 692 664 c 2
 555 19 l 2
 552 8 543 0 532 0 c 0
 525 0 520 2 518 7 c 2
641 844 m 0
 644 850 650 855 659 855 c 0
 668 855 672 849 670 841 c 0
 662 803 599 735 545 735 c 0
 504 735 489 766 476 792 c 0
 458 829 449 842 429 842 c 0
 413 842 371 829 341 771 c 0
 336 762 331 758 324 758 c 0
 314 758 312 766 314 774 c 0
 323 816 388 869 435 869 c 0
 476 869 491 839 504 811 c 0
 516 786 531 761 552 761 c 0
 590 761 622 812 641 844 c 0
EndSplineSet
EndChar
StartChar: Ograve
Encoding: 210 210 168
Width: 650
Flags: MW
HStem: -2 33<252.5 380 252.5 385> 649 33<418 545.5> 892 20G<480 491>
LayerCount: 2
Back
Fore
SplineSet
307 -2 m 0
 164 -2 92 142 128 312 c 0
 171 513 340 682 496 682 c 0
 638 682 712 540 676 368 c 0
 633 167 463 -2 307 -2 c 0
481 649 m 0
 350 649 202 500 162 312 c 0
 129 159 191 31 314 31 c 0
 446 31 602 183 641 364 c 0
 671 508 610 649 481 649 c 0
506 901 m 2
 586 765 l 2
 589 760 590 756 589 752 c 0
 587 742 576 736 567 736 c 0
 563 736 558 738 555 742 c 2
 459 868 l 2
 455 874 454 880 455 887 c 0
 458 901 473 912 487 912 c 0
 495 912 502 909 506 901 c 2
EndSplineSet
EndChar
StartChar: Oacute
Encoding: 211 211 169
Width: 650
Flags: MW
HStem: -2 33<252.5 380 252.5 385> 649 33<418 545.5> 880 20G<621 631.5>
LayerCount: 2
Back
Fore
SplineSet
307 -2 m 0
 164 -2 92 142 128 312 c 0
 171 513 340 682 496 682 c 0
 638 682 712 540 676 368 c 0
 633 167 463 -2 307 -2 c 0
481 649 m 0
 350 649 202 500 162 312 c 0
 129 159 191 31 314 31 c 0
 446 31 602 183 641 364 c 0
 671 508 610 649 481 649 c 0
633 857 m 2
 469 759 l 2
 461 754 455 752 451 752 c 0
 442 752 436 760 438 769 c 0
 439 772 440 777 447 782 c 2
 597 886 l 2
 607 893 616 900 626 900 c 0
 637 900 647 887 644 873 c 0
 643 866 641 862 633 857 c 2
EndSplineSet
EndChar
StartChar: Ocircumflex
Encoding: 212 212 170
Width: 650
Flags: MW
HStem: -2 33<252.5 380 252.5 385> 649 33<418 545.5> 682 71<388 567> 882 20G<559 563.5>
LayerCount: 2
Back
Fore
SplineSet
307 -2 m 0xd0
 164 -2 92 142 128 312 c 0
 171 513 340 682 496 682 c 0
 638 682 712 540 676 368 c 0
 633 167 463 -2 307 -2 c 0xd0
481 649 m 0
 350 649 202 500 162 312 c 0
 129 159 191 31 314 31 c 0
 446 31 602 183 641 364 c 0
 671 508 610 649 481 649 c 0
561 902 m 0
 566 902 572 900 575 896 c 2
 663 783 l 2
 666 779 667 776 666 771 c 0
 664 762 655 753 646 753 c 0
 641 753 637 755 634 758 c 2
 549 853 l 1
 404 757 l 2
 401 755 397 753 393 753 c 0xb0
 383 753 376 762 378 771 c 0
 379 776 384 781 388 784 c 2
 547 897 l 2
 552 900 557 902 561 902 c 0
EndSplineSet
EndChar
StartChar: Otilde
Encoding: 213 213 171
Width: 650
Flags: MW
HStem: -2 33<252.5 380 252.5 385> 649 33<418 545.5> 735 26<589.5 619 589.5 620> 842 27<469 487>
LayerCount: 2
Back
Fore
SplineSet
307 -2 m 0
 164 -2 92 142 128 312 c 0
 171 513 340 682 496 682 c 0
 638 682 712 540 676 368 c 0
 633 167 463 -2 307 -2 c 0
481 649 m 0
 350 649 202 500 162 312 c 0
 129 159 191 31 314 31 c 0
 446 31 602 183 641 364 c 0
 671 508 610 649 481 649 c 0
689 844 m 0
 692 850 698 855 707 855 c 0
 716 855 720 849 718 841 c 0
 710 803 647 735 593 735 c 0
 552 735 537 766 524 792 c 0
 506 829 497 842 477 842 c 0
 461 842 419 829 389 771 c 0
 384 762 379 758 372 758 c 0
 362 758 360 766 362 774 c 0
 371 816 436 869 483 869 c 0
 524 869 539 839 552 811 c 0
 564 786 579 761 600 761 c 0
 638 761 670 812 689 844 c 0
EndSplineSet
EndChar
StartChar: Odieresis
Encoding: 214 214 172
Width: 650
Flags: MW
HStem: -2 33<252.5 380 252.5 385> 649 33<418 545.5> 755 65<447 450 610.5 614>
LayerCount: 2
Back
Fore
SplineSet
307 -2 m 0
 164 -2 92 142 128 312 c 0
 171 513 340 682 496 682 c 0
 638 682 712 540 676 368 c 0
 633 167 463 -2 307 -2 c 0
481 649 m 0
 350 649 202 500 162 312 c 0
 129 159 191 31 314 31 c 0
 446 31 602 183 641 364 c 0
 671 508 610 649 481 649 c 0
488 790 m 0
 484 771 462 755 438 755 c 0
 419 755 405 768 408 785 c 0
 412 804 435 820 459 820 c 0
 477 820 492 807 488 790 c 0
652 790 m 0
 648 771 626 755 602 755 c 0
 583 755 569 768 572 785 c 0
 576 804 599 820 622 820 c 0
 641 820 656 807 652 790 c 0
EndSplineSet
EndChar
StartChar: multiply
Encoding: 215 215 173
Width: 431
Flags: MW
HStem: 125 21G<140.5 148.5> 126 21G<343.5 350.5> 338 20G<392 400>
LayerCount: 2
Back
Fore
SplineSet
408 340 m 0xa0
 407 337 404 332 402 330 c 2
 296 243 l 1
 363 155 l 2
 366 152 367 148 366 144 c 0
 364 133 355 126 346 126 c 0x60
 341 126 337 128 334 131 c 2
 267 218 l 1
 159 130 l 2
 155 127 151 125 146 125 c 0
 135 125 131 134 133 142 c 0
 134 146 137 151 140 154 c 2
 248 243 l 1
 184 322 l 2
 182 325 180 329 181 334 c 0
 183 343 193 351 202 351 c 0
 207 351 211 349 213 346 c 2
 277 267 l 1
 383 354 l 2
 385 356 390 358 394 358 c 0
 406 358 410 351 408 340 c 0xa0
EndSplineSet
EndChar
StartChar: Oslash
Encoding: 216 216 127
Width: 650
Flags: MW
HStem: -33 21G<96 105> -2 33<291 380 291 385> 649 33<418 497.5> 725 20G<677.5 684.5>
LayerCount: 2
Back
Fore
SplineSet
93 -6 m 2
 157 78 l 1
 121 139 109 223 128 312 c 0
 171 513 340 682 496 682 c 0
 531 682 566 671 599 650 c 1
 664 737 l 2
 668 742 674 745 681 745 c 0
 688 745 696 740 693 729 c 0
 693 726 691 722 690 720 c 2
 622 632 l 1
 677 570 698 474 676 368 c 0
 633 167 463 -2 307 -2 c 0
 257 -2 212 18 177 53 c 1
 117 -25 l 2
 113 -30 108 -33 102 -33 c 0
 90 -33 86 -26 88 -16 c 0
 89 -13 91 -9 93 -6 c 2
314 31 m 0
 446 31 602 183 641 364 c 0
 659 448 643 538 597 599 c 1
 200 82 l 1
 230 49 268 31 314 31 c 0
481 649 m 0
 350 649 202 500 162 312 c 0
 147 240 154 169 182 109 c 1
 574 619 l 1
 545 639 514 649 481 649 c 0
EndSplineSet
EndChar
StartChar: Ugrave
Encoding: 217 217 174
Width: 673
Flags: MW
HStem: 0 31<250 415.5> 892 20G<458 469>
LayerCount: 2
Back
Fore
SplineSet
752 653 m 0
 730 527 708 400 663 270 c 0
 608 110 502 0 329 0 c 0
 171 0 104 125 147 367 c 0
 165 474 188 570 207 655 c 0
 210 671 218 681 232 681 c 0
 247 681 248 670 245 654 c 0
 224 565 202 474 185 381 c 0
 160 236 151 31 336 31 c 0
 496 31 583 139 628 277 c 0
 667 397 687 518 715 651 c 0
 718 667 722 681 740 681 c 0
 755 681 755 668 752 653 c 0
484 901 m 2
 564 765 l 2
 567 760 568 756 567 752 c 0
 565 742 554 736 545 736 c 0
 541 736 536 738 533 742 c 2
 437 868 l 2
 433 874 432 880 433 887 c 0
 436 901 451 912 465 912 c 0
 473 912 480 909 484 901 c 2
EndSplineSet
EndChar
StartChar: Uacute
Encoding: 218 218 175
Width: 673
Flags: MW
HStem: 0 31<250 415.5> 880 20G<618 628.5>
LayerCount: 2
Back
Fore
SplineSet
752 653 m 0
 730 527 708 400 663 270 c 0
 608 110 502 0 329 0 c 0
 171 0 104 125 147 367 c 0
 165 474 188 570 207 655 c 0
 210 671 218 681 232 681 c 0
 247 681 248 670 245 654 c 0
 224 565 202 474 185 381 c 0
 160 236 151 31 336 31 c 0
 496 31 583 139 628 277 c 0
 667 397 687 518 715 651 c 0
 718 667 722 681 740 681 c 0
 755 681 755 668 752 653 c 0
630 857 m 2
 466 759 l 2
 458 754 452 752 448 752 c 0
 439 752 433 760 435 769 c 0
 436 772 437 777 444 782 c 2
 594 886 l 2
 604 893 613 900 623 900 c 0
 634 900 644 887 641 873 c 0
 640 866 638 862 630 857 c 2
EndSplineSet
EndChar
StartChar: Ucircumflex
Encoding: 219 219 176
Width: 673
Flags: MW
HStem: 0 31<250 415.5> 882 20G<552 556.5>
LayerCount: 2
Back
Fore
SplineSet
554 902 m 0
 559 902 565 900 568 896 c 2
 656 783 l 2
 659 779 660 776 659 771 c 0
 657 762 648 753 639 753 c 0
 634 753 630 755 627 758 c 2
 542 853 l 1
 397 757 l 2
 394 755 390 753 386 753 c 0
 376 753 369 762 371 771 c 0
 372 776 377 781 381 784 c 2
 540 897 l 2
 545 900 550 902 554 902 c 0
752 653 m 0
 730 527 708 400 663 270 c 0
 608 110 502 0 329 0 c 0
 171 0 104 125 147 367 c 0
 165 474 188 570 207 655 c 0
 210 671 218 681 232 681 c 0
 247 681 248 670 245 654 c 0
 224 565 202 474 185 381 c 0
 160 236 151 31 336 31 c 0
 496 31 583 139 628 277 c 0
 667 397 687 518 715 651 c 0
 718 667 722 681 740 681 c 0
 755 681 755 668 752 653 c 0
EndSplineSet
EndChar
StartChar: Udieresis
Encoding: 220 220 177
Width: 673
Flags: MW
HStem: 0 31<250 415.5> 755 65<427 430.5 591 594.5>
LayerCount: 2
Back
Fore
SplineSet
468 790 m 0
 464 771 442 755 419 755 c 0
 399 755 386 768 389 785 c 0
 393 804 415 820 439 820 c 0
 457 820 472 807 468 790 c 0
632 790 m 0
 628 771 606 755 583 755 c 0
 563 755 549 768 552 785 c 0
 556 804 579 820 603 820 c 0
 621 820 636 807 632 790 c 0
752 653 m 0
 730 527 708 400 663 270 c 0
 608 110 502 0 329 0 c 0
 171 0 104 125 147 367 c 0
 165 474 188 570 207 655 c 0
 210 671 218 681 232 681 c 0
 247 681 248 670 245 654 c 0
 224 565 202 474 185 381 c 0
 160 236 151 31 336 31 c 0
 496 31 583 139 628 277 c 0
 667 397 687 518 715 651 c 0
 718 667 722 681 740 681 c 0
 755 681 755 668 752 653 c 0
EndSplineSet
EndChar
StartChar: Thorn
Encoding: 222 222 117
Width: 537
Flags: MW
HStem: 0 21G<79.5 88.5> 147 36<131 139> 535 34<255.5 295.5 221 353.5> 660 20G<225.5 234.5>
LayerCount: 2
Back
Fore
SplineSet
242 664 m 2
 221 569 l 1
 370 569 585 550 548 376 c 0
 511 202 277 150 131 147 c 1
 103 15 l 2
 101 7 93 0 84 0 c 0
 75 0 69 7 71 16 c 2
 211 665 l 2
 213 673 221 680 230 680 c 0
 239 680 244 673 242 664 c 2
214 533 m 1
 139 183 l 1
 249 184 484 225 516 376 c 0
 538 476 444 535 263 535 c 0
 248 535 235 535 214 533 c 1
EndSplineSet
EndChar
StartChar: germandbls
Encoding: 223 223 126
Width: 515
Flags: MW
HStem: -26 33<266.5 323 266.5 326> -1 21G<78.5 88> 612 33<322.5 392>
LayerCount: 2
Back
Fore
SplineSet
207 26 m 0xa0
 230 13 253 7 280 7 c 0xa0
 366 7 458 81 477 170 c 0
 495 257 442 341 326 330 c 0
 316 329 307 327 296 327 c 0
 286 327 280 334 282 343 c 0
 284 352 290 360 301 361 c 2
 316 362 l 2
 386 367 441 423 455 486 c 0
 469 554 427 612 357 612 c 0
 288 612 218 554 204 486 c 2
 104 16 l 2
 102 6 93 -1 83 -1 c 0x60
 74 -1 68 6 70 16 c 2
 170 486 l 2
 188 573 276 645 364 645 c 0
 451 645 506 573 488 486 c 0
 479 443 439 388 397 358 c 1
 480 339 528 257 509 169 c 0
 487 63 379 -26 273 -26 c 0
 238 -26 174 -15 180 11 c 0
 182 21 190 28 198 28 c 0
 200 28 203 28 207 26 c 0xa0
EndSplineSet
EndChar
StartChar: agrave
Encoding: 224 224 135
Width: 495
Flags: MW
HStem: 0 21G<413 442> 8 37<191.5 266.5> 478 37<320 413.5> 738 20G<389 400>
LayerCount: 2
Back
Fore
SplineSet
539 476 m 1x70
 442 21 l 2
 439 9 430 0 419 0 c 0xb0
 407 0 402 10 404 23 c 2
 414 66 l 1
 365 39 294 8 239 8 c 0
 133 8 72 95 99 223 c 0
 121 327 226 515 400 515 c 0
 461 515 516 489 539 476 c 1x70
421 110 m 1
 498 452 l 1
 478 463 432 478 395 478 c 0
 245 478 158 316 138 225 c 0
 122 148 138 45 245 45 c 0x70
 310 45 391 93 421 110 c 1
414 747 m 2
 494 611 l 2
 497 606 498 602 498 598 c 0
 495 588 484 582 475 582 c 0
 471 582 467 584 463 588 c 2
 367 714 l 2
 364 720 362 726 363 733 c 0
 366 747 382 758 396 758 c 0
 404 758 410 755 414 747 c 2
EndSplineSet
EndChar
StartChar: aacute
Encoding: 225 225 134
Width: 495
Flags: MW
HStem: 0 21G<413 442> 8 37<191.5 266.5> 478 37<320 413.5> 715 20G<551 561.5>
LayerCount: 2
Back
Fore
SplineSet
539 476 m 1x70
 442 21 l 2
 439 9 430 0 419 0 c 0xb0
 407 0 402 10 404 23 c 2
 414 66 l 1
 365 39 294 8 239 8 c 0
 133 8 72 95 99 223 c 0
 121 327 226 515 400 515 c 0
 461 515 516 489 539 476 c 1x70
421 110 m 1
 498 452 l 1
 478 463 432 478 395 478 c 0
 245 478 158 316 138 225 c 0
 122 148 138 45 245 45 c 0x70
 310 45 391 93 421 110 c 1
563 692 m 2
 399 594 l 2
 391 589 385 587 381 587 c 0
 372 587 366 595 368 604 c 0
 369 607 370 612 377 617 c 2
 527 721 l 2
 537 728 546 735 556 735 c 0
 567 735 577 722 574 708 c 0
 573 701 571 697 563 692 c 2
EndSplineSet
EndChar
StartChar: acircumflex
Encoding: 226 226 131
Width: 495
Flags: MW
HStem: 0 21G<413 442> 8 37<191.5 266.5> 478 37<320 413.5> 515 84<295 430.5> 728 20G<466 470.5>
LayerCount: 2
Back
Fore
SplineSet
468 748 m 0x58
 473 748 479 746 482 742 c 2
 570 629 l 2
 573 625 575 622 574 617 c 0
 572 608 562 599 553 599 c 0
 548 599 544 601 541 604 c 2
 456 699 l 1
 312 603 l 2
 308 601 304 599 300 599 c 0
 290 599 284 608 286 617 c 0
 287 622 291 627 295 630 c 2
 454 743 l 2
 459 746 464 748 468 748 c 0x58
539 476 m 1
 442 21 l 2
 439 9 430 0 419 0 c 0xa8
 407 0 402 10 404 23 c 2
 414 66 l 1
 365 39 294 8 239 8 c 0
 133 8 72 95 99 223 c 0
 121 327 226 515 400 515 c 0
 461 515 516 489 539 476 c 1
421 110 m 1
 498 452 l 1
 478 463 432 478 395 478 c 0
 245 478 158 316 138 225 c 0
 122 148 138 45 245 45 c 0x68
 310 45 391 93 421 110 c 1
EndSplineSet
EndChar
StartChar: atilde
Encoding: 227 227 132
Width: 495
Flags: MW
HStem: 0 21G<413 442> 8 37<191.5 266.5> 478 37<320 413.5> 581 26<455.5 485 455.5 485> 688 27<335 353>
LayerCount: 2
Back
Fore
SplineSet
539 476 m 1x78
 442 21 l 2
 439 9 430 0 419 0 c 0xb8
 407 0 402 10 404 23 c 2
 414 66 l 1
 365 39 294 8 239 8 c 0
 133 8 72 95 99 223 c 0
 121 327 226 515 400 515 c 0
 461 515 516 489 539 476 c 1x78
421 110 m 1
 498 452 l 1
 478 463 432 478 395 478 c 0
 245 478 158 316 138 225 c 0
 122 148 138 45 245 45 c 0x78
 310 45 391 93 421 110 c 1
554 690 m 0
 557 696 564 701 573 701 c 0
 582 701 585 695 584 687 c 0
 575 649 512 581 458 581 c 0
 417 581 403 612 389 638 c 0
 371 675 363 688 343 688 c 0
 327 688 284 675 255 617 c 0
 250 608 244 604 237 604 c 0
 227 604 226 612 227 620 c 0
 236 662 301 715 348 715 c 0
 389 715 404 685 417 657 c 0
 429 632 445 607 466 607 c 0
 504 607 535 658 554 690 c 0
EndSplineSet
EndChar
StartChar: adieresis
Encoding: 228 228 133
Width: 495
Flags: MW
HStem: 0 21G<413 442> 8 37<191.5 266.5> 478 37<320 413.5> 600 66<336 339 501 505>
LayerCount: 2
Back
Fore
SplineSet
378 636 m 0x70
 373 616 351 600 327 600 c 0
 308 600 294 613 297 630 c 0
 301 649 324 666 348 666 c 0
 366 666 381 652 378 636 c 0x70
544 636 m 0
 539 616 517 600 493 600 c 0
 473 600 460 613 463 630 c 0
 467 649 489 666 513 666 c 0
 532 666 547 652 544 636 c 0
539 476 m 1
 442 21 l 2
 439 9 430 0 419 0 c 0xb0
 407 0 402 10 404 23 c 2
 414 66 l 1
 365 39 294 8 239 8 c 0
 133 8 72 95 99 223 c 0
 121 327 226 515 400 515 c 0
 461 515 516 489 539 476 c 1
421 110 m 1
 498 452 l 1
 478 463 432 478 395 478 c 0
 245 478 158 316 138 225 c 0
 122 148 138 45 245 45 c 0x70
 310 45 391 93 421 110 c 1
EndSplineSet
EndChar
StartChar: aring
Encoding: 229 229 130
Width: 495
Flags: MW
HStem: 0 21G<413 442> 8 37<191.5 266.5> 478 37<320 413.5> 587 27<406 450.5> 766 28<452 500.5>
LayerCount: 2
Back
Fore
SplineSet
418 587 m 0x78
 359 587 319 629 331 683 c 0
 344 747 419 794 485 794 c 0
 542 794 583 751 572 697 c 0
 558 631 483 587 418 587 c 0x78
475 766 m 0
 412 766 361 718 354 683 c 0
 345 640 379 614 433 614 c 0
 474 614 538 645 548 695 c 0
 556 730 526 766 475 766 c 0
539 476 m 1
 442 21 l 2
 439 9 430 0 419 0 c 0xb8
 407 0 402 10 404 23 c 2
 414 66 l 1
 365 39 294 8 239 8 c 0
 133 8 72 95 99 223 c 0
 121 327 226 515 400 515 c 0
 461 515 516 489 539 476 c 1
421 110 m 1
 498 452 l 1
 478 463 432 478 395 478 c 0
 245 478 158 316 138 225 c 0
 122 148 138 45 245 45 c 0x78
 310 45 391 93 421 110 c 1
EndSplineSet
EndChar
StartChar: ae
Encoding: 230 230 121
Width: 822
Flags: MW
HStem: 0 21G<397.5 407.5 585.5 654> 8 25 448 34<678 737> 464 34<318.5 397.5>
LayerCount: 2
Back
Fore
SplineSet
783 95 m 0x60
 786 98 789 100 794 100 c 0
 803 100 808 93 807 85 c 0
 805 79 804 77 799 72 c 0
 757 32 684 0 624 0 c 0
 547 0 485 34 443 104 c 1
 424 18 l 2
 422 9 412 0 403 0 c 0x90
 392 0 385 9 387 18 c 2
 397 64 l 1
 351 38 282 8 230 8 c 0
 128 8 67 85 94 213 c 0
 129 379 259 498 378 498 c 0x50
 432 498 493 475 518 462 c 1
 499 374 l 1
 557 444 648 482 708 482 c 0
 826 482 865 400 856 358 c 0
 854 352 848 345 834 338 c 2
 462 147 l 1
 488 65 550 33 638 33 c 0
 687 33 745 60 783 95 c 0x60
404 106 m 1
 480 438 l 1
 462 447 416 464 379 464 c 0
 233 464 148 304 129 216 c 0
 109 120 145 43 234 43 c 0
 290 43 369 81 404 106 c 1
701 448 m 0x60
 594 448 491 355 464 228 c 0
 462 217 459 207 459 179 c 1
 824 362 l 1
 807 424 773 448 701 448 c 0x60
EndSplineSet
EndChar
StartChar: ccedilla
Encoding: 231 231 179
Width: 499
Flags: MW
HStem: -209 22<226.5 258 226.5 259.5> -64 23<258 284> 0 33<246 246 260 260 260 277> 467 33<337 402.5>
LayerCount: 2
Back
Fore
SplineSet
241 -9 m 2
 246 0 l 1
 145 17 73 100 97 215 c 0
 107 263 131 308 146 334 c 0
 189 401 286 500 379 500 c 0
 451 500 483 474 512 430 c 0
 514 427 515 422 514 418 c 0
 512 408 503 400 494 400 c 0
 489 400 484 402 482 405 c 0
 459 441 431 467 374 467 c 0
 300 467 215 386 176 323 c 0
 151 281 139 246 133 217 c 0
 102 75 221 33 270 33 c 0
 349 33 406 71 444 111 c 0
 449 117 457 124 466 124 c 0
 475 124 482 117 480 108 c 0
 479 103 474 97 470 93 c 0
 426 43 351 3 277 0 c 2
 260 0 l 1
 250 -41 l 1
 321 -41 348 -78 338 -123 c 0
 328 -170 283 -209 236 -209 c 0
 205 -209 168 -189 174 -163 c 0
 175 -157 181 -154 186 -154 c 0
 191 -154 193 -159 196 -164 c 0
 203 -174 212 -187 241 -187 c 0
 275 -187 308 -159 315 -125 c 0
 322 -91 301 -64 267 -64 c 0
 249 -64 237 -70 229 -75 c 0
 224 -78 221 -79 219 -79 c 0
 213 -79 209 -75 210 -69 c 0
 211 -65 236 -18 241 -9 c 2
EndSplineSet
EndChar
StartChar: egrave
Encoding: 232 232 180
Width: 511
Flags: MW
HStem: 0 33<264 332 264 332.5> 465 34<318 415> 738 20G<375 386>
LayerCount: 2
Back
Fore
SplineSet
487 83 m 0
 486 79 483 75 480 72 c 0
 436 32 363 0 302 0 c 0
 149 0 77 114 103 238 c 0
 132 376 247 499 382 499 c 0
 509 499 548 413 539 371 c 0
 538 365 530 357 517 350 c 2
 134 155 l 1
 161 74 220 33 308 33 c 0
 356 33 426 60 463 95 c 0
 466 98 470 100 474 100 c 0
 484 100 489 93 487 83 c 0
374 465 m 0
 262 465 162 364 135 237 c 0
 132 225 130 216 130 188 c 1
 506 373 l 1
 495 432 456 465 374 465 c 0
400 747 m 2
 480 611 l 2
 483 606 484 602 484 598 c 0
 481 588 470 582 461 582 c 0
 457 582 453 584 449 588 c 2
 353 714 l 2
 350 720 348 726 349 733 c 0
 352 747 368 758 382 758 c 0
 390 758 396 755 400 747 c 2
EndSplineSet
EndChar
StartChar: eacute
Encoding: 233 233 181
Width: 511
Flags: MW
HStem: 0 33<264 332 264 332.5> 465 34<318 415> 715 20G<526 536.5>
LayerCount: 2
Back
Fore
SplineSet
487 83 m 0
 486 79 483 75 480 72 c 0
 436 32 363 0 302 0 c 0
 149 0 77 114 103 238 c 0
 132 376 247 499 382 499 c 0
 509 499 548 413 539 371 c 0
 538 365 530 357 517 350 c 2
 134 155 l 1
 161 74 220 33 308 33 c 0
 356 33 426 60 463 95 c 0
 466 98 470 100 474 100 c 0
 484 100 489 93 487 83 c 0
374 465 m 0
 262 465 162 364 135 237 c 0
 132 225 130 216 130 188 c 1
 506 373 l 1
 495 432 456 465 374 465 c 0
538 692 m 2
 374 594 l 2
 366 589 360 587 356 587 c 0
 347 587 341 595 343 604 c 0
 344 607 345 612 352 617 c 2
 502 721 l 2
 512 728 521 735 531 735 c 0
 542 735 552 722 549 708 c 0
 548 701 546 697 538 692 c 2
EndSplineSet
EndChar
StartChar: ecircumflex
Encoding: 234 234 182
Width: 511
Flags: MW
HStem: 0 33<264 332 264 332.5> 465 34<318 415> 499 100<287 445.5> 728 20G<458 462.5>
LayerCount: 2
Back
Fore
SplineSet
487 83 m 0xd0
 486 79 483 75 480 72 c 0
 436 32 363 0 302 0 c 0
 149 0 77 114 103 238 c 0
 132 376 247 499 382 499 c 0
 509 499 548 413 539 371 c 0
 538 365 530 357 517 350 c 2
 134 155 l 1
 161 74 220 33 308 33 c 0
 356 33 426 60 463 95 c 0
 466 98 470 100 474 100 c 0
 484 100 489 93 487 83 c 0xd0
374 465 m 0
 262 465 162 364 135 237 c 0
 132 225 130 216 130 188 c 1
 506 373 l 1
 495 432 456 465 374 465 c 0
460 748 m 0
 465 748 471 746 474 742 c 2
 562 629 l 2
 565 625 567 622 566 617 c 0
 564 608 554 599 545 599 c 0
 540 599 536 601 533 604 c 2
 448 699 l 1
 304 603 l 2
 300 601 296 599 292 599 c 0xb0
 282 599 276 608 278 617 c 0
 279 622 283 627 287 630 c 2
 446 743 l 2
 451 746 456 748 460 748 c 0
EndSplineSet
EndChar
StartChar: edieresis
Encoding: 235 235 183
Width: 511
Flags: MW
HStem: 0 33<264 332 264 332.5> 465 34<318 415> 600 66<342 345 507 511>
LayerCount: 2
Back
Fore
SplineSet
487 83 m 0
 486 79 483 75 480 72 c 0
 436 32 363 0 302 0 c 0
 149 0 77 114 103 238 c 0
 132 376 247 499 382 499 c 0
 509 499 548 413 539 371 c 0
 538 365 530 357 517 350 c 2
 134 155 l 1
 161 74 220 33 308 33 c 0
 356 33 426 60 463 95 c 0
 466 98 470 100 474 100 c 0
 484 100 489 93 487 83 c 0
374 465 m 0
 262 465 162 364 135 237 c 0
 132 225 130 216 130 188 c 1
 506 373 l 1
 495 432 456 465 374 465 c 0
384 636 m 0
 379 616 357 600 333 600 c 0
 313 600 300 613 303 630 c 0
 307 649 330 666 354 666 c 0
 372 666 387 652 384 636 c 0
550 636 m 0
 545 616 523 600 499 600 c 0
 479 600 465 613 468 630 c 0
 472 649 495 666 519 666 c 0
 538 666 553 652 550 636 c 0
EndSplineSet
EndChar
StartChar: igrave
Encoding: 236 236 184
Width: 184
Flags: MW
HStem: 0 21G<85.5 96> 738 20G<200 211>
LayerCount: 2
Back
Fore
SplineSet
218 476 m 2
 115 20 l 2
 112 9 101 0 91 0 c 0
 80 0 72 9 75 20 c 2
 178 476 l 2
 180 487 192 496 202 496 c 0
 212 496 220 487 218 476 c 2
225 747 m 2
 305 611 l 2
 308 606 309 602 309 598 c 0
 306 588 295 582 286 582 c 0
 282 582 278 584 274 588 c 2
 178 714 l 2
 175 720 173 726 174 733 c 0
 177 747 193 758 207 758 c 0
 215 758 221 755 225 747 c 2
EndSplineSet
EndChar
StartChar: iacute
Encoding: 237 237 185
Width: 184
Flags: MW
HStem: 0 21G<85.5 96> 715 20G<320 330.5>
LayerCount: 2
Back
Fore
SplineSet
218 476 m 2
 115 20 l 2
 112 9 101 0 91 0 c 0
 80 0 72 9 75 20 c 2
 178 476 l 2
 180 487 192 496 202 496 c 0
 212 496 220 487 218 476 c 2
332 692 m 2
 168 594 l 2
 160 589 154 587 150 587 c 0
 141 587 135 595 137 604 c 0
 138 607 139 612 146 617 c 2
 296 721 l 2
 306 728 315 735 325 735 c 0
 336 735 346 722 343 708 c 0
 342 701 340 697 332 692 c 2
EndSplineSet
EndChar
StartChar: icircumflex
Encoding: 238 238 186
Width: 224
Flags: MW
HStem: 0 21G<110 120.5> 728 20G<290 294.5>
LayerCount: 2
Back
Fore
SplineSet
242 476 m 2
 139 20 l 2
 136 9 126 0 115 0 c 0
 105 0 97 9 100 20 c 2
 203 476 l 2
 205 487 216 496 227 496 c 0
 237 496 244 487 242 476 c 2
292 748 m 0
 297 748 303 746 306 742 c 2
 394 629 l 2
 397 625 399 622 398 617 c 0
 396 608 386 599 377 599 c 0
 372 599 368 601 365 604 c 2
 280 699 l 1
 136 603 l 2
 132 601 128 599 124 599 c 0
 114 599 108 608 110 617 c 0
 111 622 115 627 119 630 c 2
 278 743 l 2
 283 746 288 748 292 748 c 0
EndSplineSet
EndChar
StartChar: idieresis
Encoding: 239 239 187
Width: 248
Flags: MW
HStem: 0 21G<115 125.5> 600 66<180 183 345 349>
LayerCount: 2
Back
Fore
SplineSet
247 476 m 2
 144 20 l 2
 141 9 131 0 120 0 c 0
 110 0 102 9 105 20 c 2
 208 476 l 2
 210 487 221 496 232 496 c 0
 242 496 249 487 247 476 c 2
222 636 m 0
 217 616 195 600 171 600 c 0
 152 600 138 613 141 630 c 0
 145 649 168 666 192 666 c 0
 210 666 225 652 222 636 c 0
388 636 m 0
 383 616 361 600 337 600 c 0
 317 600 304 613 307 630 c 0
 311 649 333 666 357 666 c 0
 376 666 391 652 388 636 c 0
EndSplineSet
EndChar
StartChar: eth
Encoding: 240 240 116
Width: 472
Flags: MW
HStem: 1 32<184 279 184 281> 402 33 658 20G<511 519.5>
LayerCount: 2
Back
Fore
SplineSet
387 601 m 1
 458 505 510 381 484 256 c 0
 457 129 348 1 214 1 c 0
 123 1 67 71 89 175 c 0
 122 332 261 428 437 435 c 1
 414 495 382 545 356 585 c 1
 303 559 262 535 242 523 c 0
 225 513 217 509 212 509 c 0
 208 509 205 513 205 517 c 0
 206 521 208 524 220 532 c 0
 232 541 255 553 283 568 c 2
 344 601 l 1
 337 611 323 628 316 634 c 0
 306 645 299 651 300 658 c 0
 302 667 312 674 319 674 c 0
 324 674 326 673 330 670 c 0
 332 669 344 658 376 616 c 1
 417 636 505 678 517 678 c 0
 522 678 525 675 523 668 c 0
 523 665 520 663 518 662 c 0
 480 645 423 619 387 601 c 1
221 33 m 0
 337 33 427 144 452 259 c 0
 461 305 457 355 445 402 c 1
 303 402 157 341 121 174 c 0
 103 88 147 33 221 33 c 0
EndSplineSet
EndChar
StartChar: ntilde
Encoding: 241 241 188
Width: 525
Flags: MW
HStem: 0 21G<81 108> 464 35<402 477> 581 26<480.5 510 480.5 510> 688 27<360 378>
LayerCount: 2
Back
Fore
SplineSet
207 482 m 2
 161 265 l 1
 205 380 335 499 439 499 c 0
 559 499 551 388 500 148 c 0
 491 108 483 66 472 20 c 0
 469 9 461 0 451 0 c 0
 442 0 434 8 437 19 c 0
 445 65 454 106 462 145 c 0
 506 357 528 464 426 464 c 0
 378 464 312 438 232 334 c 0
 184 269 144 179 127 105 c 2
 108 21 l 2
 105 9 98 0 86 0 c 0
 76 0 69 7 71 17 c 2
 170 482 l 2
 172 492 182 500 192 500 c 0
 203 500 209 492 207 482 c 2
579 690 m 0
 582 696 589 701 598 701 c 0
 607 701 610 695 609 687 c 0
 600 649 537 581 483 581 c 0
 442 581 428 612 414 638 c 0
 396 675 388 688 368 688 c 0
 352 688 309 675 280 617 c 0
 275 608 269 604 262 604 c 0
 252 604 251 612 252 620 c 0
 261 662 326 715 373 715 c 0
 414 715 429 685 442 657 c 0
 454 632 470 607 491 607 c 0
 529 607 560 658 579 690 c 0
EndSplineSet
EndChar
StartChar: ograve
Encoding: 242 242 189
Width: 525
Flags: MW
HStem: 0 29<209.5 308 209.5 315> 471 29<328 425.5> 738 20G<394 405>
LayerCount: 2
Back
Fore
SplineSet
252 0 m 0
 138 0 73 103 100 229 c 0
 131 376 264 500 390 500 c 0
 503 500 567 395 541 271 c 0
 510 123 378 0 252 0 c 0
379 471 m 0
 277 471 166 358 139 231 c 0
 116 123 161 29 258 29 c 0
 358 29 474 140 501 266 c 0
 524 375 472 471 379 471 c 0
419 747 m 2
 499 611 l 2
 502 606 503 602 503 598 c 0
 500 588 489 582 480 582 c 0
 476 582 472 584 468 588 c 2
 372 714 l 2
 369 720 367 726 368 733 c 0
 371 747 387 758 401 758 c 0
 409 758 415 755 419 747 c 2
EndSplineSet
EndChar
StartChar: oacute
Encoding: 243 243 190
Width: 525
Flags: MW
HStem: 0 29<209.5 308 209.5 315> 471 29<328 425.5> 715 20G<521 531.5>
LayerCount: 2
Back
Fore
SplineSet
252 0 m 0
 138 0 73 103 100 229 c 0
 131 376 264 500 390 500 c 0
 503 500 567 395 541 271 c 0
 510 123 378 0 252 0 c 0
379 471 m 0
 277 471 166 358 139 231 c 0
 116 123 161 29 258 29 c 0
 358 29 474 140 501 266 c 0
 524 375 472 471 379 471 c 0
533 692 m 2
 369 594 l 2
 361 589 355 587 351 587 c 0
 342 587 336 595 338 604 c 0
 339 607 340 612 347 617 c 2
 497 721 l 2
 507 728 516 735 526 735 c 0
 537 735 547 722 544 708 c 0
 543 701 541 697 533 692 c 2
EndSplineSet
EndChar
StartChar: ocircumflex
Encoding: 244 244 191
Width: 525
Flags: MW
HStem: 0 29<209.5 308 209.5 315> 471 29<328 425.5> 500 99<303 446.5> 728 20G<474 478.5>
LayerCount: 2
Back
Fore
SplineSet
252 0 m 0xd0
 138 0 73 103 100 229 c 0
 131 376 264 500 390 500 c 0
 503 500 567 395 541 271 c 0
 510 123 378 0 252 0 c 0xd0
379 471 m 0
 277 471 166 358 139 231 c 0
 116 123 161 29 258 29 c 0
 358 29 474 140 501 266 c 0
 524 375 472 471 379 471 c 0
476 748 m 0
 481 748 487 746 490 742 c 2
 578 629 l 2
 581 625 583 622 582 617 c 0
 580 608 570 599 561 599 c 0
 556 599 552 601 549 604 c 2
 464 699 l 1
 320 603 l 2
 316 601 312 599 308 599 c 0xb0
 298 599 292 608 294 617 c 0
 295 622 299 627 303 630 c 2
 462 743 l 2
 467 746 472 748 476 748 c 0
EndSplineSet
EndChar
StartChar: otilde
Encoding: 245 245 192
Width: 525
Flags: MW
HStem: 0 29<209.5 308 209.5 315> 471 29<328 425.5> 581 26<496.5 526 496.5 526> 688 27<376 394>
LayerCount: 2
Back
Fore
SplineSet
252 0 m 0
 138 0 73 103 100 229 c 0
 131 376 264 500 390 500 c 0
 503 500 567 395 541 271 c 0
 510 123 378 0 252 0 c 0
379 471 m 0
 277 471 166 358 139 231 c 0
 116 123 161 29 258 29 c 0
 358 29 474 140 501 266 c 0
 524 375 472 471 379 471 c 0
595 690 m 0
 598 696 605 701 614 701 c 0
 623 701 626 695 625 687 c 0
 616 649 553 581 499 581 c 0
 458 581 444 612 430 638 c 0
 412 675 404 688 384 688 c 0
 368 688 325 675 296 617 c 0
 291 608 285 604 278 604 c 0
 268 604 267 612 268 620 c 0
 277 662 342 715 389 715 c 0
 430 715 445 685 458 657 c 0
 470 632 486 607 507 607 c 0
 545 607 576 658 595 690 c 0
EndSplineSet
EndChar
StartChar: odieresis
Encoding: 246 246 193
Width: 525
Flags: MW
HStem: 0 29<209.5 308 209.5 315> 471 29<328 425.5> 600 66<351 354.5 516 520>
LayerCount: 2
Back
Fore
SplineSet
252 0 m 0
 138 0 73 103 100 229 c 0
 131 376 264 500 390 500 c 0
 503 500 567 395 541 271 c 0
 510 123 378 0 252 0 c 0
379 471 m 0
 277 471 166 358 139 231 c 0
 116 123 161 29 258 29 c 0
 358 29 474 140 501 266 c 0
 524 375 472 471 379 471 c 0
393 636 m 0
 388 616 366 600 343 600 c 0
 323 600 309 613 312 630 c 0
 316 649 339 666 363 666 c 0
 382 666 396 652 393 636 c 0
559 636 m 0
 554 616 532 600 508 600 c 0
 488 600 475 613 478 630 c 0
 482 649 504 666 528 666 c 0
 547 666 562 652 559 636 c 0
EndSplineSet
EndChar
StartChar: divide
Encoding: 247 247 194
Width: 423
Flags: MW
HStem: 121 21G<224 236> 226 33<125.5 405 137 398> 345 20G<298 309.5>
LayerCount: 2
Back
Fore
SplineSet
398 226 m 2
 130 226 l 2
 121 226 113 233 115 243 c 0
 117 252 128 259 137 259 c 2
 405 259 l 2
 414 259 421 252 419 243 c 0
 417 233 407 226 398 226 c 2
287 313 m 0
 276 313 271 323 274 336 c 0
 277 350 291 365 305 365 c 0
 314 365 320 355 318 345 c 0
 314 327 300 313 287 313 c 0
229 121 m 0
 219 121 213 131 216 144 c 0
 219 158 234 173 247 173 c 0
 257 173 262 164 260 153 c 0
 256 135 243 121 229 121 c 0
EndSplineSet
EndChar
StartChar: oslash
Encoding: 248 248 195
Width: 525
Flags: MW
HStem: -36 21G<91 98> 0 29<244 308 244 315> 471 29<328 392>
LayerCount: 2
Back
Fore
SplineSet
156 30 m 1
 111 -28 l 2
 106 -34 101 -36 95 -36 c 0
 87 -36 79 -29 81 -21 c 0
 82 -17 83 -15 86 -11 c 2
 136 49 l 1
 100 96 86 160 100 229 c 0
 131 376 264 500 390 500 c 0
 417 500 447 492 474 475 c 1
 525 539 l 2
 531 547 542 548 548 544 c 0
 555 540 554 529 548 522 c 2
 498 457 l 1
 539 411 556 343 541 271 c 0
 510 123 378 0 252 0 c 0
 219 0 185 11 156 30 c 1
258 29 m 0
 358 29 474 140 501 266 c 0
 513 324 501 382 472 427 c 1
 179 57 l 1
 203 40 230 29 258 29 c 0
379 471 m 0
 277 471 166 358 139 231 c 0
 127 178 135 125 159 79 c 1
 452 447 l 1
 430 463 405 471 379 471 c 0
EndSplineSet
EndChar
StartChar: ugrave
Encoding: 249 249 196
Width: 502
Flags: MW
HStem: -3 30<164 253.5> 0 21G<417.5 430> 738 20G<364 375>
LayerCount: 2
Back
Fore
SplineSet
415 115 m 0xa0
 428 127 436 143 441 167 c 2
 510 483 l 2
 512 492 523 500 532 500 c 0
 542 500 549 492 547 483 c 2
 449 19 l 2
 446 8 436 0 424 0 c 0x60
 411 0 404 10 407 24 c 2
 419 82 l 1
 376 34 292 -3 215 -3 c 0
 67 -3 99 144 130 293 c 0
 146 372 168 435 181 474 c 0
 189 496 197 500 206 500 c 0
 216 500 223 493 220 483 c 0
 219 479 217 471 214 462 c 0
 202 427 181 370 165 294 c 0
 137 162 107 27 221 27 c 0
 318 27 386 89 415 115 c 0xa0
389 747 m 2
 469 611 l 2
 472 606 473 602 473 598 c 0
 470 588 459 582 450 582 c 0
 446 582 442 584 438 588 c 2
 342 714 l 2
 339 720 337 726 338 733 c 0
 341 747 357 758 371 758 c 0
 379 758 385 755 389 747 c 2
EndSplineSet
EndChar
StartChar: uacute
Encoding: 250 250 197
Width: 502
Flags: MW
HStem: -3 30<164 253.5> 0 21G<417.5 430> 715 20G<524 534.5>
LayerCount: 2
Back
Fore
SplineSet
415 115 m 0xa0
 428 127 436 143 441 167 c 2
 510 483 l 2
 512 492 523 500 532 500 c 0
 542 500 549 492 547 483 c 2
 449 19 l 2
 446 8 436 0 424 0 c 0x60
 411 0 404 10 407 24 c 2
 419 82 l 1
 376 34 292 -3 215 -3 c 0
 67 -3 99 144 130 293 c 0
 146 372 168 435 181 474 c 0
 189 496 197 500 206 500 c 0
 216 500 223 493 220 483 c 0
 219 479 217 471 214 462 c 0
 202 427 181 370 165 294 c 0
 137 162 107 27 221 27 c 0
 318 27 386 89 415 115 c 0xa0
536 692 m 2
 372 594 l 2
 364 589 358 587 354 587 c 0
 345 587 339 595 341 604 c 0
 342 607 343 612 350 617 c 2
 500 721 l 2
 510 728 519 735 529 735 c 0
 540 735 550 722 547 708 c 0
 546 701 544 697 536 692 c 2
EndSplineSet
EndChar
StartChar: ucircumflex
Encoding: 251 251 198
Width: 502
Flags: MW
HStem: -3 30<164 253.5> 0 21G<417.5 430> 500 99<201.5 289> 728 20G<453 457.5>
LayerCount: 2
Back
Fore
SplineSet
455 748 m 0xb0
 460 748 466 746 469 742 c 2
 557 629 l 2
 560 625 562 622 561 617 c 0
 559 608 549 599 540 599 c 0
 535 599 531 601 528 604 c 2
 443 699 l 1
 299 603 l 2
 295 601 291 599 287 599 c 0
 277 599 271 608 273 617 c 0
 274 622 278 627 282 630 c 2
 441 743 l 2
 446 746 451 748 455 748 c 0xb0
415 115 m 0
 428 127 436 143 441 167 c 2
 510 483 l 2
 512 492 523 500 532 500 c 0
 542 500 549 492 547 483 c 2
 449 19 l 2
 446 8 436 0 424 0 c 0x70
 411 0 404 10 407 24 c 2
 419 82 l 1
 376 34 292 -3 215 -3 c 0
 67 -3 99 144 130 293 c 0
 146 372 168 435 181 474 c 0
 189 496 197 500 206 500 c 0
 216 500 223 493 220 483 c 0
 219 479 217 471 214 462 c 0
 202 427 181 370 165 294 c 0
 137 162 107 27 221 27 c 0
 318 27 386 89 415 115 c 0
EndSplineSet
EndChar
StartChar: udieresis
Encoding: 252 252 199
Width: 502
Flags: MW
HStem: -3 30<164 253.5> 0 21G<417.5 430> 600 66<323 327 489 492>
LayerCount: 2
Back
Fore
SplineSet
365 636 m 0xa0
 360 616 339 600 315 600 c 0
 295 600 281 613 284 630 c 0
 288 649 311 666 335 666 c 0
 354 666 368 652 365 636 c 0xa0
531 636 m 0
 526 616 504 600 480 600 c 0
 460 600 447 613 450 630 c 0
 454 649 477 666 501 666 c 0
 519 666 534 652 531 636 c 0
415 115 m 0
 428 127 436 143 441 167 c 2
 510 483 l 2
 512 492 523 500 532 500 c 0
 542 500 549 492 547 483 c 2
 449 19 l 2
 446 8 436 0 424 0 c 0x60
 411 0 404 10 407 24 c 2
 419 82 l 1
 376 34 292 -3 215 -3 c 0
 67 -3 99 144 130 293 c 0
 146 372 168 435 181 474 c 0
 189 496 197 500 206 500 c 0
 216 500 223 493 220 483 c 0
 219 479 217 471 214 462 c 0
 202 427 181 370 165 294 c 0
 137 162 107 27 221 27 c 0
 318 27 386 89 415 115 c 0
EndSplineSet
EndChar
StartChar: yacute
Encoding: 253 253 200
Width: 479
Flags: MW
HStem: -205 21G<94 103> 481 20G<551 560.5> 715 20G<485 495.5>
LayerCount: 2
Back
Fore
SplineSet
498 692 m 2
 334 594 l 2
 327 590 320 587 316 587 c 0
 307 587 301 595 303 604 c 0
 304 607 305 612 307 614 c 2
 462 721 l 2
 470 727 481 735 489 735 c 0
 502 735 511 722 508 708 c 0
 507 702 502 695 498 692 c 2
564 470 m 2
 119 -193 l 2
 114 -201 107 -205 99 -205 c 0
 89 -205 81 -197 83 -187 c 0
 84 -183 87 -178 90 -173 c 2
 242 53 l 1
 123 469 l 2
 122 473 122 476 123 480 c 0
 125 491 135 500 146 500 c 0
 153 500 159 496 162 487 c 2
 271 98 l 1
 534 489 l 2
 539 496 547 501 555 501 c 0
 566 501 572 493 570 482 c 0
 569 479 567 474 564 470 c 2
EndSplineSet
EndChar
StartChar: thorn
Encoding: 254 254 118
Width: 510
Flags: MW
HStem: -203 21G<37 47.5> 8 36<234.5 333.5 234.5 339.5> 456 34<370.5 415 370.5 452> 677 20G<211 239.5 229 248>
LayerCount: 2
Back
Fore
SplineSet
415 490 m 1
 523 485 548 376 526 272 c 0
 502 157 427 8 252 8 c 0
 199 8 148 27 113 42 c 1
 65 -184 l 2
 63 -195 53 -203 42 -203 c 0
 32 -203 26 -195 28 -184 c 2
 211 677 l 2
 214 688 224 697 234 697 c 0
 245 697 251 688 248 677 c 2
 191 406 l 1
 252 453 326 490 415 490 c 1
266 44 m 0
 401 44 466 141 494 272 c 0
 509 341 505 456 399 456 c 0
 285 456 206 386 181 358 c 1
 122 83 l 1
 142 73 203 44 266 44 c 0
EndSplineSet
EndChar
StartChar: ydieresis
Encoding: 255 255 201
Width: 479
Flags: MW
HStem: -205 21G<94 103> 481 20G<551 560.5> 600 66<300 304 466 470>
LayerCount: 2
Back
Fore
SplineSet
343 636 m 0
 338 616 316 600 292 600 c 0
 272 600 258 613 261 630 c 0
 265 649 288 666 312 666 c 0
 331 666 346 652 343 636 c 0
508 636 m 0
 503 616 482 600 458 600 c 0
 438 600 424 613 427 630 c 0
 431 649 454 666 478 666 c 0
 497 666 511 652 508 636 c 0
564 470 m 2
 119 -193 l 2
 114 -201 107 -205 99 -205 c 0
 89 -205 81 -197 83 -187 c 0
 84 -183 87 -178 90 -173 c 2
 242 53 l 1
 123 469 l 2
 122 473 122 476 123 480 c 0
 125 491 135 500 146 500 c 0
 153 500 159 496 162 487 c 2
 271 98 l 1
 534 489 l 2
 539 496 547 501 555 501 c 0
 566 501 572 493 570 482 c 0
 569 479 567 474 564 470 c 2
EndSplineSet
EndChar
StartChar: Abreve
Encoding: 258 258 227
Width: 614
Flags: MW
HStem: -1 21G<545 554.5> 0 21G<66 76> 669 20G<469.5 479> 762 28<470 519 470 528.5> 863 20G<641.5 647>
LayerCount: 2
Back
Fore
SplineSet
58 27 m 2x78
 165 203 l 1
 126 194 l 2
 113 192 107 202 110 212 c 0
 112 222 120 229 129 231 c 2
 190 244 l 1
 452 677 l 2
 457 684 465 689 474 689 c 0
 484 689 489 683 489 677 c 2
 574 32 l 2
 575 23 574 18 574 15 c 0
 571 4 560 -1 549 -1 c 0xb8
 541 -1 536 3 535 11 c 2
 501 272 l 1
 211 211 l 1
 91 11 l 2
 86 4 80 0 72 0 c 0
 60 0 52 8 54 18 c 0
 55 21 57 25 58 27 c 2x78
237 253 m 1
 496 307 l 1
 455 614 l 1
 237 253 l 1
372 865 m 0
 391 807 449 790 491 790 c 0
 547 790 593 816 627 868 c 0
 633 876 638 883 645 883 c 0
 649 883 652 880 651 876 c 0
 642 833 575 762 482 762 c 0
 367 762 347 849 351 869 c 0
 352 873 354 878 361 878 c 0
 367 878 370 870 372 865 c 0
EndSplineSet
EndChar
StartChar: abreve
Encoding: 259 259 243
Width: 495
Flags: MW
HStem: 0 21G<413 442> 8 37<191.5 266.5> 478 37<320 413.5> 582 28<398 447 398 456.5> 683 20G<569.5 575>
LayerCount: 2
Back
Fore
SplineSet
539 476 m 1x78
 442 21 l 2
 439 9 430 0 419 0 c 0xb8
 407 0 402 10 404 23 c 2
 414 66 l 1
 365 39 294 8 239 8 c 0
 133 8 72 95 99 223 c 0
 121 327 226 515 400 515 c 0
 461 515 516 489 539 476 c 1x78
421 110 m 1
 498 452 l 1
 478 463 432 478 395 478 c 0
 245 478 158 316 138 225 c 0
 122 148 138 45 245 45 c 0x78
 310 45 391 93 421 110 c 1
300 685 m 0
 319 627 377 610 419 610 c 0
 475 610 521 636 555 688 c 0
 560 696 566 703 573 703 c 0
 577 703 579 700 578 696 c 0
 569 653 503 582 410 582 c 0
 295 582 275 669 279 689 c 0
 280 693 282 698 289 698 c 0
 295 698 298 690 300 685 c 0
EndSplineSet
EndChar
StartChar: Aogonek
Encoding: 260 260 202
Width: 614
Flags: MW
HStem: -206 32<492 520> 0 21G<66 76> 669 20G<469.5 479>
LayerCount: 2
Back
Fore
SplineSet
503 -206 m 0
 446 -206 414 -164 425 -109 c 0
 437 -55 486 -12 534 15 c 1
 501 272 l 1
 211 211 l 1
 91 11 l 2
 86 4 80 0 72 0 c 0
 60 0 52 8 54 18 c 0
 55 21 57 25 58 27 c 2
 165 203 l 1
 126 194 l 2
 113 192 107 202 110 212 c 0
 112 222 120 229 129 231 c 2
 190 244 l 1
 452 677 l 2
 457 684 465 689 474 689 c 0
 484 689 489 683 489 677 c 2
 574 32 l 2
 576 14 575 9 551 -7 c 0
 510 -33 467 -61 456 -110 c 0
 448 -149 473 -174 511 -174 c 0
 534 -174 558 -166 584 -150 c 0
 587 -148 590 -147 593 -147 c 0
 600 -147 607 -154 605 -162 c 0
 600 -186 537 -206 503 -206 c 0
237 253 m 1
 496 307 l 1
 455 614 l 1
 237 253 l 1
EndSplineSet
EndChar
StartChar: aogonek
Encoding: 261 261 213
Width: 495
Flags: MW
HStem: -206 32<356 384> 8 37<191.5 266.5> 478 37<320 413.5>
LayerCount: 2
Back
Fore
SplineSet
404 19 m 1
 414 66 l 1
 365 39 294 8 239 8 c 0
 133 8 72 95 99 223 c 0
 121 327 226 515 400 515 c 0
 461 515 516 489 539 476 c 1
 442 21 l 2
 439 5 421 -3 407 -12 c 0
 374 -33 331 -61 320 -110 c 0
 312 -149 337 -174 375 -174 c 0
 398 -174 422 -166 448 -150 c 0
 451 -148 454 -147 457 -147 c 0
 464 -147 471 -154 469 -162 c 0
 464 -186 401 -206 367 -206 c 0
 310 -206 278 -164 289 -109 c 0
 301 -53 354 -8 404 19 c 1
421 110 m 1
 498 452 l 1
 478 463 432 478 395 478 c 0
 245 478 158 316 138 225 c 0
 122 148 138 45 245 45 c 0
 310 45 391 93 421 110 c 1
EndSplineSet
EndChar
StartChar: Cacute
Encoding: 262 262 229
Width: 622
Flags: MW
HStem: -2 38<297 383 297 385> 646 38<423.5 526.5 423.5 529.5> 880 20G<602 612.5>
LayerCount: 2
Back
Fore
SplineSet
589 145 m 0
 599 145 608 139 605 127 c 0
 605 123 602 118 599 115 c 0
 527 40 433 -2 337 -2 c 0
 181 -2 78 126 114 295 c 0
 158 500 355 684 492 684 c 0
 561 684 606 661 636 639 c 1
 644 650 654 658 662 658 c 0
 672 658 679 650 677 640 c 2
 663 574 l 2
 660 564 649 554 639 554 c 0
 629 554 622 564 625 574 c 2
 626 583 l 1
 610 607 575 646 484 646 c 0
 363 646 189 469 152 295 c 0
 113 110 249 36 345 36 c 0
 421 36 503 68 574 138 c 0
 579 142 584 145 589 145 c 0
614 857 m 2
 450 759 l 2
 442 754 436 752 432 752 c 0
 423 752 417 760 419 769 c 0
 420 772 421 777 428 782 c 2
 578 886 l 2
 588 893 597 900 607 900 c 0
 618 900 628 887 625 873 c 0
 624 866 622 862 614 857 c 2
EndSplineSet
EndChar
StartChar: cacute
Encoding: 263 263 245
Width: 499
Flags: MW
HStem: 0 33 467 33<337 402.5> 715 20G<524 534.5>
LayerCount: 2
Back
Fore
SplineSet
480 108 m 0
 479 103 474 97 470 93 c 0
 426 43 351 3 277 0 c 0
 159 -6 70 89 97 215 c 0
 107 263 131 308 146 334 c 0
 189 401 286 500 379 500 c 0
 451 500 483 474 512 430 c 0
 514 427 515 422 514 418 c 0
 512 408 503 400 494 400 c 0
 489 400 484 402 482 405 c 0
 459 441 431 467 374 467 c 0
 300 467 215 386 176 323 c 0
 151 281 139 246 133 217 c 0
 102 75 221 33 270 33 c 0
 349 33 406 71 444 111 c 0
 449 117 457 124 466 124 c 0
 475 124 482 117 480 108 c 0
536 692 m 2
 372 594 l 2
 364 589 358 587 354 587 c 0
 345 587 339 595 341 604 c 0
 342 607 343 612 350 617 c 2
 500 721 l 2
 510 728 519 735 529 735 c 0
 540 735 550 722 547 708 c 0
 546 701 544 697 536 692 c 2
EndSplineSet
EndChar
StartChar: Ccaron
Encoding: 268 268 230
Width: 622
Flags: MW
HStem: -2 38<297 383 297 385> 646 38<423.5 526.5 423.5 529.5> 646 246<423.5 427.5 420.5 529.5>
LayerCount: 2
Back
Fore
SplineSet
509 743 m 0xa0
 504 743 499 745 496 749 c 2
 408 862 l 2
 405 866 403 869 404 874 c 0
 406 883 416 892 425 892 c 0
 430 892 434 890 437 887 c 2
 522 792 l 1
 666 888 l 2
 670 890 674 892 678 892 c 0
 688 892 694 883 692 874 c 0
 691 869 687 864 683 861 c 2
 523 748 l 2
 519 745 513 743 509 743 c 0xa0
589 145 m 0
 599 145 608 139 605 127 c 0
 605 123 602 118 599 115 c 0
 527 40 433 -2 337 -2 c 0
 181 -2 78 126 114 295 c 0
 158 500 355 684 492 684 c 0xc0
 561 684 606 661 636 639 c 1
 644 650 654 658 662 658 c 0
 672 658 679 650 677 640 c 2
 663 574 l 2
 660 564 649 554 639 554 c 0
 629 554 622 564 625 574 c 2
 626 583 l 1
 610 607 575 646 484 646 c 0
 363 646 189 469 152 295 c 0
 113 110 249 36 345 36 c 0
 421 36 503 68 574 138 c 0
 579 142 584 145 589 145 c 0
EndSplineSet
EndChar
StartChar: ccaron
Encoding: 269 269 246
Width: 499
Flags: MW
HStem: 0 33 467 33<337 402.5> 718 20G<307.5 314.5 563 570>
LayerCount: 2
Back
Fore
SplineSet
397 589 m 0
 392 589 386 591 383 595 c 2
 295 708 l 2
 292 712 290 715 292 720 c 0
 293 729 303 738 312 738 c 0
 317 738 321 736 324 733 c 2
 409 638 l 1
 554 734 l 2
 557 736 561 738 565 738 c 0
 575 738 581 729 580 720 c 0
 578 715 574 710 570 707 c 2
 411 594 l 2
 406 591 401 589 397 589 c 0
480 108 m 0
 479 103 474 97 470 93 c 0
 426 43 351 3 277 0 c 0
 159 -6 70 89 97 215 c 0
 107 263 131 308 146 334 c 0
 189 401 286 500 379 500 c 0
 451 500 483 474 512 430 c 0
 514 427 515 422 514 418 c 0
 512 408 503 400 494 400 c 0
 489 400 484 402 482 405 c 0
 459 441 431 467 374 467 c 0
 300 467 215 386 176 323 c 0
 151 281 139 246 133 217 c 0
 102 75 221 33 270 33 c 0
 349 33 406 71 444 111 c 0
 449 117 457 124 466 124 c 0
 475 124 482 117 480 108 c 0
EndSplineSet
EndChar
StartChar: Dcaron
Encoding: 270 270 233
Width: 610
Flags: MW
HStem: -21 39<193 298> 643 38<242 242> 643 249<242 338.5>
LayerCount: 2
Back
Fore
SplineSet
202 -21 m 0xc0
 143 -21 88 -5 81 -3 c 0
 73 -1 69 7 71 15 c 2
 208 662 l 2
 211 673 221 681 231 681 c 0
 396 681 689 625 620 299 c 0
 573 76 394 -21 202 -21 c 0xc0
242 643 m 1
 112 31 l 1
 137 25 176 18 210 18 c 0
 399 18 542 109 582 299 c 0
 634 545 460 633 242 643 c 1
420 743 m 0
 415 743 410 745 407 749 c 2
 319 862 l 2
 316 866 314 869 315 874 c 0
 317 883 327 892 336 892 c 0
 341 892 345 890 348 887 c 2
 433 792 l 1
 577 888 l 2
 581 890 585 892 589 892 c 0xa0
 599 892 605 883 603 874 c 0
 602 869 598 864 594 861 c 2
 434 748 l 2
 430 745 424 743 420 743 c 0
EndSplineSet
EndChar
StartChar: dcaron
Encoding: 271 271 249
Width: 535
Flags: MW
HStem: 0 21G<422 433.5> 4 30<177 261> 463 35<293.5 397.5> 685 20G<589 609>
LayerCount: 2
Back
Fore
SplineSet
642 563 m 2x70
 684 634 l 1
 677 642 674 653 676 662 c 0
 680 682 699 698 715 698 c 0
 728 698 735 686 733 675 c 0
 729 657 725 650 702 612 c 0
 677 572 660 543 649 543 c 0
 642 543 637 548 638 553 c 0
 639 556 639 558 642 563 c 2x70
609 685 m 2
 451 18 l 2
 449 7 439 0 428 0 c 0xb0
 416 0 411 9 414 22 c 2
 432 96 l 1
 379 55 300 4 222 4 c 0
 106 4 77 116 100 225 c 0
 131 368 216 498 371 498 c 0
 428 498 481 478 517 461 c 1
 570 686 l 2
 572 696 584 705 594 705 c 0
 605 705 611 695 609 685 c 2
138 228 m 0
 121 148 125 34 229 34 c 0x70
 343 34 438 122 447 157 c 2
 508 419 l 1
 488 430 429 463 366 463 c 0
 216 463 158 323 138 228 c 0
EndSplineSet
EndChar
StartChar: dcroat
Encoding: 273 273 250
Width: 547
Flags: MW
HStem: 0 21G<422 433.5> 4 30<177 261> 463 35<293.5 397.5> 575 32<453 552 465 544 591 662 465 583> 685 20G<589 609>
LayerCount: 2
Back
Fore
SplineSet
609 685 m 2x78
 591 607 l 1
 669 607 l 2
 677 607 683 600 681 592 c 0
 679 582 670 575 662 575 c 2
 583 575 l 1
 451 18 l 2
 449 7 439 0 428 0 c 0xb8
 416 0 411 9 414 22 c 2
 432 96 l 1
 379 55 300 4 222 4 c 0
 106 4 77 116 100 225 c 0
 131 368 216 498 371 498 c 0
 428 498 481 478 517 461 c 1
 544 575 l 1
 458 575 l 2
 448 575 442 582 444 592 c 0
 446 600 455 607 465 607 c 2
 552 607 l 1
 570 686 l 2
 572 696 584 705 594 705 c 0
 605 705 611 695 609 685 c 2x78
138 228 m 0
 121 148 125 34 229 34 c 0x78
 343 34 438 122 447 157 c 2
 508 419 l 1
 488 430 429 463 366 463 c 0
 216 463 158 323 138 228 c 0
EndSplineSet
EndChar
StartChar: Eogonek
Encoding: 280 280 231
Width: 600
Flags: MW
HStem: -206 32<412 440> 0 38<82 534 114 430 482 482 482 526> 334 38<185 548 176 557> 644 38<242 664 242 242>
LayerCount: 2
Back
Fore
SplineSet
423 -206 m 0
 366 -206 334 -164 345 -109 c 0
 355 -64 391 -27 430 0 c 1
 87 0 l 2
 77 0 69 9 72 20 c 2
 209 664 l 2
 211 674 221 682 231 682 c 2
 672 682 l 2
 682 682 690 674 688 664 c 0
 685 653 674 644 664 644 c 2
 242 644 l 1
 185 372 l 1
 557 372 l 2
 567 372 573 364 571 353 c 0
 568 343 558 334 548 334 c 2
 176 334 l 1
 114 38 l 1
 534 38 l 2
 544 38 551 30 549 20 c 0
 546 9 536 0 526 0 c 2
 482 0 l 1
 463 -12 l 2
 430 -33 387 -61 376 -110 c 0
 368 -149 393 -174 431 -174 c 0
 454 -174 478 -166 504 -150 c 0
 507 -148 510 -147 513 -147 c 0
 520 -147 527 -154 525 -162 c 0
 520 -186 457 -206 423 -206 c 0
EndSplineSet
EndChar
StartChar: eogonek
Encoding: 281 281 247
Width: 511
Flags: MW
HStem: -209 32<266 294> 0 33 465 34<318 415>
LayerCount: 2
Back
Fore
SplineSet
277 -209 m 0
 220 -209 188 -167 200 -112 c 0
 210 -65 248 -27 289 0 c 1
 144 6 77 117 103 238 c 0
 132 376 247 499 382 499 c 0
 509 499 548 413 539 371 c 0
 538 365 530 357 517 350 c 2
 134 155 l 1
 161 74 220 33 308 33 c 0
 356 33 426 60 463 95 c 0
 466 98 470 100 474 100 c 0
 484 100 489 93 487 83 c 0
 486 79 483 75 480 72 c 0
 455 50 418 34 379 17 c 0
 314 -12 245 -44 230 -113 c 0
 222 -152 247 -177 285 -177 c 0
 308 -177 333 -169 358 -153 c 0
 361 -151 365 -150 368 -150 c 0
 375 -150 381 -157 379 -165 c 0
 374 -189 311 -209 277 -209 c 0
374 465 m 0
 262 465 162 364 135 237 c 0
 132 225 130 216 130 188 c 1
 506 373 l 1
 495 432 456 465 374 465 c 0
EndSplineSet
EndChar
StartChar: Ecaron
Encoding: 282 282 232
Width: 600
Flags: MW
HStem: 0 38<82 534 114 526> 334 38<185 548 176 557> 644 38<242 664 242 242> 644 248<369.5 376.5 625 632 242 376.5>
LayerCount: 2
Back
Fore
SplineSet
114 38 m 1xe0
 534 38 l 2
 544 38 551 30 549 20 c 0
 546 9 536 0 526 0 c 2
 87 0 l 2
 77 0 69 9 72 20 c 2
 209 664 l 2
 211 674 221 682 231 682 c 2
 672 682 l 2
 682 682 690 674 688 664 c 0
 685 653 674 644 664 644 c 2
 242 644 l 1
 185 372 l 1
 557 372 l 2
 567 372 573 364 571 353 c 0
 568 343 558 334 548 334 c 2
 176 334 l 1
 114 38 l 1xe0
458 743 m 0
 453 743 448 745 445 749 c 2
 357 862 l 2
 354 866 352 869 353 874 c 0
 355 883 365 892 374 892 c 0
 379 892 383 890 386 887 c 2
 471 792 l 1
 615 888 l 2
 619 890 623 892 627 892 c 0xd0
 637 892 643 883 641 874 c 0
 640 869 636 864 632 861 c 2
 472 748 l 2
 468 745 462 743 458 743 c 0
EndSplineSet
EndChar
StartChar: ecaron
Encoding: 283 283 248
Width: 511
Flags: MW
HStem: 0 33<264 332 264 332.5> 465 34<318 415> 718 20G<308.5 315.5 564 571>
LayerCount: 2
Back
Fore
SplineSet
487 83 m 0
 486 79 483 75 480 72 c 0
 436 32 363 0 302 0 c 0
 149 0 77 114 103 238 c 0
 132 376 247 499 382 499 c 0
 509 499 548 413 539 371 c 0
 538 365 530 357 517 350 c 2
 134 155 l 1
 161 74 220 33 308 33 c 0
 356 33 426 60 463 95 c 0
 466 98 470 100 474 100 c 0
 484 100 489 93 487 83 c 0
374 465 m 0
 262 465 162 364 135 237 c 0
 132 225 130 216 130 188 c 1
 506 373 l 1
 495 432 456 465 374 465 c 0
398 589 m 0
 393 589 387 591 384 595 c 2
 296 708 l 2
 293 712 291 715 293 720 c 0
 294 729 304 738 313 738 c 0
 318 738 322 736 325 733 c 2
 410 638 l 1
 555 734 l 2
 558 736 562 738 566 738 c 0
 576 738 582 729 581 720 c 0
 579 715 575 710 571 707 c 2
 412 594 l 2
 407 591 402 589 398 589 c 0
EndSplineSet
EndChar
StartChar: Lacute
Encoding: 313 313 228
Width: 467
Flags: MW
HStem: 12 38 880 20G<498 508.5>
LayerCount: 2
Back
Fore
SplineSet
448 25 m 2
 87 0 l 2
 76 -1 69 7 72 19 c 2
 208 662 l 2
 211 673 220 681 231 681 c 0
 241 681 248 673 245 662 c 2
 113 38 l 1
 454 62 l 2
 465 63 472 54 470 43 c 0
 468 34 459 26 448 25 c 2
510 857 m 2
 346 759 l 2
 338 754 332 752 328 752 c 0
 319 752 313 760 315 769 c 0
 316 772 317 777 324 782 c 2
 474 886 l 2
 484 893 493 900 503 900 c 0
 514 900 524 887 521 873 c 0
 520 866 518 862 510 857 c 2
EndSplineSet
EndChar
StartChar: lacute
Encoding: 314 314 244
Width: 216
Flags: MW
HStem: 0 21G<105.5 114.5> 880 20G<375 385.5>
LayerCount: 2
Back
Fore
SplineSet
273 680 m 2
 132 16 l 2
 130 7 119 0 110 0 c 0
 101 0 92 7 94 16 c 2
 235 680 l 2
 237 690 248 698 258 698 c 0
 268 698 275 690 273 680 c 2
387 857 m 2
 223 759 l 2
 215 754 209 752 205 752 c 0
 196 752 190 760 192 769 c 0
 193 772 194 777 201 782 c 2
 351 886 l 2
 361 893 370 900 380 900 c 0
 391 900 401 887 398 873 c 0
 397 866 395 862 387 857 c 2
EndSplineSet
EndChar
StartChar: Lcaron
Encoding: 317 317 206
Width: 467
Flags: MW
HStem: 12 38 872 20G<213.5 220.5 469 476>
LayerCount: 2
Back
Fore
SplineSet
302 743 m 0
 297 743 292 745 289 749 c 2
 201 862 l 2
 198 866 196 869 197 874 c 0
 199 883 209 892 218 892 c 0
 223 892 227 890 230 887 c 2
 315 792 l 1
 459 888 l 2
 463 890 467 892 471 892 c 0
 481 892 487 883 485 874 c 0
 484 869 480 864 476 861 c 2
 316 748 l 2
 312 745 306 743 302 743 c 0
448 25 m 2
 87 0 l 2
 76 -1 69 7 72 19 c 2
 208 662 l 2
 211 673 220 681 231 681 c 0
 241 681 248 673 245 662 c 2
 113 38 l 1
 454 62 l 2
 465 63 472 54 470 43 c 0
 468 34 459 26 448 25 c 2
EndSplineSet
EndChar
StartChar: lcaron
Encoding: 318 318 217
Width: 247
Flags: MW
HStem: 0 21G<105.5 114.5> 678 20G<253 263 378 392.5>
LayerCount: 2
Back
Fore
SplineSet
313 563 m 2
 355 634 l 1
 348 642 345 653 347 662 c 0
 351 682 370 698 386 698 c 0
 399 698 406 686 404 675 c 0
 400 657 396 650 373 612 c 0
 348 572 331 543 320 543 c 0
 313 543 308 548 309 553 c 0
 310 556 310 558 313 563 c 2
273 680 m 2
 132 16 l 2
 130 7 119 0 110 0 c 0
 101 0 92 7 94 16 c 2
 235 680 l 2
 237 690 248 698 258 698 c 0
 268 698 275 690 273 680 c 2
EndSplineSet
EndChar
StartChar: Lslash
Encoding: 321 321 204
Width: 518
Flags: MW
HStem: 12 38 661 20G<278 288.5>
LayerCount: 2
Back
Fore
SplineSet
90 298 m 2
 197 358 l 1
 261 662 l 2
 264 673 273 681 283 681 c 0
 294 681 301 673 298 662 c 2
 238 379 l 1
 321 427 l 2
 325 429 329 430 332 430 c 0
 343 430 350 421 348 410 c 0
 346 404 342 398 336 395 c 2
 229 335 l 1
 166 38 l 1
 507 62 l 2
 515 63 523 55 522 44 c 0
 519 34 511 26 501 25 c 2
 138 0 l 2
 129 -1 122 9 125 19 c 2
 187 313 l 1
 105 266 l 2
 102 264 95 263 92 263 c 0
 84 263 76 269 78 280 c 0
 80 287 83 294 90 298 c 2
EndSplineSet
EndChar
StartChar: lslash
Encoding: 322 322 215
Width: 274
Flags: MW
HStem: 0 21G<143.5 152.5> 678 20G<291 301>
LayerCount: 2
Back
Fore
SplineSet
104 301 m 2
 204 357 l 1
 273 680 l 2
 275 690 286 698 296 698 c 0
 306 698 313 690 311 680 c 2
 247 381 l 1
 338 432 l 2
 342 434 345 435 349 435 c 0
 360 435 367 425 365 415 c 0
 363 408 359 403 354 400 c 2
 238 336 l 1
 170 16 l 2
 168 7 157 0 148 0 c 0
 139 0 130 7 132 16 c 2
 195 311 l 1
 119 268 l 2
 114 265 111 265 107 265 c 0
 99 265 89 272 92 283 c 0
 93 291 97 297 104 301 c 2
EndSplineSet
EndChar
StartChar: Nacute
Encoding: 323 323 235
Width: 609
Flags: MW
HStem: 0 21G<81 91 528.5 537.5> 662 20G 880 20G<585 595.5>
LayerCount: 2
Back
Fore
SplineSet
518 7 m 2
 234 603 l 1
 109 19 l 2
 106 8 96 0 86 0 c 0
 76 0 69 8 72 19 c 2
 209 662 l 2
 212 673 220 681 230 681 c 0
 238 681 244 678 247 670 c 2
 530 77 l 1
 655 664 l 2
 657 674 666 682 676 682 c 0
 687 682 694 674 692 664 c 2
 555 19 l 2
 552 8 543 0 532 0 c 0
 525 0 520 2 518 7 c 2
597 857 m 2
 433 759 l 2
 425 754 419 752 415 752 c 0
 406 752 400 760 402 769 c 0
 403 772 404 777 411 782 c 2
 561 886 l 2
 571 893 580 900 590 900 c 0
 601 900 611 887 608 873 c 0
 607 866 605 862 597 857 c 2
EndSplineSet
EndChar
StartChar: nacute
Encoding: 324 324 251
Width: 525
Flags: MW
HStem: 0 21G<81 108> 464 35<402 477> 715 20G<541 551.5>
LayerCount: 2
Back
Fore
SplineSet
207 482 m 2
 161 265 l 1
 205 380 335 499 439 499 c 0
 559 499 551 388 500 148 c 0
 491 108 483 66 472 20 c 0
 469 9 461 0 451 0 c 0
 442 0 434 8 437 19 c 0
 445 65 454 106 462 145 c 0
 506 357 528 464 426 464 c 0
 378 464 312 438 232 334 c 0
 184 269 144 179 127 105 c 2
 108 21 l 2
 105 9 98 0 86 0 c 0
 76 0 69 7 71 17 c 2
 170 482 l 2
 172 492 182 500 192 500 c 0
 203 500 209 492 207 482 c 2
553 692 m 2
 389 594 l 2
 381 589 375 587 371 587 c 0
 362 587 356 595 358 604 c 0
 359 607 360 612 367 617 c 2
 517 721 l 2
 527 728 536 735 546 735 c 0
 557 735 567 722 564 708 c 0
 563 701 561 697 553 692 c 2
EndSplineSet
EndChar
StartChar: Ncaron
Encoding: 327 327 236
Width: 609
Flags: MW
HStem: 0 21G<81 91 528.5 537.5> 662 20G 872 20G<376.5 383.5 632 639>
LayerCount: 2
Back
Fore
SplineSet
532 0 m 0
 525 0 520 2 518 7 c 2
 234 603 l 1
 109 19 l 2
 106 8 96 0 86 0 c 0
 76 0 69 8 72 19 c 2
 209 662 l 2
 211 672 220 681 230 681 c 0
 235 681 241 676 246 673 c 2
 530 77 l 1
 655 664 l 2
 657 674 666 682 676 682 c 0
 687 682 694 674 692 664 c 2
 555 19 l 2
 552 8 543 0 532 0 c 0
465 743 m 0
 460 743 455 745 452 749 c 2
 364 862 l 2
 361 866 359 869 360 874 c 0
 362 883 372 892 381 892 c 0
 386 892 390 890 393 887 c 2
 478 792 l 1
 622 888 l 2
 626 890 630 892 634 892 c 0
 644 892 650 883 648 874 c 0
 647 869 643 864 639 861 c 2
 479 748 l 2
 475 745 469 743 465 743 c 0
EndSplineSet
EndChar
StartChar: ncaron
Encoding: 328 328 252
Width: 525
Flags: MW
HStem: 0 21G<81 108> 464 35<402 477> 718 20G<322.5 329.5 578 585>
LayerCount: 2
Back
Fore
SplineSet
412 589 m 0
 407 589 401 591 398 595 c 2
 310 708 l 2
 307 712 305 715 307 720 c 0
 308 729 318 738 327 738 c 0
 332 738 336 736 339 733 c 2
 424 638 l 1
 569 734 l 2
 572 736 576 738 580 738 c 0
 590 738 596 729 595 720 c 0
 593 715 589 710 585 707 c 2
 426 594 l 2
 421 591 416 589 412 589 c 0
207 482 m 2
 161 265 l 1
 205 380 335 499 439 499 c 0
 559 499 551 388 500 148 c 0
 491 108 483 66 472 20 c 0
 469 9 461 0 451 0 c 0
 442 0 434 8 437 19 c 0
 445 65 454 106 462 145 c 0
 506 357 528 464 426 464 c 0
 378 464 312 438 232 334 c 0
 184 269 144 179 127 105 c 2
 108 21 l 2
 105 9 98 0 86 0 c 0
 76 0 69 7 71 17 c 2
 170 482 l 2
 172 492 182 500 192 500 c 0
 203 500 209 492 207 482 c 2
EndSplineSet
EndChar
StartChar: Ohungarumlaut
Encoding: 336 336 237
Width: 650
Flags: MW
HStem: -2 33<252.5 380 252.5 385> 649 33<418 545.5> 741 148<594 595>
LayerCount: 2
Back
Fore
SplineSet
307 -2 m 0
 164 -2 92 142 128 312 c 0
 171 513 340 682 496 682 c 0
 638 682 712 540 676 368 c 0
 633 167 463 -2 307 -2 c 0
481 649 m 0
 350 649 202 500 162 312 c 0
 129 159 191 31 314 31 c 0
 446 31 602 183 641 364 c 0
 671 508 610 649 481 649 c 0
607 846 m 2
 443 748 l 2
 437 744 430 741 426 741 c 0
 417 741 411 749 413 758 c 0
 413 761 414 766 424 773 c 2
 571 875 l 2
 580 881 590 889 598 889 c 0
 611 889 621 876 618 862 c 0
 616 856 615 851 607 846 c 2
768 842 m 2
 609 748 l 2
 604 744 597 741 593 741 c 0
 583 741 578 749 580 758 c 0
 580 761 581 766 590 772 c 2
 737 875 l 2
 747 881 757 889 764 889 c 0
 778 889 787 876 784 862 c 0
 782 856 780 849 768 842 c 2
EndSplineSet
EndChar
StartChar: ohungarumlaut
Encoding: 337 337 253
Width: 525
Flags: MW
HStem: 0 29<209.5 308 209.5 315> 471 29<328 425.5> 586 148<435 452.5>
LayerCount: 2
Back
Fore
SplineSet
252 0 m 0
 138 0 73 103 100 229 c 0
 131 376 264 500 390 500 c 0
 503 500 567 395 541 271 c 0
 510 123 378 0 252 0 c 0
379 471 m 0
 277 471 166 358 139 231 c 0
 116 123 161 29 258 29 c 0
 358 29 474 140 501 266 c 0
 524 375 472 471 379 471 c 0
454 691 m 2
 291 593 l 2
 284 589 277 586 273 586 c 0
 264 586 258 594 260 603 c 0
 260 606 261 611 271 618 c 2
 419 720 l 2
 427 726 438 734 446 734 c 0
 459 734 468 721 465 707 c 0
 464 701 462 696 454 691 c 2
616 687 m 2
 457 593 l 2
 451 589 444 586 440 586 c 0
 430 586 425 594 427 603 c 0
 427 606 428 611 437 617 c 2
 585 720 l 2
 594 726 605 734 612 734 c 0
 626 734 634 721 631 707 c 0
 630 701 627 694 616 687 c 2
EndSplineSet
EndChar
StartChar: OE
Encoding: 338 338 122
Width: 1088
Flags: MW
HStem: 0 38<581 1033 613 1025> 334 38<684 1047 675 1056> 644 38<741 1163 741 741> 664 20G
LayerCount: 2
Back
Fore
SplineSet
571 20 m 2xe0
 610 209 l 1
 541 89 404 0 305 0 c 0
 162 0 89 144 125 314 c 0
 168 515 338 684 493 684 c 0
 571 684 660 608 672 496 c 1
 708 664 l 2xd0
 710 674 720 682 730 682 c 2
 1171 682 l 2xe0
 1182 682 1189 674 1187 664 c 0xd0
 1184 653 1174 644 1163 644 c 2
 741 644 l 1
 684 372 l 1
 1056 372 l 2
 1066 372 1072 364 1070 353 c 0
 1067 343 1057 334 1047 334 c 2
 675 334 l 1
 613 38 l 1
 1033 38 l 2
 1044 38 1050 30 1048 20 c 0
 1045 9 1036 0 1025 0 c 2
 586 0 l 2
 576 0 568 9 571 20 c 2xe0
312 33 m 0
 474 33 608 225 638 366 c 0
 669 510 608 651 479 651 c 0
 347 651 199 502 159 314 c 0
 127 161 188 33 312 33 c 0
EndSplineSet
EndChar
StartChar: oe
Encoding: 339 339 123
Width: 867
Flags: MW
HStem: 0 27<203.5 282> 455 27 463 20G<308 411.5>
LayerCount: 2
Back
Fore
SplineSet
480 244 m 0xc0
 508 372 452 455 364 455 c 0
 265 455 159 344 133 223 c 0
 108 108 160 27 247 27 c 0
 354 27 461 153 480 244 c 0xc0
674 0 m 0
 576 0 507 50 478 152 c 1
 411 59 322 0 242 0 c 0
 132 0 69 100 94 219 c 0
 121 346 241 483 375 483 c 0xa0
 448 483 507 423 525 339 c 1
 593 436 687 482 758 482 c 0
 876 482 915 400 906 358 c 0
 904 352 898 345 883 338 c 2
 512 147 l 1
 537 65 599 33 688 33 c 0
 737 33 795 60 832 95 c 0
 835 98 839 100 844 100 c 0
 853 100 858 93 856 83 c 0
 855 79 852 75 849 72 c 0
 806 32 734 0 674 0 c 0
751 448 m 0
 643 448 540 355 513 228 c 0
 511 217 508 207 508 179 c 1
 874 362 l 1
 856 424 823 448 751 448 c 0
EndSplineSet
EndChar
StartChar: Racute
Encoding: 340 340 226
Width: 587
Flags: MW
HStem: 0 21G<81 91 520.5 530.5> 258 27 651 37<295 400> 880 20G<569 579.5>
LayerCount: 2
Back
Fore
SplineSet
546 27 m 0
 547 24 547 22 547 19 c 0
 544 9 537 0 524 0 c 0
 517 0 513 5 510 11 c 0
 423 241 313 258 268 258 c 0
 247 258 197 253 157 247 c 1
 109 19 l 2
 106 8 96 0 86 0 c 0
 76 0 69 8 72 19 c 2
 207 657 l 2
 214 689 228 688 312 688 c 0
 537 688 647 613 619 482 c 0
 596 373 479 311 367 276 c 1
 411 246 507 161 546 27 c 0
242 649 m 1
 165 285 l 1
 322 288 552 342 582 482 c 0
 606 594 500 651 300 651 c 0
 290 651 258 650 242 649 c 1
581 857 m 2
 417 759 l 2
 409 754 403 752 399 752 c 0
 390 752 384 760 386 769 c 0
 387 772 388 777 395 782 c 2
 545 886 l 2
 555 893 564 900 574 900 c 0
 585 900 595 887 592 873 c 0
 591 866 589 862 581 857 c 2
EndSplineSet
EndChar
StartChar: Rcaron
Encoding: 344 344 238
Width: 587
Flags: MW
HStem: 0 21G<81 91 520.5 530.5> 258 27 651 37<295 400> 651 241<353.5 360.5 353.5 400>
LayerCount: 2
Back
Fore
SplineSet
442 743 m 0xd0
 437 743 432 745 429 749 c 2
 341 862 l 2
 338 866 336 869 337 874 c 0
 339 883 349 892 358 892 c 0
 363 892 367 890 370 887 c 2
 455 792 l 1
 599 888 l 2
 603 890 607 892 611 892 c 0
 621 892 627 883 625 874 c 0
 624 869 620 864 616 861 c 2
 456 748 l 2
 452 745 446 743 442 743 c 0xd0
546 27 m 0
 547 24 547 22 547 19 c 0
 544 9 537 0 524 0 c 0
 517 0 513 5 510 11 c 0
 423 241 313 258 268 258 c 0
 247 258 197 253 157 247 c 1
 109 19 l 2
 106 8 96 0 86 0 c 0
 76 0 69 8 72 19 c 2
 207 657 l 2
 214 689 228 688 312 688 c 0xe0
 537 688 647 613 619 482 c 0
 596 373 479 311 367 276 c 1
 411 246 507 161 546 27 c 0
242 649 m 1
 165 285 l 1
 322 288 552 342 582 482 c 0
 606 594 500 651 300 651 c 0
 290 651 258 650 242 649 c 1
EndSplineSet
EndChar
StartChar: rcaron
Encoding: 345 345 254
Width: 406
Flags: MW
HStem: 0 21G<82.5 92.5> 466 36<360.5 412.5> 718 20G<271.5 278.5 527 534>
LayerCount: 2
Back
Fore
SplineSet
361 589 m 0
 356 589 350 591 347 595 c 2
 259 708 l 2
 256 712 254 715 256 720 c 0
 257 729 267 738 276 738 c 0
 281 738 285 736 288 733 c 2
 373 638 l 1
 518 734 l 2
 521 736 525 738 529 738 c 0
 539 738 545 729 544 720 c 0
 542 715 538 710 534 707 c 2
 375 594 l 2
 370 591 365 589 361 589 c 0
209 481 m 2
 179 342 l 1
 215 409 317 502 404 502 c 0
 451 502 476 481 459 413 c 1
 456 396 l 2
 453 385 445 377 435 377 c 0
 421 377 418 386 420 397 c 2
 422 407 l 2
 428 436 438 466 387 466 c 0
 333 466 274 422 223 368 c 0
 196 340 168 289 160 253 c 2
 109 17 l 2
 107 7 98 0 87 0 c 0
 78 0 70 7 72 17 c 2
 171 481 l 2
 173 491 183 499 193 499 c 0
 204 499 211 491 209 481 c 2
EndSplineSet
EndChar
StartChar: Scedilla
Encoding: 350 350 209
Width: 588
Flags: MW
HStem: -209 22<249.5 281 249.5 282.5> -64 23<281 307> 0 34<283 304 283 283> 650 32<415 501.5>
LayerCount: 2
Back
Fore
SplineSet
270 1 m 1
 176 14 109 64 95 138 c 0
 94 141 94 147 95 151 c 0
 97 162 109 171 120 171 c 0
 131 171 136 165 137 156 c 0
 148 76 234 34 310 34 c 0
 391 34 506 77 529 188 c 0
 538 227 540 295 380 341 c 0
 289 367 189 419 209 515 c 0
 236 642 359 682 471 682 c 0
 542 682 659 659 647 553 c 0
 645 543 637 534 626 534 c 0
 615 534 610 541 611 549 c 0
 618 619 541 650 462 650 c 0
 368 650 271 619 250 520 c 0
 236 455 289 410 395 379 c 0
 532 338 592 278 572 188 c 0
 545 61 406 0 304 0 c 2
 283 0 l 1
 273 -41 l 1
 344 -41 371 -78 361 -123 c 0
 351 -170 306 -209 259 -209 c 0
 228 -209 191 -189 197 -163 c 0
 198 -157 204 -154 209 -154 c 0
 214 -154 216 -159 219 -164 c 0
 226 -174 235 -187 264 -187 c 0
 298 -187 331 -159 338 -125 c 0
 345 -91 324 -64 290 -64 c 0
 272 -64 260 -70 252 -75 c 0
 247 -78 244 -79 242 -79 c 0
 236 -79 232 -75 233 -69 c 0
 234 -65 265 -8 270 1 c 1
EndSplineSet
EndChar
StartChar: scedilla
Encoding: 351 351 221
Width: 448
Flags: MW
HStem: -209 22<187.5 219 187.5 220.5> -64 23<219 245> -2 34<220 232 220 220> 468 31<322 392.5>
LayerCount: 2
Back
Fore
SplineSet
207 0 m 1
 110 14 73 93 80 123 c 0
 82 132 91 141 100 141 c 0
 109 141 113 135 114 128 c 0
 121 69 167 32 239 32 c 0
 340 32 387 102 394 135 c 0
 405 188 387 217 288 249 c 0
 193 280 151 319 166 386 c 0
 185 476 287 499 357 499 c 0
 454 499 499 457 485 393 c 0
 480 369 471 355 458 355 c 0
 446 355 442 364 444 373 c 0
 445 378 448 382 450 394 c 0
 460 439 432 468 353 468 c 0
 272 468 210 438 198 385 c 0
 184 317 253 296 295 282 c 0
 382 252 449 230 429 134 c 0
 415 70 335 -2 232 -2 c 2
 220 -2 l 1
 211 -41 l 1
 282 -41 309 -78 299 -123 c 0
 289 -170 244 -209 197 -209 c 0
 166 -209 129 -189 135 -163 c 0
 136 -157 142 -154 147 -154 c 0
 152 -154 154 -159 157 -164 c 0
 164 -174 173 -187 202 -187 c 0
 236 -187 269 -159 276 -125 c 0
 283 -91 262 -64 228 -64 c 0
 210 -64 198 -70 190 -75 c 0
 185 -78 182 -79 180 -79 c 0
 174 -79 170 -75 171 -69 c 0
 172 -65 202 -9 207 0 c 1
EndSplineSet
EndChar
StartChar: Scaron
Encoding: 352 352 136
Width: 588
Flags: MW
HStem: 0 34<272 350.5 272 355> 650 32<415 501.5> 881 20G<394.5 401.5 650 657>
LayerCount: 2
Back
Fore
SplineSet
483 752 m 0
 478 752 473 754 470 758 c 2
 382 871 l 2
 378 875 377 878 378 883 c 0
 380 892 390 901 399 901 c 0
 404 901 408 899 411 896 c 2
 496 801 l 1
 640 897 l 2
 644 899 648 901 652 901 c 0
 662 901 668 892 666 883 c 0
 665 878 661 873 656 870 c 2
 497 757 l 2
 493 754 487 752 483 752 c 0
395 379 m 0
 532 338 592 278 572 188 c 0
 545 61 406 0 304 0 c 0
 191 0 111 56 95 138 c 0
 94 141 94 147 95 151 c 0
 97 162 109 171 120 171 c 0
 131 171 136 165 137 156 c 0
 148 76 234 34 310 34 c 0
 391 34 506 77 529 188 c 0
 538 227 540 295 380 341 c 0
 289 367 189 419 209 515 c 0
 236 642 359 682 471 682 c 0
 542 682 659 659 647 553 c 0
 645 543 637 534 626 534 c 0
 615 534 610 541 611 549 c 0
 618 619 541 650 462 650 c 0
 368 650 271 619 250 520 c 0
 236 455 289 410 395 379 c 0
EndSplineSet
EndChar
StartChar: scaron
Encoding: 353 353 137
Width: 448
Flags: MW
HStem: -2 34<203 283.5> 468 31<322 392.5> 718 20G<298.5 305.5 554 561>
LayerCount: 2
Back
Fore
SplineSet
444 373 m 0
 445 378 448 382 450 394 c 0
 460 439 432 468 353 468 c 0
 272 468 210 438 198 385 c 0
 184 317 253 296 295 282 c 0
 382 252 449 230 429 134 c 0
 415 70 335 -2 232 -2 c 0
 111 -2 73 91 80 123 c 0
 82 132 91 141 100 141 c 0
 109 141 113 135 114 128 c 0
 121 69 167 32 239 32 c 0
 340 32 387 102 394 135 c 0
 405 188 387 217 288 249 c 0
 193 280 151 319 166 386 c 0
 185 476 287 499 357 499 c 0
 454 499 499 457 485 393 c 0
 480 369 471 355 458 355 c 0
 446 355 442 364 444 373 c 0
388 589 m 0
 383 589 377 591 374 595 c 2
 286 708 l 2
 283 712 281 715 283 720 c 0
 284 729 294 738 303 738 c 0
 308 738 312 736 315 733 c 2
 400 638 l 1
 545 734 l 2
 548 736 552 738 556 738 c 0
 566 738 572 729 571 720 c 0
 569 715 565 710 561 707 c 2
 402 594 l 2
 397 591 392 589 388 589 c 0
EndSplineSet
EndChar
StartChar: uni0162
Encoding: 354 354 241
Width: 512
Flags: MW
HStem: -204 21G<182.5 191.5> 0 21G<247.5 258> 644 37<161 634 174 370 407 626 407 407>
LayerCount: 2
Back
Fore
SplineSet
179 -184 m 2
 221 -113 l 1
 214 -105 212 -94 213 -85 c 0
 218 -65 236 -49 252 -49 c 0
 265 -49 273 -61 270 -72 c 0
 266 -90 262 -97 239 -135 c 0
 214 -175 197 -204 186 -204 c 0
 179 -204 174 -199 175 -194 c 0
 176 -191 176 -189 179 -184 c 2
174 681 m 2
 634 681 l 2
 644 681 652 673 649 662 c 0
 647 652 636 644 626 644 c 2
 407 644 l 1
 275 19 l 2
 272 8 263 0 253 0 c 0
 242 0 235 8 238 19 c 2
 370 644 l 1
 166 644 l 2
 156 644 149 652 151 662 c 0
 154 673 164 681 174 681 c 2
EndSplineSet
EndChar
StartChar: uni0163
Encoding: 355 355 257
Width: 377
Flags: MW
HStem: -204 21G<122.5 131.5> -1 21G<186 196> 463 37<134 279 149 271 317 442 149 309> 659 20G<331 342>
LayerCount: 2
Back
Fore
SplineSet
119 -184 m 2
 161 -113 l 1
 154 -105 152 -94 153 -85 c 0
 158 -65 176 -49 192 -49 c 0
 205 -49 213 -61 210 -72 c 0
 206 -90 202 -97 179 -135 c 0
 154 -175 137 -204 126 -204 c 0
 119 -204 114 -199 115 -194 c 0
 116 -191 116 -189 119 -184 c 2
317 500 m 1
 450 500 l 2
 461 500 467 492 465 481 c 0
 463 471 453 463 442 463 c 2
 309 463 l 1
 214 17 l 2
 212 7 201 -1 191 -1 c 0
 181 -1 174 7 176 17 c 2
 271 463 l 1
 139 463 l 2
 129 463 122 471 124 481 c 0
 126 493 138 500 149 500 c 2
 279 500 l 1
 313 660 l 2
 315 670 326 679 336 679 c 0
 348 679 353 670 351 660 c 2
 317 500 l 1
EndSplineSet
EndChar
StartChar: Tcaron
Encoding: 356 356 210
Width: 512
Flags: MW
HStem: 0 21G<247.5 258> 644 37<161 634 174 370 407 626 407 407> 644 248<161 334.5 327.5 334.5 327.5 370 583 590 327.5 407>
LayerCount: 2
Back
Fore
SplineSet
416 743 m 0xa0
 411 743 406 745 403 749 c 2
 315 862 l 2
 312 866 310 869 311 874 c 0
 313 883 323 892 332 892 c 0
 337 892 341 890 344 887 c 2
 429 792 l 1
 573 888 l 2
 577 890 581 892 585 892 c 0
 595 892 601 883 599 874 c 0
 598 869 594 864 590 861 c 2
 430 748 l 2
 426 745 420 743 416 743 c 0xa0
174 681 m 2xc0
 634 681 l 2
 644 681 652 673 649 662 c 0
 647 652 636 644 626 644 c 2
 407 644 l 1
 275 19 l 2
 272 8 263 0 253 0 c 0
 242 0 235 8 238 19 c 2
 370 644 l 1
 166 644 l 2
 156 644 149 652 151 662 c 0
 154 673 164 681 174 681 c 2xc0
EndSplineSet
EndChar
StartChar: tcaron
Encoding: 357 357 222
Width: 400
Flags: MW
HStem: -1 21G<186 196> 463 37<134 279 149 271 317 442 149 309> 678 20G<503 517.5>
LayerCount: 2
Back
Fore
SplineSet
438 563 m 2
 480 634 l 1
 473 642 470 653 472 662 c 0
 476 682 495 698 511 698 c 0
 524 698 531 686 529 675 c 0
 525 657 521 650 498 612 c 0
 473 572 456 543 445 543 c 0
 438 543 433 548 434 553 c 0
 435 556 435 558 438 563 c 2
317 500 m 1
 450 500 l 2
 461 500 467 492 465 481 c 0
 463 471 453 463 442 463 c 2
 309 463 l 1
 214 17 l 2
 212 7 201 -1 191 -1 c 0
 181 -1 174 7 176 17 c 2
 271 463 l 1
 139 463 l 2
 129 463 122 471 124 481 c 0
 126 493 138 500 149 500 c 2
 279 500 l 1
 313 660 l 2
 315 670 326 679 336 679 c 0
 348 679 353 670 351 660 c 2
 317 500 l 1
EndSplineSet
EndChar
StartChar: Uring
Encoding: 366 366 239
Width: 673
Flags: MW
HStem: 0 31<250 415.5> 743 27<486.5 530> 920 28<532.5 580>
LayerCount: 2
Back
Fore
SplineSet
752 653 m 0
 730 527 708 400 663 270 c 0
 608 110 502 0 329 0 c 0
 171 0 104 125 147 367 c 0
 165 474 188 570 207 655 c 0
 210 671 218 681 232 681 c 0
 247 681 248 670 245 654 c 0
 224 565 202 474 185 381 c 0
 160 236 151 31 336 31 c 0
 496 31 583 139 628 277 c 0
 667 397 687 518 715 651 c 0
 718 667 722 681 740 681 c 0
 755 681 755 668 752 653 c 0
498 743 m 0
 439 743 400 785 412 838 c 0
 425 902 500 948 565 948 c 0
 621 948 662 906 651 852 c 0
 637 787 562 743 498 743 c 0
555 920 m 0
 493 920 442 873 435 838 c 0
 425 795 460 770 513 770 c 0
 553 770 617 801 627 850 c 0
 635 885 605 920 555 920 c 0
EndSplineSet
EndChar
StartChar: uring
Encoding: 367 367 255
Width: 502
Flags: MW
HStem: -3 30<164 253.5> 0 21G<417.5 430> 587 27<378 422> 766 28<424 472.5>
LayerCount: 2
Back
Fore
SplineSet
390 587 m 0xb0
 330 587 290 629 302 683 c 0
 315 747 391 794 457 794 c 0
 514 794 555 751 544 697 c 0
 530 631 454 587 390 587 c 0xb0
447 766 m 0
 384 766 332 718 325 683 c 0
 316 640 351 614 405 614 c 0
 446 614 510 645 520 695 c 0
 528 730 498 766 447 766 c 0
415 115 m 0
 428 127 436 143 441 167 c 2
 510 483 l 2
 512 492 523 500 532 500 c 0
 542 500 549 492 547 483 c 2
 449 19 l 2
 446 8 436 0 424 0 c 0x70
 411 0 404 10 407 24 c 2
 419 82 l 1
 376 34 292 -3 215 -3 c 0
 67 -3 99 144 130 293 c 0
 146 372 168 435 181 474 c 0
 189 496 197 500 206 500 c 0
 216 500 223 493 220 483 c 0
 219 479 217 471 214 462 c 0
 202 427 181 370 165 294 c 0
 137 162 107 27 221 27 c 0
 318 27 386 89 415 115 c 0
EndSplineSet
EndChar
StartChar: Uhungarumlaut
Encoding: 368 368 240
Width: 673
Flags: MW
HStem: 0 31<250 415.5> 741 148<545 546>
LayerCount: 2
Back
Fore
SplineSet
752 653 m 0
 730 527 708 400 663 270 c 0
 608 110 502 0 329 0 c 0
 171 0 104 125 147 367 c 0
 165 474 188 570 207 655 c 0
 210 671 218 681 232 681 c 0
 247 681 248 670 245 654 c 0
 224 565 202 474 185 381 c 0
 160 236 151 31 336 31 c 0
 496 31 583 139 628 277 c 0
 667 397 687 518 715 651 c 0
 718 667 722 681 740 681 c 0
 755 681 755 668 752 653 c 0
558 846 m 2
 394 748 l 2
 388 744 381 741 377 741 c 0
 368 741 362 749 364 758 c 0
 364 761 365 766 375 773 c 2
 522 875 l 2
 531 881 541 889 549 889 c 0
 562 889 572 876 569 862 c 0
 567 856 566 851 558 846 c 2
719 842 m 2
 560 748 l 2
 555 744 548 741 544 741 c 0
 534 741 529 749 531 758 c 0
 531 761 532 766 541 772 c 2
 688 875 l 2
 698 881 708 889 715 889 c 0
 729 889 738 876 735 862 c 0
 733 856 731 849 719 842 c 2
EndSplineSet
EndChar
StartChar: uhungarumlaut
Encoding: 369 369 256
Width: 502
Flags: MW
HStem: -3 30<164 253.5> 0 21G<417.5 430> 586 148<425 442.5>
LayerCount: 2
Back
Fore
SplineSet
415 115 m 0xa0
 428 127 436 143 441 167 c 2
 510 483 l 2
 512 492 523 500 532 500 c 0
 542 500 549 492 547 483 c 2
 449 19 l 2
 446 8 436 0 424 0 c 0x60
 411 0 404 10 407 24 c 2
 419 82 l 1
 376 34 292 -3 215 -3 c 0
 67 -3 99 144 130 293 c 0
 146 372 168 435 181 474 c 0
 189 496 197 500 206 500 c 0
 216 500 223 493 220 483 c 0
 219 479 217 471 214 462 c 0
 202 427 181 370 165 294 c 0
 137 162 107 27 221 27 c 0
 318 27 386 89 415 115 c 0xa0
444 691 m 2
 281 593 l 2
 274 589 267 586 263 586 c 0
 254 586 248 594 250 603 c 0
 250 606 251 611 261 618 c 2
 409 720 l 2
 417 726 428 734 436 734 c 0
 449 734 458 721 455 707 c 0
 454 701 452 696 444 691 c 2
606 687 m 2
 447 593 l 2
 441 589 434 586 430 586 c 0
 420 586 415 594 417 603 c 0
 417 606 418 611 427 617 c 2
 575 720 l 2
 584 726 595 734 602 734 c 0
 616 734 624 721 621 707 c 0
 620 701 617 694 606 687 c 2
EndSplineSet
EndChar
StartChar: Ydieresis
Encoding: 376 376 151
Width: 583
Flags: MW
HStem: 0 21G<185 193.5> 745 65<384.5 388 548 552>
LayerCount: 2
Back
Fore
SplineSet
425 780 m 0
 421 760 400 745 376 745 c 0
 356 745 342 757 346 775 c 0
 350 793 373 810 396 810 c 0
 415 810 429 796 425 780 c 0
589 780 m 0
 585 760 564 745 540 745 c 0
 520 745 506 757 510 775 c 0
 514 793 536 810 560 810 c 0
 579 810 593 796 589 780 c 0
715 681 m 0
 725 681 733 674 731 664 c 0
 730 660 728 656 720 646 c 2
 206 9 l 2
 201 2 196 0 191 0 c 0
 179 0 172 9 174 17 c 0
 175 23 178 27 182 32 c 2
 326 210 l 1
 163 649 l 2
 162 653 161 659 162 664 c 0
 164 675 175 681 185 681 c 0
 190 681 196 678 197 672 c 2
 356 246 l 1
 698 672 l 2
 703 678 709 681 715 681 c 0
EndSplineSet
EndChar
StartChar: Zacute
Encoding: 377 377 211
Width: 629
Flags: MW
HStem: 0 41<67.5 558 106 550> 638 42<217 707 231 673> 880 20G<602 612.5>
LayerCount: 2
Back
Fore
SplineSet
106 41 m 1
 558 41 l 2
 568 41 575 32 573 21 c 0
 570 9 560 0 550 0 c 2
 74 0 l 2
 61 0 52 8 54 22 c 0
 55 28 59 35 64 40 c 2
 673 638 l 1
 222 638 l 2
 212 638 204 647 207 659 c 0
 209 671 221 680 231 680 c 2
 707 680 l 2
 720 680 729 670 726 657 c 0
 725 652 721 645 717 641 c 2
 106 41 l 1
614 857 m 2
 450 759 l 2
 442 754 436 752 432 752 c 0
 423 752 417 760 419 769 c 0
 420 772 421 777 428 782 c 2
 578 886 l 2
 588 893 597 900 607 900 c 0
 618 900 628 887 625 873 c 0
 624 866 622 862 614 857 c 2
EndSplineSet
EndChar
StartChar: zacute
Encoding: 378 378 223
Width: 499
Flags: MW
HStem: -1 37<111 438> 463 37<175 540 188 498> 715 20G<505 515.5>
LayerCount: 2
Back
Fore
SplineSet
63 30 m 2
 498 463 l 1
 180 463 l 2
 170 463 164 471 166 481 c 0
 168 492 178 500 188 500 c 2
 540 500 l 2
 550 500 556 492 554 481 c 0
 553 477 551 473 547 470 c 2
 111 36 l 1
 446 36 l 2
 456 36 463 28 461 18 c 0
 459 7 448 -1 438 -1 c 2
 70 -1 l 2
 60 -1 53 7 55 18 c 0
 56 22 58 24 63 30 c 2
517 692 m 2
 353 594 l 2
 345 589 339 587 335 587 c 0
 326 587 320 595 322 604 c 0
 323 607 324 612 331 617 c 2
 481 721 l 2
 491 728 500 735 510 735 c 0
 521 735 531 722 528 708 c 0
 527 701 525 697 517 692 c 2
EndSplineSet
EndChar
StartChar: Zdotaccent
Encoding: 379 379 212
Width: 629
Flags: MW
HStem: 0 41<67.5 558 106 550> 638 42<217 707 231 673> 755 65<499.5 503>
LayerCount: 2
Back
Fore
SplineSet
540 790 m 0
 536 771 515 755 491 755 c 0
 472 755 458 768 461 785 c 0
 465 804 488 820 511 820 c 0
 530 820 544 807 540 790 c 0
106 41 m 1
 558 41 l 2
 568 41 575 32 573 21 c 0
 570 9 560 0 550 0 c 2
 74 0 l 2
 61 0 52 8 54 22 c 0
 55 28 59 35 64 40 c 2
 673 638 l 1
 222 638 l 2
 212 638 204 647 207 659 c 0
 209 671 221 680 231 680 c 2
 707 680 l 2
 720 680 729 670 726 657 c 0
 725 652 721 645 717 641 c 2
 106 41 l 1
EndSplineSet
EndChar
StartChar: zdotaccent
Encoding: 380 380 225
Width: 499
Flags: MW
HStem: -1 37<111 438> 463 37<175 540 188 498> 600 66<400 404>
LayerCount: 2
Back
Fore
SplineSet
442 636 m 0
 437 616 416 600 392 600 c 0
 372 600 358 613 361 630 c 0
 365 649 388 666 412 666 c 0
 431 666 445 652 442 636 c 0
63 30 m 2
 498 463 l 1
 180 463 l 2
 170 463 164 471 166 481 c 0
 168 492 178 500 188 500 c 2
 540 500 l 2
 550 500 556 492 554 481 c 0
 553 477 551 473 547 470 c 2
 111 36 l 1
 446 36 l 2
 456 36 463 28 461 18 c 0
 459 7 448 -1 438 -1 c 2
 70 -1 l 2
 60 -1 53 7 55 18 c 0
 56 22 58 24 63 30 c 2
EndSplineSet
EndChar
StartChar: Zcaron
Encoding: 381 381 144
Width: 629
Flags: MW
HStem: 0 41<67.5 558 106 550> 638 42<217 707 231 673> 872 20G<380.5 387.5 636 643>
LayerCount: 2
Back
Fore
SplineSet
106 41 m 1
 558 41 l 2
 568 41 575 32 573 21 c 0
 570 9 560 0 550 0 c 2
 74 0 l 2
 61 0 52 8 54 22 c 0
 55 28 59 35 64 40 c 2
 673 638 l 1
 222 638 l 2
 212 638 204 647 207 659 c 0
 209 671 221 680 231 680 c 2
 707 680 l 2
 720 680 729 670 726 657 c 0
 725 652 721 645 717 641 c 2
 106 41 l 1
469 743 m 0
 464 743 459 745 456 749 c 2
 368 862 l 2
 365 866 363 869 364 874 c 0
 366 883 376 892 385 892 c 0
 390 892 394 890 397 887 c 2
 482 792 l 1
 626 888 l 2
 630 890 634 892 638 892 c 0
 648 892 654 883 652 874 c 0
 651 869 647 864 643 861 c 2
 483 748 l 2
 479 745 473 743 469 743 c 0
EndSplineSet
EndChar
StartChar: zcaron
Encoding: 382 382 150
Width: 499
Flags: MW
HStem: -1 37<111 438> 463 37<175 540 188 498> 718 20G<326.5 333.5 582 589>
LayerCount: 2
Back
Fore
SplineSet
63 30 m 2
 498 463 l 1
 180 463 l 2
 170 463 164 471 166 481 c 0
 168 492 178 500 188 500 c 2
 540 500 l 2
 550 500 556 492 554 481 c 0
 553 477 551 473 547 470 c 2
 111 36 l 1
 446 36 l 2
 456 36 463 28 461 18 c 0
 459 7 448 -1 438 -1 c 2
 70 -1 l 2
 60 -1 53 7 55 18 c 0
 56 22 58 24 63 30 c 2
416 589 m 0
 411 589 405 591 402 595 c 2
 314 708 l 2
 311 712 309 715 311 720 c 0
 312 729 322 738 331 738 c 0
 336 738 340 736 343 733 c 2
 428 638 l 1
 573 734 l 2
 576 736 580 738 584 738 c 0
 594 738 600 729 599 720 c 0
 597 715 593 710 589 707 c 2
 430 594 l 2
 425 591 420 589 416 589 c 0
EndSplineSet
EndChar
StartChar: caron
Encoding: 711 711 219
Width: 490
Flags: MW
HStem: 589 21G<361.5 366> 718 20G<274.5 281.5 530 537>
LayerCount: 2
Back
Fore
SplineSet
364 589 m 0
 359 589 353 591 350 595 c 2
 262 708 l 2
 259 712 257 715 259 720 c 0
 260 729 270 738 279 738 c 0
 284 738 288 736 291 733 c 2
 376 638 l 1
 521 734 l 2
 524 736 528 738 532 738 c 0
 542 738 548 729 547 720 c 0
 545 715 541 710 537 707 c 2
 378 594 l 2
 373 591 368 589 364 589 c 0
EndSplineSet
EndChar
StartChar: breve
Encoding: 728 728 203
Width: 490
Flags: MW
HStem: 582 28<366 415 366 424.5> 683 20G<537.5 543>
LayerCount: 2
Back
Fore
SplineSet
268 685 m 0
 287 627 345 610 387 610 c 0
 443 610 489 636 523 688 c 0
 528 696 534 703 541 703 c 0
 545 703 547 700 546 696 c 0
 537 653 471 582 378 582 c 0
 263 582 243 669 247 689 c 0
 248 693 250 698 257 698 c 0
 263 698 266 690 268 685 c 0
EndSplineSet
EndChar
StartChar: dotaccent
Encoding: 729 729 258
Width: 490
Flags: MW
HStem: 600 66<382 386>
LayerCount: 2
Back
Fore
SplineSet
425 636 m 0
 420 616 398 600 374 600 c 0
 354 600 341 613 344 630 c 0
 348 649 370 666 394 666 c 0
 413 666 428 652 425 636 c 0
EndSplineSet
EndChar
StartChar: ogonek
Encoding: 731 731 214
Width: 490
Flags: MW
HStem: -206 32<200 228> 7 20G<267 273>
LayerCount: 2
Back
Fore
SplineSet
211 -206 m 0
 154 -206 122 -164 133 -109 c 0
 146 -49 206 -3 258 24 c 0
 260 25 265 27 269 27 c 0
 277 27 281 19 279 10 c 0
 278 5 266 -3 251 -12 c 0
 218 -33 175 -61 164 -110 c 0
 156 -149 181 -174 219 -174 c 0
 242 -174 266 -166 292 -150 c 0
 295 -148 298 -147 301 -147 c 0
 308 -147 315 -154 313 -162 c 0
 308 -186 245 -206 211 -206 c 0
EndSplineSet
EndChar
StartChar: hungarumlaut
Encoding: 733 733 224
Width: 490
Flags: MW
HStem: 587 148<378 395.5>
LayerCount: 2
Back
Fore
SplineSet
398 692 m 2
 234 594 l 2
 227 590 220 587 216 587 c 0
 207 587 201 595 203 604 c 0
 204 607 205 612 214 619 c 2
 362 721 l 2
 370 727 381 735 389 735 c 0
 402 735 411 722 408 708 c 0
 407 702 406 697 398 692 c 2
559 688 m 2
 400 594 l 2
 394 590 387 587 383 587 c 0
 373 587 368 595 370 604 c 0
 371 607 372 612 380 618 c 2
 528 721 l 2
 537 727 548 735 555 735 c 0
 569 735 577 722 574 708 c 0
 573 702 570 695 559 688 c 2
EndSplineSet
EndChar
StartChar: endash
Encoding: 8211 8211 92
Width: 586
Flags: MW
HStem: 230 38<137 563 150 555>
LayerCount: 2
Back
Fore
SplineSet
150 268 m 2
 563 268 l 2
 573 268 580 259 577 249 c 0
 575 239 565 230 555 230 c 2
 142 230 l 2
 132 230 125 239 127 249 c 0
 130 259 140 268 150 268 c 2
EndSplineSet
EndChar
StartChar: emdash
Encoding: 8212 8212 73
Width: 867
Flags: MW
HStem: 230 38<133 846 146 838>
LayerCount: 2
Back
Fore
SplineSet
146 268 m 2
 846 268 l 2
 857 268 864 259 861 249 c 0
 859 239 849 230 838 230 c 2
 138 230 l 2
 128 230 121 239 123 249 c 0
 126 259 136 268 146 268 c 2
EndSplineSet
EndChar
StartChar: quoteleft
Encoding: 8216 8216 84
Width: 185
Flags: MW
HStem: 571 21G<196.5 211> 706 20G<263.5 276>
LayerCount: 2
Back
Fore
SplineSet
276 706 m 2
 233 635 l 1
 241 627 243 616 242 607 c 0
 237 587 219 571 203 571 c 0
 190 571 182 583 185 594 c 0
 189 612 193 619 216 657 c 0
 241 697 258 726 269 726 c 0
 276 726 281 721 280 716 c 0
 279 713 279 711 276 706 c 2
EndSplineSet
EndChar
StartChar: quoteright
Encoding: 8217 8217 67
Width: 164
Flags: MW
HStem: 589 21G<180.5 189.5> 724 20G<242 256.5>
LayerCount: 2
Back
Fore
SplineSet
177 609 m 2
 219 680 l 1
 212 688 209 699 211 708 c 0
 215 728 234 744 250 744 c 0
 263 744 270 732 268 721 c 0
 264 703 259 696 236 658 c 0
 212 618 195 589 184 589 c 0
 177 589 172 594 173 599 c 0
 173 602 174 604 177 609 c 2
EndSplineSet
EndChar
StartChar: quotedblleft
Encoding: 8220 8220 91
Width: 394
Flags: MW
HStem: 571 21G<230.5 245 370.5 385> 706 20G<297.5 310>
LayerCount: 2
Back
Fore
SplineSet
310 706 m 2
 267 635 l 1
 275 627 277 616 276 607 c 0
 271 587 253 571 237 571 c 0
 224 571 216 583 219 594 c 0
 223 612 227 619 250 657 c 0
 275 697 292 726 303 726 c 0
 310 726 315 721 314 716 c 0
 313 713 313 711 310 706 c 2
450 706 m 2
 407 635 l 1
 415 627 417 616 416 607 c 0
 411 587 393 571 377 571 c 0
 364 571 356 583 359 594 c 0
 363 612 367 619 390 657 c 0
 415 697 432 726 443 726 c 0
 450 726 455 721 454 716 c 0
 453 713 453 711 450 706 c 2
EndSplineSet
EndChar
StartChar: quotedblright
Encoding: 8221 8221 66
Width: 381
Flags: MW
HStem: 589 21G<221.5 230.5 363.5 372.5> 724 20G<283 297.5 425 439.5>
LayerCount: 2
Back
Fore
SplineSet
218 609 m 2
 260 680 l 1
 253 688 250 699 252 708 c 0
 256 728 275 744 291 744 c 0
 304 744 311 732 309 721 c 0
 305 703 300 696 277 658 c 0
 253 618 236 589 225 589 c 0
 218 589 213 594 214 599 c 0
 214 602 215 604 218 609 c 2
360 609 m 2
 402 680 l 1
 395 688 392 699 394 708 c 0
 398 728 417 744 433 744 c 0
 446 744 453 732 451 721 c 0
 447 703 442 696 419 658 c 0
 395 618 378 589 367 589 c 0
 360 589 355 594 356 599 c 0
 356 602 357 604 360 609 c 2
EndSplineSet
EndChar
StartChar: bullet
Encoding: 8226 8226 78
Width: 299
Flags: MW
HStem: 171 165<201.5 211.5>
LayerCount: 2
Back
Fore
SplineSet
288 253 m 0
 279 208 234 171 189 171 c 0
 144 171 115 208 124 253 c 0
 134 298 179 336 224 336 c 0
 269 336 298 298 288 253 c 0
EndSplineSet
EndChar
StartChar: ellipsis
Encoding: 8230 8230 69
Width: 722
Flags: MW
HStem: 0 66<91 126.5>
LayerCount: 2
Back
Fore
SplineSet
98 0 m 0
 84 0 77 14 81 29 c 0
 85 48 103 66 120 66 c 0
 133 66 140 53 137 39 c 0
 132 18 114 0 98 0 c 0
363 0 m 0
 350 0 343 14 347 29 c 0
 351 48 369 66 386 66 c 0
 398 66 406 53 403 39 c 0
 398 18 380 0 363 0 c 0
631 0 m 0
 618 0 610 14 614 29 c 0
 618 48 637 66 654 66 c 0
 666 66 674 53 671 39 c 0
 666 18 648 0 631 0 c 0
EndSplineSet
EndChar
StartChar: guilsinglleft
Encoding: 8249 8249 110
Width: 367
Flags: MW
HStem: 78 21G<275 282> 410 20G<367.5 373.5>
LayerCount: 2
Back
Fore
SplineSet
277 78 m 0
 273 78 269 79 265 83 c 2
 127 235 l 2
 124 238 122 243 123 249 c 0
 124 254 127 259 134 264 c 2
 355 425 l 2
 361 429 366 430 369 430 c 0
 378 430 385 422 383 412 c 0
 382 406 378 401 373 397 c 2
 171 249 l 1
 296 110 l 2
 300 105 301 101 300 96 c 0
 298 87 287 78 277 78 c 0
EndSplineSet
EndChar
StartChar: guilsinglright
Encoding: 8250 8250 64
Width: 367
Flags: MW
HStem: 78 21G<117 124> 410 20G<175.5 181.5>
LayerCount: 2
Back
Fore
SplineSet
122 78 m 0
 112 78 105 87 107 96 c 0
 108 101 111 105 117 110 c 2
 300 249 l 1
 162 397 l 2
 159 401 157 406 158 412 c 0
 160 422 171 430 180 430 c 0
 183 430 188 429 192 425 c 2
 345 264 l 2
 350 259 349 254 348 249 c 0
 347 243 343 238 338 235 c 2
 136 83 l 2
 130 79 126 78 122 78 c 0
EndSplineSet
EndChar
StartChar: Euro
Encoding: 8364 8364 75
Width: 653
Flags: MW
HStem: 0 35<386.5 451 386.5 451.5> 271 39 401 39<160.5 259 174 239 174 274 294 503> 664 35<523 604.5>
LayerCount: 2
Back
Fore
SplineSet
200 272 m 1
 138 272 l 2
 127 272 121 280 123 291 c 0
 125 301 136 311 147 311 c 2
 208 311 l 1
 217 346 228 376 239 401 c 1
 166 401 l 2
 155 401 149 411 151 421 c 0
 153 431 163 440 174 440 c 2
 259 440 l 1
 297 515 436 699 586 699 c 0
 646 699 694 684 734 643 c 0
 737 640 738 636 737 632 c 0
 734 620 726 614 718 614 c 0
 712 614 706 616 701 621 c 0
 675 645 635 664 574 664 c 0
 472 664 345 527 294 440 c 1
 511 440 l 2
 522 440 529 431 527 421 c 0
 525 411 514 401 503 401 c 2
 274 401 l 1
 260 370 250 340 241 311 c 1
 483 309 l 2
 494 309 501 301 499 291 c 0
 497 280 486 271 475 271 c 2
 233 271 l 1
 215 116 344 35 429 35 c 0
 473 35 516 44 555 61 c 0
 562 64 569 66 574 66 c 0
 583 66 586 57 584 48 c 0
 582 39 578 35 569 31 c 0
 522 11 477 0 426 0 c 0
 278 0 178 137 200 272 c 1
EndSplineSet
EndChar
StartChar: trademark
Encoding: 8482 8482 97
Width: 598
Flags: MW
HStem: 482 21G<709 728> 485 213<262.5 270 181 563> 673 25<172.5 435 181 294 319 430 319 319>
LayerCount: 2
Back
Fore
SplineSet
430 673 m 2x40
 319 673 l 1xa0
 281 497 l 2
 280 490 274 485 266 485 c 0x40
 259 485 255 490 256 497 c 2
 294 673 l 1
 176 673 l 2xa0
 169 673 165 678 166 686 c 0
 168 693 174 698 181 698 c 2
 435 698 l 2
 443 698 447 693 445 686 c 0
 444 678 438 673 430 673 c 2x40
702 491 m 2
 680 651 l 1
 574 492 l 2
 571 487 565 485 561 485 c 0x40
 555 485 551 487 550 492 c 2
 525 651 l 1
 423 494 l 2
 419 489 414 487 410 487 c 0
 403 487 398 491 399 498 c 0
 400 500 400 502 403 506 c 2
 523 691 l 2
 526 696 532 698 537 698 c 0
 543 698 546 696 547 691 c 2
 571 531 l 1
 678 691 l 2
 681 695 685 698 691 698 c 0
 697 698 700 696 701 691 c 2
 728 503 l 2
 729 498 729 496 729 494 c 0
 727 487 718 482 711 482 c 0
 707 482 703 485 702 491 c 2
EndSplineSet
EndChar
StartChar: .notdef
Encoding: 65536 -1 0
Width: 490
Flags: MW
HStem: 0 21<50 51 51 430 50 445> 660 21<62 62 62 442>
VStem: 20 21<46 650 650 655 46 658.5> 455 20<21.5 31 31 641 641 641>
LayerCount: 2
Back
Fore
SplineSet
234 342 m 1
 41 655 l 1
 41 46 l 1
 234 342 l 1
62 660 m 1
 246 361 l 1
 442 660 l 1
 62 660 l 1
246 320 m 1
 50 21 l 1
 430 21 l 1
 246 320 l 1
258 339 m 1
 455 21 l 1
 455 641 l 1
 258 339 l 1
475 650 m 2
 475 31 l 2
 475 12 460 0 445 0 c 2
 51 0 l 2
 33 0 20 13 20 31 c 2
 20 650 l 2
 20 667 33 681 51 681 c 2
 445 681 l 2
 461 681 475 667 475 650 c 2
EndSplineSet
EndChar
